<svg width="25" height="17" viewBox="0 0 25 17" fill="none" xmlns="http://www.w3.org/2000/svg">
<path fill-rule="evenodd" clip-rule="evenodd" d="M13.1667 15.437C15.6575 13.9961 17.3334 11.303 17.3334 8.21848C17.3334 5.13396 15.6575 2.44087 13.1667 1C10.6758 2.44087 9 5.13396 9 8.21848C9 11.303 10.6758 13.9961 13.1667 15.437Z" fill="#AD7F89"/>
<path fill-rule="evenodd" clip-rule="evenodd" d="M12.3809 15.5518C14.8717 14.1109 16.5475 11.4178 16.5475 8.33333C16.5475 5.24882 14.8717 2.55572 12.3809 1.11485C13.6066 0.40581 15.0297 0 16.5475 0C21.1499 0 24.8809 3.73096 24.8809 8.33333C24.8809 12.9357 21.1499 16.6667 16.5475 16.6667C15.0297 16.6667 13.6066 16.2609 12.3809 15.5518Z" fill="#DB7F67"/>
<circle cx="16.6666" cy="8.33333" r="7.83333" stroke="#4D4D4D"/>
<circle cx="8.33333" cy="8.33333" r="7.83333" stroke="#4D4D4D"/>
</svg>
