<svg width="527" height="435" viewBox="0 0 527 435" fill="none" xmlns="http://www.w3.org/2000/svg">
<path d="M212.068 128.972L4.76056 248.514C3.4787 249.253 2.414 250.316 1.67371 251.598C0.933411 252.879 0.543579 254.333 0.543579 255.813C0.543579 257.293 0.933411 258.747 1.67371 260.029C2.414 261.31 3.4787 262.374 4.76056 263.112L297.222 431.088C300.712 433.091 304.656 434.165 308.678 434.21C312.701 434.254 316.668 433.267 320.2 431.342L521.874 321.427C523.188 320.712 524.288 319.659 525.061 318.378C525.833 317.096 526.251 315.632 526.27 314.136C526.29 312.639 525.91 311.165 525.171 309.864C524.432 308.562 523.359 307.482 522.064 306.733L209.22 125.6" fill="#D1E3EC"/>
<path d="M117.419 273.436L184.818 297.518C184.818 297.518 190.784 308.839 156.886 328.995L102.939 279.215" fill="url(#paint0_linear)"/>
<path d="M267.044 322.693L389.182 387.958L346.723 410.996L230.536 338.242" fill="url(#paint1_linear)"/>
<path d="M335.187 286.15L462.752 355.817C462.752 355.817 440.597 358.176 406.668 378.316L289.468 311.816" fill="url(#paint2_linear)"/>
<path d="M286.667 259.202L239.43 276.935C239.43 276.935 237.451 278.217 238.717 281.289C239.445 283.047 243.354 285.58 243.354 285.58L284.135 309.33C286.365 310.324 288.735 310.965 291.162 311.23C294.421 311.42 299.881 308.776 299.881 308.776L337.861 286.767L286.667 259.202Z" fill="#34323D"/>
<path d="M286.002 257.001L240.869 275.462C240.869 275.462 237.704 277.188 238.543 279.532C239.445 281.274 240.852 282.703 242.579 283.632L283.47 307.145C285.7 308.139 288.07 308.78 290.497 309.045C293.757 309.235 299.216 306.591 299.216 306.591L335.187 286.15L286.002 257.001Z" fill="#435950"/>
<path d="M392.742 319.083C393.603 319.45 394.559 319.529 395.468 319.31C396.377 319.09 397.192 318.583 397.79 317.864C397.79 317.864 398.677 317.69 398.677 313.811V133.833C398.628 132.276 398.253 130.746 397.574 129.344C396.895 127.941 395.928 126.698 394.736 125.695C390.325 122.605 385.727 119.792 380.968 117.272L181.019 1.79911L178.772 0.659112C178.015 0.282913 177.148 0.191066 176.329 0.400278C175.511 0.609489 174.794 1.10586 174.31 1.79911C173.724 2.79668 173.387 3.92103 173.328 5.07661C173.249 6.96078 173.328 25.1533 173.328 25.1533V187.128C173.328 188.683 173.652 190.221 174.278 191.644C174.905 193.067 175.821 194.344 176.968 195.393L392.742 319.083Z" fill="#334C42"/>
<path d="M395.005 291.882V136.541C395.005 131.379 394.293 128.497 390.258 126.344L179.39 4.11077C178.975 3.80202 178.482 3.61502 177.966 3.57074C177.451 3.52645 176.934 3.62663 176.472 3.86005C176.01 4.09346 175.623 4.45089 175.353 4.89228C175.083 5.33367 174.941 5.84159 174.943 6.35911L175.465 166.086L395.005 291.882Z" fill="#5F9EBD"/>
<path d="M349.477 370.684C347.553 372.547 345.231 373.949 342.688 374.785C338.241 376.368 323.524 382.132 323.524 382.132C323.524 382.132 313.111 386.391 310.42 385.742C307.73 385.092 341.073 370.684 341.073 370.684H349.477Z" fill="#34323D"/>
<path d="M315.659 384.301C314.815 384.705 313.943 385.044 313.047 385.314C309.96 386.128 306.68 385.755 303.853 384.269C297.175 380.881 296.463 376.558 297.95 373.012C299.438 369.465 316.83 361.517 324.457 360.345C329.141 359.662 333.92 360.079 338.415 361.564C340.812 362.335 343.091 363.432 345.188 364.826C346.581 365.776 350.948 368.388 349.492 370.605C349.123 371.036 348.613 371.322 348.052 371.412C342.355 372.996 336.674 374.785 331.12 376.875C327.955 378.078 324.79 379.472 321.751 380.992C319.726 382.068 317.732 383.335 315.659 384.301Z" fill="#334C42"/>
<path d="M314.393 350.227V353.6C314.393 353.6 314.393 354.122 313.111 354.724C311.829 355.326 281.461 367.391 281.461 367.391C281.059 367.586 280.618 367.687 280.171 367.687C279.724 367.687 279.283 367.586 278.881 367.391C277.599 366.71 157.029 296.996 157.029 296.996C157.029 296.996 156.443 296.632 156.886 295.159L158.77 294.415" fill="#2F2E36"/>
<path d="M313.538 349.357C313.538 349.357 314.725 349.927 314.234 350.544C313.744 351.162 302.65 356.307 302.65 356.307L281.714 365.807C281.343 366.048 280.922 366.199 280.483 366.252C280.044 366.304 279.599 366.255 279.182 366.108C277.821 365.586 157.329 296.062 157.329 296.062C157.21 295.944 157.122 295.798 157.075 295.637C157.028 295.477 157.023 295.307 157.06 295.143C157.06 295.143 157.06 294.858 157.662 294.589C158.263 294.32 189.185 279.421 189.185 279.421C189.521 279.26 189.886 279.167 190.258 279.148C190.63 279.129 191.002 279.184 191.353 279.31C192.239 279.785 313.538 349.357 313.538 349.357Z" fill="#334C42"/>
<path d="M462.752 135.512V183.914C462.753 185.096 462.447 186.258 461.864 187.286C461.28 188.314 460.439 189.172 459.424 189.776C458.408 190.379 457.253 190.708 456.072 190.73C454.891 190.752 453.724 190.465 452.687 189.899L387.615 154.417C386.541 153.83 385.645 152.965 385.021 151.911C384.397 150.858 384.068 149.656 384.07 148.432V97.9233C384.068 96.7273 384.382 95.5521 384.978 94.5157C385.575 93.4794 386.434 92.6185 387.468 92.0198C388.503 91.4212 389.677 91.1057 390.872 91.1053C392.068 91.1049 393.242 91.4195 394.277 92.0174L459.35 129.622C460.383 130.219 461.242 131.077 461.839 132.111C462.436 133.145 462.751 134.318 462.752 135.512Z" fill="white"/>
<path d="M384.07 135.987V168.667L397.964 156.158" fill="white"/>
<path d="M188.97 44.6307C186.951 39.9879 188.609 34.7905 192.672 33.022C196.735 31.2534 201.666 33.5835 203.685 38.2262C205.703 42.869 204.046 48.0664 199.982 49.835C195.919 51.6035 190.989 49.2735 188.97 44.6307Z" fill="#F4F4F4"/>
<path d="M356.25 182.774V241.041L344.175 233.979L344.064 175.728L356.25 182.774Z" fill="#F4F4F4"/>
<path d="M335.962 161.257L336.183 229.736L323.523 222.389V154.227L335.962 161.257Z" fill="#F4F4F4"/>
<path d="M315.532 142.732L315.738 218.304L304.455 211.749V135.987L315.532 142.732Z" fill="#F4F4F4"/>
<path d="M188.958 68.725C186.94 64.0822 188.597 58.8848 192.66 57.1162C196.724 55.3477 201.654 57.6777 203.673 62.3205C205.691 66.9633 204.034 72.1607 199.971 73.9292C195.907 75.6978 190.977 73.3677 188.958 68.725Z" fill="#F4F4F4"/>
<path d="M189.672 93.2843C186.858 89.0764 187.562 83.6665 191.245 81.2008C194.927 78.7352 200.194 80.1474 203.008 84.3553C205.823 88.5631 205.119 93.973 201.436 96.4387C197.754 98.9044 192.487 97.4921 189.672 93.2843Z" fill="#F4F4F4"/>
<path d="M258.325 170.962C261.176 170.965 264.01 170.527 266.728 169.664C276.334 166.608 283.55 158.581 287.063 147.212C290.26 135.774 289.951 123.64 286.177 112.379C277.9 86.3016 256.41 70.6424 237.23 76.7383C218.05 82.8341 209.52 107.946 217.86 134.023C221.27 145.426 228.031 155.538 237.262 163.046C243.213 167.944 250.622 170.729 258.325 170.962ZM245.586 89.2149C256.125 89.2149 267.946 100.583 272.995 116.48C275.935 125.083 276.227 134.372 273.833 143.143C271.697 150.094 267.693 154.828 262.534 156.459C257.375 158.09 251.457 156.538 245.633 152.089C238.627 146.305 233.516 138.55 230.963 129.827C225.235 111.777 230.03 93.4108 241.408 89.8483C242.759 89.4228 244.169 89.2092 245.586 89.2149Z" fill="white"/>
<path d="M355.189 248.182C355.187 248.668 355.057 249.145 354.813 249.565C354.569 249.986 354.219 250.335 353.798 250.579C353.377 250.822 352.9 250.951 352.414 250.953C351.928 250.954 351.45 250.829 351.027 250.588L299.153 220.948C298.731 220.704 298.38 220.354 298.135 219.931C297.891 219.509 297.762 219.03 297.761 218.542C297.762 218.056 297.89 217.58 298.132 217.159C298.375 216.739 298.722 216.389 299.141 216.144C299.56 215.899 300.036 215.768 300.521 215.764C301.006 215.76 301.483 215.882 301.907 216.119L353.781 245.775C354.206 246.017 354.561 246.367 354.808 246.789C355.055 247.212 355.187 247.692 355.189 248.182Z" fill="#F4F4F4"/>
<path d="M366.489 134.451V155.462C366.488 155.978 366.352 156.486 366.094 156.934C365.835 157.381 365.464 157.753 365.016 158.011C364.569 158.269 364.061 158.405 363.545 158.405C363.028 158.405 362.521 158.269 362.074 158.011L304.977 125.014C304.53 124.756 304.158 124.384 303.9 123.937C303.642 123.489 303.505 122.982 303.505 122.465V101.47C303.505 100.953 303.642 100.445 303.9 99.9979C304.158 99.5504 304.53 99.1788 304.977 98.9205C305.425 98.6621 305.932 98.5262 306.449 98.5262C306.966 98.5263 307.473 98.6623 307.92 98.9208L365.033 131.886C365.479 132.147 365.849 132.522 366.105 132.973C366.36 133.423 366.493 133.933 366.489 134.451Z" fill="#F4F4F4"/>
<path d="M346.619 141.995C345.064 137.094 346.977 132.113 350.893 130.87C354.808 129.626 359.242 132.591 360.797 137.492C362.352 142.393 360.438 147.374 356.523 148.617C352.608 149.861 348.173 146.896 346.619 141.995Z" fill="white"/>
<path d="M343.463 128.846L310.088 110.083C309.953 110.004 309.835 109.899 309.74 109.775C309.646 109.65 309.577 109.508 309.537 109.356C309.497 109.205 309.488 109.047 309.509 108.892C309.53 108.737 309.582 108.588 309.661 108.452C309.74 108.317 309.845 108.199 309.969 108.104C310.094 108.01 310.236 107.941 310.388 107.901C310.539 107.861 310.697 107.852 310.852 107.873C311.007 107.894 311.156 107.946 311.291 108.025L344.666 126.787C344.939 126.947 345.137 127.208 345.217 127.514C345.297 127.82 345.253 128.145 345.093 128.418C344.934 128.691 344.672 128.89 344.367 128.97C344.061 129.05 343.736 129.005 343.463 128.846Z" fill="#A93032"/>
<path d="M342.213 137L321.466 125.378C321.331 125.299 321.213 125.194 321.119 125.07C321.024 124.945 320.955 124.803 320.915 124.651C320.876 124.5 320.866 124.342 320.887 124.187C320.909 124.032 320.96 123.883 321.039 123.747C321.118 123.612 321.223 123.494 321.348 123.399C321.472 123.305 321.614 123.236 321.766 123.196C321.917 123.156 322.075 123.147 322.23 123.168C322.385 123.189 322.534 123.241 322.669 123.32L343.416 134.942C343.551 135.021 343.669 135.125 343.764 135.25C343.858 135.375 343.927 135.517 343.967 135.668C344.007 135.82 344.016 135.978 343.995 136.133C343.974 136.288 343.922 136.437 343.843 136.572C343.764 136.708 343.659 136.826 343.535 136.92C343.41 137.015 343.268 137.084 343.116 137.124C342.965 137.164 342.807 137.173 342.652 137.152C342.497 137.131 342.348 137.079 342.213 137Z" fill="#A93032"/>
<path d="M232.609 144.188L218.905 135.369L227.149 111.825L241.139 120.612L234.271 138.837L232.609 144.188Z" fill="#F4F4F4"/>
<path d="M230.362 146.326L231.248 142.383C230.746 141.096 230.645 139.688 230.959 138.342C231.272 136.997 231.986 135.778 233.005 134.847C232.412 133.185 232.066 131.446 231.976 129.685C231.966 129.562 231.987 129.438 232.036 129.324C232.086 129.211 232.163 129.112 232.261 129.036C232.346 128.894 232.469 128.779 232.615 128.704C232.762 128.628 232.927 128.595 233.091 128.608C233.256 128.621 233.413 128.68 233.546 128.778C233.679 128.876 233.782 129.009 233.843 129.162C234.239 130.397 234.571 131.648 234.888 132.915C235.219 133.846 235.489 134.798 235.695 135.765C235.901 134.942 236.122 134.182 236.36 133.311C236.376 133.204 236.413 133.102 236.47 133.01L236.676 132.345C237.045 130.835 237.483 129.347 237.99 127.88V127.785C238.042 127.644 238.143 127.526 238.274 127.452C238.242 131.905 237.808 136.346 236.977 140.721C236.382 142.513 235.669 144.264 234.84 145.962C234.778 146.079 234.685 146.177 234.571 146.247C234.413 146.737 234.255 147.212 234.049 147.687V147.782L233.923 148.226C233.853 148.377 233.742 148.506 233.601 148.596C233.461 148.686 233.298 148.734 233.131 148.734C232.965 148.734 232.802 148.686 232.661 148.596C232.521 148.506 232.41 148.377 232.34 148.226C231.755 148.606 230.758 148.226 231.011 147.466C230.888 147.444 230.771 147.395 230.669 147.322C230.567 147.25 230.482 147.156 230.42 147.047C230.358 146.939 230.321 146.818 230.311 146.693C230.301 146.568 230.318 146.443 230.362 146.326Z" fill="#FCBF81"/>
<path d="M209.014 123.716C208.571 123.447 214.442 118.807 214.948 118.364C217.9 115.711 220.705 112.899 223.351 109.941C223.437 109.846 223.546 109.775 223.668 109.735C224.163 109.176 224.692 108.647 225.25 108.152C225.389 108.019 225.567 107.935 225.758 107.913C225.948 107.89 226.141 107.93 226.307 108.027C226.473 108.123 226.603 108.271 226.678 108.447C226.753 108.624 226.768 108.82 226.722 109.007C226.281 110.994 225.262 112.806 223.794 114.216C224.079 114.786 224.396 115.419 224.633 116.052C224.562 116.079 224.501 116.126 224.459 116.189C224.416 116.251 224.394 116.325 224.396 116.401C224.411 116.711 224.481 117.017 224.601 117.303C224.654 117.506 224.74 117.698 224.855 117.873C224.905 117.946 224.977 118.001 225.06 118.032C225.032 118.447 224.911 118.85 224.705 119.212C224.5 119.574 224.216 119.885 223.874 120.122C224.014 120.986 223.828 121.872 223.351 122.607L223.256 122.687H223.114C221.882 123.009 220.676 123.422 219.506 123.922C219.454 123.958 219.411 124.007 219.381 124.063C219.352 124.12 219.337 124.182 219.337 124.246C219.337 124.31 219.352 124.373 219.381 124.429C219.411 124.486 219.454 124.534 219.506 124.571C218.59 124.727 217.665 124.827 216.736 124.872C216.633 124.881 216.53 124.869 216.432 124.837C216.333 124.804 216.243 124.751 216.167 124.682L215.755 124.903C215.62 124.976 215.469 125.013 215.316 125.011C215.163 125.009 215.013 124.968 214.88 124.892C214.747 124.816 214.635 124.708 214.556 124.577C214.477 124.446 214.432 124.296 214.426 124.143C214.41 124.038 214.41 123.932 214.426 123.827L214.03 124.08C214.029 124.231 213.994 124.38 213.928 124.516C213.862 124.652 213.766 124.772 213.648 124.866C213.529 124.96 213.391 125.027 213.244 125.061C213.097 125.094 212.944 125.095 212.796 125.062C212.54 125.022 212.308 124.888 212.147 124.686C211.986 124.483 211.907 124.227 211.926 123.969C211.935 123.833 211.967 123.699 212.021 123.573L211.087 124.381C211.053 124.418 211.008 124.444 210.958 124.454C210.909 124.464 210.857 124.458 210.811 124.437C210.765 124.416 210.727 124.381 210.703 124.336C210.679 124.292 210.669 124.241 210.675 124.191C210.665 124.155 210.665 124.116 210.675 124.08C210.172 124.571 209.706 125.101 209.283 125.663C203.111 130.92 208.84 123.906 209.014 123.716ZM212.828 124.602C212.962 124.638 213.105 124.623 213.228 124.558C213.351 124.494 213.445 124.385 213.492 124.254C213.361 124.248 213.232 124.214 213.114 124.154C212.997 124.094 212.894 124.009 212.812 123.906C212.782 123.921 212.749 123.931 212.716 123.932C212.682 123.934 212.649 123.929 212.617 123.917C212.586 123.905 212.557 123.887 212.533 123.863C212.51 123.839 212.491 123.811 212.48 123.779C212.438 123.853 212.414 123.936 212.41 124.021C212.406 124.106 212.421 124.191 212.455 124.269C212.488 124.347 212.539 124.416 212.604 124.471C212.669 124.526 212.745 124.566 212.828 124.587V124.602Z" fill="#FCBF81"/>
<path d="M210.201 123.89C211.322 123.437 212.348 122.776 213.224 121.942C213.396 121.764 213.603 121.623 213.831 121.526C214.06 121.429 214.305 121.379 214.553 121.379C214.801 121.379 215.046 121.429 215.275 121.526C215.503 121.623 215.71 121.764 215.882 121.942C216.083 121.49 216.252 121.025 216.389 120.549C216.543 120.072 216.875 119.673 217.316 119.435C217.757 119.196 218.272 119.137 218.756 119.27C219.239 119.402 219.652 119.716 219.91 120.146C220.168 120.576 220.25 121.089 220.139 121.578C219.687 123.492 218.653 125.218 217.18 126.518C215.641 127.63 213.915 128.456 212.084 128.957C211.766 129.033 211.433 129.03 211.116 128.948C210.798 128.866 210.506 128.706 210.265 128.484C210.024 128.261 209.842 127.983 209.734 127.673C209.626 127.364 209.596 127.032 209.647 126.708L209.521 126.534C209.269 126.091 209.199 125.568 209.326 125.074C209.453 124.581 209.767 124.156 210.201 123.89Z" fill="#FCBF81"/>
<path d="M215.66 126.55C217.07 126.145 218.311 125.296 219.201 124.13C220.09 122.963 220.58 121.541 220.598 120.074C220.586 120.047 220.58 120.017 220.58 119.987C220.58 119.957 220.586 119.927 220.598 119.9L222.608 118C222.892 117.715 223.193 117.446 223.446 117.145C223.699 116.844 224.855 114.422 222.924 114.912C222.338 115.055 221.341 116.179 220.819 116.591C220.297 117.002 219.49 117.731 218.841 118.317C218.604 118.522 218.271 118.19 218.493 117.968C219.685 116.913 220.92 115.857 222.196 114.802C222.797 114.342 223.399 113.852 224.095 114.453C224.351 114.675 224.529 114.973 224.603 115.304C224.677 115.634 224.643 115.98 224.506 116.29C224.649 116.923 225.139 117.525 225.045 118.206C224.865 118.87 224.483 119.462 223.953 119.9L223.652 120.201C223.663 120.242 223.663 120.286 223.652 120.327C223.652 121.119 223.984 122.053 223.24 122.592C222.923 122.792 222.576 122.941 222.212 123.035L220.439 123.621C220.41 123.63 220.38 123.634 220.349 123.631C220.319 123.628 220.289 123.619 220.262 123.604C220.236 123.589 220.212 123.569 220.194 123.545C220.175 123.52 220.162 123.492 220.155 123.462C219.164 125.146 217.586 126.404 215.724 126.993C215.486 127.12 215.36 126.645 215.66 126.55ZM224.063 119.077C224.273 118.878 224.419 118.621 224.483 118.34C224.548 118.058 224.529 117.764 224.427 117.493C224.427 117.303 224.285 117.113 224.206 116.939C223.283 118.119 222.22 119.183 221.041 120.106C221.041 120.106 221.041 120.217 221.041 120.264C221.078 120.238 221.122 120.224 221.167 120.224C221.213 120.224 221.257 120.238 221.294 120.264C222.18 121.167 223.541 119.71 224.063 119.077ZM222.481 122.465C222.689 122.419 222.878 122.309 223.02 122.15C223.162 121.991 223.25 121.791 223.272 121.578C223.304 121.241 223.304 120.902 223.272 120.565C222.592 121.072 221.69 121.404 221.072 120.787C220.996 121.624 220.766 122.44 220.392 123.193C221.025 122.94 221.816 122.75 222.513 122.465H222.481Z" fill="#34323D"/>
<path d="M188.41 138.821C189.09 137.586 213.239 120.739 214.632 118.744C216.397 120.715 217.527 123.174 217.875 125.798C218.222 128.422 217.77 131.09 216.578 133.453C216.578 133.453 203.57 150.87 196.322 152.817" fill="#A93032"/>
<path d="M238.084 150.474C238.084 150.474 234.366 143.713 227.371 142.019C227.371 142.019 220.171 158.597 214.996 157.251C209.821 155.905 209.251 141.702 197.446 138.251C185.64 134.799 194.154 176.251 209.536 176.441C224.918 176.631 233.875 164.803 238.084 150.474Z" fill="#A93032"/>
<path d="M192.334 297.297L197.841 299.782C197.969 300.313 198.231 300.802 198.602 301.201C198.974 301.601 199.442 301.897 199.962 302.062C200.143 302.32 200.414 302.501 200.722 302.569C203.007 302.916 205.342 302.726 207.542 302.015C210.327 301.382 221.247 298.167 217.702 305.562C215.66 306.765 213.397 307.762 211.372 308.807C210.201 309.393 209.03 309.979 207.843 310.517C207.203 310.882 206.508 311.138 205.786 311.277C204.203 311.388 200.642 309.947 200.516 310.327C200.389 310.707 199.819 313.605 199.819 313.605C199.819 313.605 189.866 316.518 189.976 310.011C189.929 309.156 192.334 297.297 192.334 297.297Z" fill="#E55600"/>
<path d="M187.334 288.05C187.334 288.05 197.224 284.567 199.535 284.582C201.845 284.598 205.627 285.691 201.924 289.649C201.924 289.649 191.353 295.412 190.008 295.507C188.663 295.602 185.53 294.352 185.419 294.684C185.308 295.017 184.802 297.534 184.802 297.534C184.802 297.534 176.146 300.067 176.24 294.367C176.24 293.623 178.345 283.284 178.345 283.284" fill="#E55600"/>
<path d="M189.027 238.602C189.375 219.428 190.261 200.175 187.745 181.096C187.967 176.203 184.58 179.069 184.928 177.153C187.903 161.589 209.267 182.109 209.267 182.109C210.137 182.932 209.852 187.762 209.947 188.87C210.496 194.982 210.897 201.104 211.15 207.237C212.464 238.191 208.618 268.575 204.614 299.197C199.361 303.772 196.069 304.992 188.489 301.16C188.489 280.909 188.679 260.658 189.011 240.423C189.011 239.811 189.016 239.204 189.027 238.602Z" fill="#F4F4F4"/>
<path d="M176.335 272.359C176.826 264.743 177.759 257.143 178.408 249.607C179.405 238.048 179.12 226.474 179.263 214.9C180.703 200.555 182.159 182.315 182.159 182.315L194.028 185.624C194.028 185.624 201.734 285.627 189.897 289.871C178.06 294.114 176.24 286.403 176.24 286.403C176.24 286.403 176.256 280.529 176.335 272.359Z" fill="#F4F4F4"/>
<path d="M181.194 181.634C181.258 179.625 181.513 177.626 181.953 175.665C182.817 169.308 182.817 162.863 181.953 156.507C181.225 150.363 181.178 144.014 184.96 138.773C190.42 135.607 198.016 138.441 202.621 141.829C208.84 146.421 210.929 177.597 210.85 187.239C210.85 188.601 202.589 189.297 201.671 189.361C197.386 189.755 193.065 189.434 188.885 188.411C185.909 187.603 182.206 186.131 181.368 182.806C181.272 182.422 181.214 182.029 181.194 181.634Z" fill="#A93032"/>
<path d="M188.9 190.627C189.008 190.473 189.164 190.358 189.343 190.299C189.522 190.241 189.715 190.242 189.893 190.302C190.072 190.363 190.226 190.48 190.332 190.636C190.438 190.791 190.491 190.977 190.483 191.166C184.849 208.424 194.186 226.268 192.382 243.859C191.432 253.122 189.786 262.257 189.217 271.583C188.654 281.485 188.755 291.414 189.517 301.303C189.597 302.411 187.935 302.316 187.792 301.223C187.03 291.335 186.929 281.406 187.492 271.504C188.062 261.672 189.976 252.029 190.768 242.244C192.255 224.938 183.33 207.696 188.9 190.627Z" fill="#34323D"/>
<path d="M199.756 163.632C200.016 166.612 201.184 169.44 203.103 171.734C205.022 174.028 207.599 175.676 210.486 176.457C210.486 177.042 210.675 180.684 210.723 181.207C203.823 179.623 198.743 170.899 198.063 163.568C197.92 162.523 199.645 162.523 199.756 163.632Z" fill="#06825E"/>
<path d="M195.594 121.167C196.117 121.277 200.848 131.078 199.392 137.206C197.937 143.333 187.397 137.522 184.628 133.01C181.858 128.497 185.767 118.997 195.594 121.167Z" fill="#FCBF81"/>
<path d="M195.515 122.512C195.553 123.442 195.316 124.363 194.835 125.16C194.354 125.956 193.649 126.594 192.809 126.993C189.961 128.165 187.603 128.988 187.824 130.318C188.046 131.648 193.031 129.922 193.157 132.962C193.244 135.016 193.052 137.072 192.588 139.074C192.334 140.657 183.504 136.351 180.339 128.656C177.174 120.961 184.216 118.602 184.564 118.522C185.559 116.944 187.123 115.81 188.932 115.356C192.398 114.453 193.442 115.767 193.442 115.767C194.217 115.256 195.138 115.013 196.064 115.076C196.991 115.139 197.871 115.504 198.569 116.116C199.312 116.67 199.899 117.406 200.274 118.253C200.65 119.1 200.801 120.03 200.714 120.952C200.626 121.875 200.303 122.759 199.775 123.52C199.247 124.282 198.532 124.894 197.699 125.299L195.515 122.512Z" fill="#34323D"/>
<path d="M136.282 199.352C134.058 199.224 131.837 199.66 129.825 200.618C127.764 201.785 126.158 203.615 125.268 205.812C124.271 207.902 123.844 210.878 121.771 212.145C120.965 212.575 120.267 213.181 119.729 213.918C119.226 214.629 118.905 215.453 118.795 216.317C118.685 217.181 118.788 218.059 119.096 218.874C120.014 220.711 123.844 221.835 125.568 221.502" fill="#8FDB5E"/>
<path d="M137.976 199.573C140.572 199.806 143.03 200.848 145.003 202.552C146.976 204.257 148.365 206.537 148.974 209.073C149.621 211.621 149.648 214.287 149.053 216.847C148.563 218.906 147.344 222.484 144.828 222.642C141.425 222.848 140.334 219.666 139.257 217.053C138.181 214.441 137.058 211.559 134.336 210.53C132.989 210.013 131.52 209.906 130.112 210.222C128.705 210.537 127.421 211.261 126.423 212.303L137.976 199.573Z" fill="#1E8C0E"/>
<path d="M122.419 213.396C124.477 210.736 126.186 207.838 128.164 205.131C129.288 203.386 130.628 201.79 132.152 200.381C136.899 198.085 142.834 200.191 146.394 204.212C145.92 204.355 145.255 204.387 144.812 204.513C142.717 205.319 140.856 206.636 139.4 208.345C137.311 210.657 135.681 213.491 133.829 215.961C130.823 219.951 126.835 223.244 121.692 220.853C118.4 219.254 120.979 215.264 122.419 213.396Z" fill="#8FDB5E"/>
<path d="M105.74 179.18C105.74 179.18 95.0897 178.341 95.2954 195.203C95.5011 212.066 111.405 200.967 107.955 190.817" fill="#1E8C0E"/>
<path d="M107.275 195.773C107.386 190.643 101.625 186.907 96.767 186.273C97.2882 184.114 98.524 182.194 100.274 180.825C102.023 179.457 104.184 178.721 106.404 178.737C113.7 178.927 119.159 186.337 120.394 195.077C120.691 197.707 120.36 200.371 119.427 202.848C118.494 205.325 116.987 207.546 115.029 209.327L111.516 212.335C105.028 209.833 107.433 200.444 107.275 195.773Z" fill="#8FDB5E"/>
<path d="M78.2678 207.822C78.4245 204.63 79.2665 201.509 80.7365 198.671C81.4135 197.312 82.3885 196.123 83.5886 195.194C84.7888 194.264 86.1832 193.618 87.6679 193.303L93.6655 204.862C93.6655 204.862 84.7244 189.218 88.38 201.267C92.0356 213.317 79.9927 226.807 78.3469 208.852C78.3153 208.503 78.2995 208.171 78.2678 207.822Z" fill="#1E8C0E"/>
<path d="M120.647 237.906C120.647 237.906 128.654 243.131 126.439 255.322C125.652 259.555 124.46 263.701 122.878 267.704C121.296 271.678 120.188 276.792 116.184 279.041C114.156 280.141 111.89 280.732 109.583 280.762C107.276 280.793 104.996 280.262 102.939 279.215C99.5047 277.109 98.2704 272.343 97.0202 268.797C95.5188 264.428 94.4896 259.911 93.9502 255.322C90.1522 225.825 120.647 237.906 120.647 237.906Z" fill="white"/>
<path d="M109.854 243.922C103.396 243.922 98.1597 242.03 98.1597 239.695C98.1597 237.36 103.396 235.467 109.854 235.467C116.313 235.467 121.549 237.36 121.549 239.695C121.549 242.03 116.313 243.922 109.854 243.922Z" fill="#34323D"/>
<path d="M108.905 217.148C110.487 213.206 113.652 209.897 114.555 205.669C115.158 202.807 114.914 199.83 113.851 197.105C112.789 194.379 110.954 192.024 108.573 190.327C107.686 189.677 108.573 188.173 109.443 188.838C116.912 194.269 118.368 203.547 114.001 211.448C112.433 213.803 111.113 216.312 110.06 218.937C108.984 222.452 110.187 225.002 111.833 227.646C111.74 225.033 112.671 222.488 114.428 220.552C116.374 218.747 119.175 218.447 121.644 217.639C126.297 216.056 130.395 213.412 131.139 208.139C131.313 207.047 132.975 207.506 132.801 208.598C132.446 210.604 131.606 212.493 130.354 214.099C129.101 215.706 127.475 216.981 125.616 217.813C123.368 218.784 121.051 219.588 118.685 220.22C117.657 220.615 116.722 221.217 115.935 221.987C115.149 222.758 114.528 223.681 114.111 224.701C113.004 227.25 113.763 228.992 114.38 231.462C115.187 234.628 116.469 237.415 114.27 240.455C113.621 241.342 112.117 240.455 112.782 239.584C116.279 234.755 110.693 230.084 108.794 225.999C108.18 224.602 107.872 223.088 107.891 221.562C107.91 220.035 108.256 218.53 108.905 217.148Z" fill="#1E8C0E"/>
<path d="M87.3353 206.556C94.7256 205.257 99.758 210.973 99.3149 218.13C99.1595 219.927 98.8255 221.704 98.3179 223.434C97.7324 224.898 97.4006 226.451 97.3367 228.026C97.5877 229.13 98.1035 230.157 98.8396 231.018C99.5757 231.879 100.51 232.547 101.562 232.966C103.074 233.525 104.43 234.44 105.515 235.633C106.6 236.826 107.383 238.263 107.797 239.822C107.824 240.03 107.775 240.241 107.659 240.416C107.543 240.591 107.368 240.718 107.166 240.774C106.963 240.83 106.748 240.811 106.558 240.72C106.369 240.629 106.219 240.473 106.135 240.281C104.426 233.947 95.691 234.929 95.6277 228.026C95.6277 224.653 97.3842 221.502 97.5899 218.13C97.9539 212.24 94.1084 207.047 87.7943 208.218C86.7182 208.408 86.2434 206.746 87.3353 206.556Z" fill="#1E8C0E"/>
<path d="M80.7362 198.75C83.6005 193.462 88.807 192.227 93.9026 193.794C94.6102 194.079 95.2976 194.413 95.9599 194.792C108.794 204.292 99.6788 225.777 97.7006 225.603C91.1649 225.065 91.8454 221.217 89.6457 210.451C89.2713 208.024 88.0313 205.814 86.155 204.231C84.2787 202.647 81.8928 201.797 79.4385 201.837C79.7794 200.772 80.2137 199.739 80.7362 198.75Z" fill="#8FDB5E"/>
<path d="M83.5532 195.172C85.6738 194.842 87.8444 195.157 89.7833 196.078C91.7221 196.998 93.3394 198.481 94.425 200.333C99.1725 208.25 98.0331 217.322 97.416 225.983C97.3368 227.092 95.6119 227.092 95.691 225.983C96.1499 219.65 97.0203 213.522 95.327 207.379C94.4883 204.371 93.4913 201.046 91.0859 198.861C89.7878 197.712 88.1815 196.969 86.4657 196.724C84.7499 196.479 83.0001 196.743 81.4327 197.483L82.0815 196.597C82.6196 196.169 83.0785 195.678 83.5532 195.172Z" fill="#1E8C0E"/>
<defs>
<linearGradient id="paint0_linear" x1="150.73" y1="297.946" x2="123.501" y2="277.25" gradientUnits="userSpaceOnUse">
<stop stop-color="#D1E3EC"/>
<stop offset="1" stop-color="#8DB9CF"/>
</linearGradient>
<linearGradient id="paint1_linear" x1="-22717.6" y1="22998.8" x2="-26793.3" y2="18709.9" gradientUnits="userSpaceOnUse">
<stop stop-color="#D1E3EC"/>
<stop offset="1" stop-color="#75ACC6"/>
</linearGradient>
<linearGradient id="paint2_linear" x1="-20792.2" y1="21239.1" x2="-23948" y2="16726.3" gradientUnits="userSpaceOnUse">
<stop stop-color="#D1E3EC"/>
<stop offset="1" stop-color="#A3C7D8"/>
</linearGradient>
</defs>
</svg>
