<svg width="446" height="378" viewBox="0 0 446 378" fill="none" xmlns="http://www.w3.org/2000/svg">
<mask id="mask0" mask-type="alpha" maskUnits="userSpaceOnUse" x="23" y="0" width="408" height="318">
<rect x="23" width="408" height="318" fill="url(#paint0_linear)"/>
</mask>
<g mask="url(#mask0)">
<g filter="url(#filter0_ddd)">
<rect x="23" width="423" height="318" rx="4" fill="white"/>
</g>
<rect x="32.3699" y="36.5" width="393.879" height="250" rx="3.5" fill="white" stroke="#DEDEDE"/>
<path d="M50.071 127.5H187.822C188.651 127.5 189.322 128.172 189.322 129V155C189.322 155.828 188.651 156.5 187.822 156.5H50.071C49.2426 156.5 48.571 155.828 48.571 155V129C48.571 128.172 49.2426 127.5 50.071 127.5Z" fill="white" stroke="#BDBDBD"/>
<path d="M65.304 147H66.537V143.281H68.7642C71.1357 143.281 72.2046 141.839 72.2046 140.04C72.2046 138.24 71.1357 136.818 68.7443 136.818H65.304V147ZM66.537 142.188V137.912H68.7046C70.3601 137.912 70.9915 138.817 70.9915 140.04C70.9915 141.263 70.3601 142.188 68.7245 142.188H66.537ZM74.0316 147H75.2049V142.168C75.2049 141.134 76.0203 140.378 77.1339 140.378C77.4471 140.378 77.7703 140.438 77.8498 140.457V139.264C77.7156 139.254 77.4073 139.244 77.2333 139.244C76.3186 139.244 75.5231 139.761 75.2447 140.517H75.1652V139.364H74.0316V147ZM82.1105 147.159C84.1786 147.159 85.5707 145.588 85.5707 143.222C85.5707 140.835 84.1786 139.264 82.1105 139.264C80.0423 139.264 78.6502 140.835 78.6502 143.222C78.6502 145.588 80.0423 147.159 82.1105 147.159ZM82.1105 146.105C80.5394 146.105 79.8235 144.753 79.8235 143.222C79.8235 141.69 80.5394 140.318 82.1105 140.318C83.6815 140.318 84.3974 141.69 84.3974 143.222C84.3974 144.753 83.6815 146.105 82.1105 146.105ZM87.3617 149.864H88.535V145.827H88.6344C88.893 146.244 89.3901 147.159 90.8617 147.159C92.7708 147.159 94.1032 145.628 94.1032 143.202C94.1032 140.795 92.7708 139.264 90.8418 139.264C89.3503 139.264 88.893 140.179 88.6344 140.577H88.4952V139.364H87.3617V149.864ZM88.5151 143.182C88.5151 141.472 89.2708 140.318 90.7026 140.318C92.1941 140.318 92.9299 141.571 92.9299 143.182C92.9299 144.812 92.1742 146.105 90.7026 146.105C89.2907 146.105 88.5151 144.912 88.5151 143.182ZM99.0947 147.159C100.646 147.159 101.779 146.384 102.137 145.23L101.004 144.912C100.705 145.707 100.014 146.105 99.0947 146.105C97.7175 146.105 96.768 145.215 96.7133 143.58H102.257V143.082C102.257 140.239 100.566 139.264 98.9753 139.264C96.9072 139.264 95.535 140.895 95.535 143.241C95.535 145.588 96.8873 147.159 99.0947 147.159ZM96.7133 142.565C96.7928 141.377 97.633 140.318 98.9753 140.318C100.248 140.318 101.063 141.273 101.063 142.565H96.7133ZM104.041 147H105.215V142.168C105.215 141.134 106.03 140.378 107.144 140.378C107.457 140.378 107.78 140.438 107.86 140.457V139.264C107.725 139.254 107.417 139.244 107.243 139.244C106.328 139.244 105.533 139.761 105.254 140.517H105.175V139.364H104.041V147ZM113.05 139.364H111.419V137.534H110.246V139.364H109.093V140.358H110.246V145.131C110.246 146.463 111.32 147.099 112.314 147.099C112.752 147.099 113.03 147.02 113.189 146.96L112.95 145.906C112.851 145.926 112.692 145.966 112.433 145.966C111.916 145.966 111.419 145.807 111.419 144.812V140.358H113.05V139.364ZM115.571 149.844C116.629 149.844 117.38 149.282 117.818 148.114L121.069 139.384L119.786 139.364L117.678 145.449H117.599L115.491 139.364H114.218L117.042 147.04L116.823 147.636C116.406 148.78 115.869 148.889 115.014 148.67L114.715 149.705C114.835 149.764 115.173 149.844 115.571 149.844Z" fill="#8F8F8F"/>
<path d="M198.91 127.5H285.024C285.852 127.5 286.524 128.172 286.524 129V155C286.524 155.828 285.852 156.5 285.024 156.5H198.91C198.082 156.5 197.41 155.828 197.41 155V129C197.41 128.172 198.082 127.5 198.91 127.5Z" fill="white" stroke="#BDBDBD"/>
<path d="M214.561 136.818H213.268L217.007 147H218.279L222.018 136.818H220.725L217.703 145.389H217.583L214.561 136.818ZM224.981 147.179C226.314 147.179 227.01 146.463 227.248 145.966H227.308V147H228.481V141.969C228.481 139.543 226.632 139.264 225.657 139.264C224.504 139.264 223.191 139.662 222.595 141.054L223.708 141.452C223.967 140.895 224.578 140.298 225.697 140.298C226.776 140.298 227.308 140.87 227.308 141.849V141.889C227.308 142.456 226.731 142.406 225.339 142.585C223.922 142.769 222.376 143.082 222.376 144.832C222.376 146.324 223.529 147.179 224.981 147.179ZM225.16 146.125C224.225 146.125 223.549 145.707 223.549 144.892C223.549 143.997 224.365 143.719 225.279 143.599C225.777 143.54 227.109 143.401 227.308 143.162V144.236C227.308 145.19 226.552 146.125 225.16 146.125ZM231.796 136.818H230.623V147H231.796V136.818ZM238.757 143.878C238.757 145.31 237.664 145.966 236.789 145.966C235.814 145.966 235.118 145.25 235.118 144.136V139.364H233.945V144.216C233.945 146.165 234.979 147.099 236.411 147.099C237.564 147.099 238.32 146.483 238.678 145.707H238.757V147H239.931V139.364H238.757V143.878ZM245.281 147.159C246.833 147.159 247.966 146.384 248.324 145.23L247.191 144.912C246.892 145.707 246.201 146.105 245.281 146.105C243.904 146.105 242.955 145.215 242.9 143.58H248.443V143.082C248.443 140.239 246.753 139.264 245.162 139.264C243.094 139.264 241.722 140.895 241.722 143.241C241.722 145.588 243.074 147.159 245.281 147.159ZM242.9 142.565C242.98 141.377 243.82 140.318 245.162 140.318C246.435 140.318 247.25 141.273 247.25 142.565H242.9ZM254.742 147L255.767 144.116H259.883L260.907 147H262.2L258.461 136.818H257.188L253.45 147H254.742ZM256.154 143.023L257.785 138.429H257.865L259.495 143.023H256.154Z" fill="#8F8F8F"/>
<path d="M296.111 127.5H384.25C385.078 127.5 385.75 128.172 385.75 129V155C385.75 155.828 385.078 156.5 384.25 156.5H296.111C295.283 156.5 294.611 155.828 294.611 155V129C294.611 128.172 295.283 127.5 296.111 127.5Z" fill="white" stroke="#BDBDBD"/>
<path d="M311.762 136.818H310.469L314.208 147H315.48L319.219 136.818H317.926L314.904 145.389H314.784L311.762 136.818ZM322.182 147.179C323.514 147.179 324.211 146.463 324.449 145.966H324.509V147H325.682V141.969C325.682 139.543 323.833 139.264 322.858 139.264C321.705 139.264 320.392 139.662 319.796 141.054L320.909 141.452C321.168 140.895 321.779 140.298 322.898 140.298C323.977 140.298 324.509 140.87 324.509 141.849V141.889C324.509 142.456 323.932 142.406 322.54 142.585C321.123 142.769 319.577 143.082 319.577 144.832C319.577 146.324 320.73 147.179 322.182 147.179ZM322.361 146.125C321.426 146.125 320.75 145.707 320.75 144.892C320.75 143.997 321.566 143.719 322.48 143.599C322.978 143.54 324.31 143.401 324.509 143.162V144.236C324.509 145.19 323.753 146.125 322.361 146.125ZM328.997 136.818H327.824V147H328.997V136.818ZM335.958 143.878C335.958 145.31 334.865 145.966 333.99 145.966C333.015 145.966 332.319 145.25 332.319 144.136V139.364H331.146V144.216C331.146 146.165 332.18 147.099 333.612 147.099C334.765 147.099 335.521 146.483 335.879 145.707H335.958V147H337.132V139.364H335.958V143.878ZM342.482 147.159C344.033 147.159 345.167 146.384 345.525 145.23L344.391 144.912C344.093 145.707 343.402 146.105 342.482 146.105C341.105 146.105 340.156 145.215 340.101 143.58H345.644V143.082C345.644 140.239 343.954 139.264 342.363 139.264C340.295 139.264 338.923 140.895 338.923 143.241C338.923 145.588 340.275 147.159 342.482 147.159ZM340.101 142.565C340.181 141.377 341.021 140.318 342.363 140.318C343.636 140.318 344.451 141.273 344.451 142.565H340.101ZM351.526 147H355.205C357.611 147 358.605 145.827 358.605 144.295C358.605 142.685 357.492 141.81 356.557 141.75V141.651C357.432 141.412 358.207 140.835 358.207 139.523C358.207 138.031 357.213 136.818 355.085 136.818H351.526V147ZM352.759 145.906V142.366H355.264C356.597 142.366 357.432 143.261 357.432 144.295C357.432 145.19 356.815 145.906 355.205 145.906H352.759ZM352.759 141.293V137.912H355.085C356.438 137.912 357.034 138.628 357.034 139.523C357.034 140.597 356.159 141.293 355.046 141.293H352.759Z" fill="#8F8F8F"/>
<g opacity="0.5">
<path d="M405 131C399.48 131 395 135.48 395 141C395 146.52 399.48 151 405 151C410.52 151 415 146.52 415 141C415 135.48 410.52 131 405 131ZM410 142H406V146H404V142H400V140H404V136H406V140H410V142Z" fill="black"/>
</g>
<path d="M58.4589 99.9091C58.4589 96.6875 56.5697 94.679 53.9646 94.679C51.3594 94.679 49.4702 96.6875 49.4702 99.9091C49.4702 103.131 51.3594 105.139 53.9646 105.139C56.5697 105.139 58.4589 103.131 58.4589 99.9091ZM57.2657 99.9091C57.2657 102.554 55.814 103.986 53.9646 103.986C52.1151 103.986 50.6634 102.554 50.6634 99.9091C50.6634 97.2642 52.1151 95.8324 53.9646 95.8324C55.814 95.8324 57.2657 97.2642 57.2657 99.9091ZM63.4752 105.159C65.1655 105.159 66.2792 104.125 66.478 102.773H65.3048C65.086 103.608 64.39 104.105 63.4752 104.105C62.0832 104.105 61.1883 102.952 61.1883 101.182C61.1883 99.4517 62.103 98.3182 63.4752 98.3182C64.5093 98.3182 65.1258 98.9545 65.3048 99.6506H66.478C66.2792 98.2188 65.0661 97.2642 63.4553 97.2642C61.3871 97.2642 60.015 98.8949 60.015 101.222C60.015 103.509 61.3275 105.159 63.4752 105.159ZM71.2955 105.159C72.9859 105.159 74.0995 104.125 74.2984 102.773H73.1251C72.9063 103.608 72.2103 104.105 71.2955 104.105C69.9035 104.105 69.0086 102.952 69.0086 101.182C69.0086 99.4517 69.9234 98.3182 71.2955 98.3182C72.3296 98.3182 72.9461 98.9545 73.1251 99.6506H74.2984C74.0995 98.2188 72.8864 97.2642 71.2756 97.2642C69.2075 97.2642 67.8353 98.8949 67.8353 101.222C67.8353 103.509 69.1478 105.159 71.2955 105.159ZM80.8261 101.878C80.8261 103.31 79.7323 103.966 78.8573 103.966C77.8829 103.966 77.1869 103.25 77.1869 102.136V97.3636H76.0136V102.216C76.0136 104.165 77.0477 105.099 78.4795 105.099C79.6329 105.099 80.3886 104.483 80.7465 103.707H80.8261V105H81.9994V97.3636H80.8261V101.878ZM84.1483 107.864H85.3216V103.827H85.4211C85.6796 104.244 86.1767 105.159 87.6483 105.159C89.5574 105.159 90.8898 103.628 90.8898 101.202C90.8898 98.7955 89.5574 97.2642 87.6284 97.2642C86.137 97.2642 85.6796 98.179 85.4211 98.5767H85.2818V97.3636H84.1483V107.864ZM85.3017 101.182C85.3017 99.4716 86.0574 98.3182 87.4892 98.3182C88.9807 98.3182 89.7165 99.571 89.7165 101.182C89.7165 102.812 88.9608 104.105 87.4892 104.105C86.0773 104.105 85.3017 102.912 85.3017 101.182ZM94.9267 105.179C96.2591 105.179 96.9551 104.463 97.1938 103.966H97.2534V105H98.4267V99.9688C98.4267 97.5426 96.5773 97.2642 95.6029 97.2642C94.4495 97.2642 93.137 97.6619 92.5404 99.054L93.654 99.4517C93.9125 98.8949 94.524 98.2983 95.6426 98.2983C96.7215 98.2983 97.2534 98.87 97.2534 99.8494V99.8892C97.2534 100.456 96.6767 100.406 95.2847 100.585C93.8678 100.769 92.3216 101.082 92.3216 102.832C92.3216 104.324 93.475 105.179 94.9267 105.179ZM95.1057 104.125C94.1711 104.125 93.4949 103.707 93.4949 102.892C93.4949 101.997 94.3103 101.719 95.225 101.599C95.7222 101.54 97.0546 101.401 97.2534 101.162V102.236C97.2534 103.19 96.4978 104.125 95.1057 104.125ZM103.889 97.3636H102.259V95.5341H101.085V97.3636H99.9319V98.358H101.085V103.131C101.085 104.463 102.159 105.099 103.153 105.099C103.591 105.099 103.869 105.02 104.028 104.96L103.79 103.906C103.69 103.926 103.531 103.966 103.273 103.966C102.756 103.966 102.259 103.807 102.259 102.812V98.358H103.889V97.3636ZM105.654 105H106.827V97.3636H105.654V105ZM106.251 96.0909C106.708 96.0909 107.086 95.733 107.086 95.2955C107.086 94.858 106.708 94.5 106.251 94.5C105.793 94.5 105.416 94.858 105.416 95.2955C105.416 95.733 105.793 96.0909 106.251 96.0909ZM112.079 105.159C114.147 105.159 115.539 103.588 115.539 101.222C115.539 98.8352 114.147 97.2642 112.079 97.2642C110.011 97.2642 108.618 98.8352 108.618 101.222C108.618 103.588 110.011 105.159 112.079 105.159ZM112.079 104.105C110.508 104.105 109.792 102.753 109.792 101.222C109.792 99.6903 110.508 98.3182 112.079 98.3182C113.65 98.3182 114.366 99.6903 114.366 101.222C114.366 102.753 113.65 104.105 112.079 104.105ZM118.503 100.406C118.503 99.0739 119.329 98.3182 120.452 98.3182C121.541 98.3182 122.202 99.0291 122.202 100.227V105H123.375V100.148C123.375 98.1989 122.336 97.2642 120.79 97.2642C119.637 97.2642 118.921 97.7812 118.563 98.5568H118.463V97.3636H117.33V105H118.503V100.406Z" fill="black" fill-opacity="0.56"/>
<path d="M248.867 105H250.14L252.387 96.8864H252.466L254.714 105H255.986L258.77 94.8182H257.518L255.39 103.111H255.29L253.123 94.8182H251.731L249.563 103.111H249.464L247.336 94.8182H246.083L248.867 105ZM259.669 105H260.842V100.168C260.842 99.1335 261.658 98.3778 262.771 98.3778C263.085 98.3778 263.408 98.4375 263.487 98.4574V97.2642C263.353 97.2543 263.045 97.2443 262.871 97.2443C261.956 97.2443 261.161 97.7614 260.882 98.517H260.803V97.3636H259.669V105ZM264.878 105H266.051V97.3636H264.878V105ZM265.475 96.0909C265.932 96.0909 266.31 95.733 266.31 95.2955C266.31 94.858 265.932 94.5 265.475 94.5C265.017 94.5 264.639 94.858 264.639 95.2955C264.639 95.733 265.017 96.0909 265.475 96.0909ZM271.521 97.3636H269.891V95.5341H268.717V97.3636H267.564V98.358H268.717V103.131C268.717 104.463 269.791 105.099 270.786 105.099C271.223 105.099 271.501 105.02 271.661 104.96L271.422 103.906C271.322 103.926 271.163 103.966 270.905 103.966C270.388 103.966 269.891 103.807 269.891 102.812V98.358H271.521V97.3636ZM276.406 105.159C277.957 105.159 279.091 104.384 279.449 103.23L278.315 102.912C278.017 103.707 277.326 104.105 276.406 104.105C275.029 104.105 274.079 103.215 274.025 101.58H279.568V101.082C279.568 98.2386 277.878 97.2642 276.287 97.2642C274.218 97.2642 272.846 98.8949 272.846 101.241C272.846 103.588 274.199 105.159 276.406 105.159ZM274.025 100.565C274.104 99.3771 274.944 98.3182 276.287 98.3182C277.559 98.3182 278.375 99.2727 278.375 100.565H274.025ZM281.353 105H282.526V100.168C282.526 99.1335 283.341 98.3778 284.455 98.3778C284.768 98.3778 285.091 98.4375 285.171 98.4574V97.2642C285.037 97.2543 284.728 97.2443 284.554 97.2443C283.64 97.2443 282.844 97.7614 282.566 98.517H282.486V97.3636H281.353V105Z" fill="black" fill-opacity="0.56"/>
<path d="M350.244 105L351.268 102.116H355.385L356.409 105H357.702L353.963 94.8182H352.69L348.952 105H350.244ZM351.656 101.023L353.287 96.429H353.366L354.997 101.023H351.656ZM359.129 105H360.302V100.168C360.302 99.1335 361.117 98.3778 362.231 98.3778C362.544 98.3778 362.867 98.4375 362.947 98.4574V97.2642C362.812 97.2543 362.504 97.2443 362.33 97.2443C361.415 97.2443 360.62 97.7614 360.342 98.517H360.262V97.3636H359.129V105ZM368.137 97.3636H366.506V95.5341H365.333V97.3636H364.18V98.358H365.333V103.131C365.333 104.463 366.407 105.099 367.401 105.099C367.839 105.099 368.117 105.02 368.276 104.96L368.038 103.906C367.938 103.926 367.779 103.966 367.521 103.966C367.004 103.966 366.506 103.807 366.506 102.812V98.358H368.137V97.3636ZM369.902 105H371.075V97.3636H369.902V105ZM370.499 96.0909C370.956 96.0909 371.334 95.733 371.334 95.2955C371.334 94.858 370.956 94.5 370.499 94.5C370.041 94.5 369.663 94.858 369.663 95.2955C369.663 95.733 370.041 96.0909 370.499 96.0909ZM378.633 99.0739C378.265 97.9901 377.44 97.2642 375.929 97.2642C374.318 97.2642 373.125 98.179 373.125 99.4716C373.125 100.526 373.751 101.232 375.153 101.56L376.426 101.858C377.197 102.037 377.559 102.405 377.559 102.932C377.559 103.588 376.863 104.125 375.77 104.125C374.81 104.125 374.209 103.712 374 102.892L372.886 103.17C373.16 104.468 374.228 105.159 375.79 105.159C377.564 105.159 378.773 104.19 378.773 102.872C378.773 101.808 378.106 101.137 376.744 100.804L375.611 100.526C374.706 100.302 374.298 99.9986 374.298 99.4119C374.298 98.7557 374.994 98.2784 375.929 98.2784C376.953 98.2784 377.376 98.8452 377.579 99.3722L378.633 99.0739ZM383.86 97.3636H382.229V95.5341H381.056V97.3636H379.902V98.358H381.056V103.131C381.056 104.463 382.13 105.099 383.124 105.099C383.561 105.099 383.84 105.02 383.999 104.96L383.76 103.906C383.661 103.926 383.502 103.966 383.243 103.966C382.726 103.966 382.229 103.807 382.229 102.812V98.358H383.86V97.3636Z" fill="black" fill-opacity="0.56"/>
<g opacity="0.5">
<path d="M405 88C399.48 88 395 92.48 395 98C395 103.52 399.48 108 405 108C410.52 108 415 103.52 415 98C415 92.48 410.52 88 405 88ZM410 99H400V97H410V99Z" fill="black"/>
</g>
<path d="M31.0759 77H425.697" stroke="#BEBEBE"/>
<path d="M49.6393 62H51.4837V58.5597H53.4326C55.7842 58.5597 57.0469 57.1477 57.0469 55.1889C57.0469 53.245 55.7991 51.8182 53.4575 51.8182H49.6393V62ZM51.4837 57.0433V53.3594H53.1741C54.5562 53.3594 55.1677 54.1051 55.1677 55.1889C55.1677 56.2727 54.5562 57.0433 53.184 57.0433H51.4837ZM58.5695 62H60.3692V57.5107C60.3692 56.5412 61.1 55.8551 62.0894 55.8551C62.3926 55.8551 62.7705 55.9098 62.9246 55.9595V54.304C62.7605 54.2741 62.4772 54.2543 62.2783 54.2543C61.4033 54.2543 60.6725 54.7514 60.3941 55.6364H60.3145V54.3636H58.5695V62ZM67.1368 62.1491C69.374 62.1491 70.7959 60.5732 70.7959 58.2116C70.7959 55.8452 69.374 54.2642 67.1368 54.2642C64.8996 54.2642 63.4777 55.8452 63.4777 58.2116C63.4777 60.5732 64.8996 62.1491 67.1368 62.1491ZM67.1467 60.7074C65.9088 60.7074 65.3023 59.6037 65.3023 58.2067C65.3023 56.8097 65.9088 55.6911 67.1467 55.6911C68.3648 55.6911 68.9713 56.8097 68.9713 58.2067C68.9713 59.6037 68.3648 60.7074 67.1467 60.7074ZM72.3234 64.8636H74.1231V60.7969H74.1977C74.4811 61.3537 75.0727 62.1342 76.3852 62.1342C78.1849 62.1342 79.5322 60.7074 79.5322 58.1918C79.5322 55.6463 78.1451 54.2642 76.3802 54.2642C75.0329 54.2642 74.4711 55.0746 74.1977 55.6264H74.0933V54.3636H72.3234V64.8636ZM74.0883 58.1818C74.0883 56.7003 74.7247 55.7408 75.8831 55.7408C77.0812 55.7408 77.6977 56.7599 77.6977 58.1818C77.6977 59.6136 77.0713 60.6577 75.8831 60.6577C74.7346 60.6577 74.0883 59.6634 74.0883 58.1818ZM84.4541 62.1491C86.2339 62.1491 87.4569 61.2791 87.7751 59.9517L86.0947 59.7628C85.8511 60.4091 85.2545 60.7472 84.4789 60.7472C83.3156 60.7472 82.545 59.9815 82.5301 58.674H87.8497V58.1222C87.8497 55.4425 86.2389 54.2642 84.3596 54.2642C82.1721 54.2642 80.7453 55.87 80.7453 58.2266C80.7453 60.6229 82.1522 62.1491 84.4541 62.1491ZM82.535 57.4609C82.5897 56.4865 83.3106 55.6662 84.3845 55.6662C85.4186 55.6662 86.1146 56.4219 86.1245 57.4609H82.535ZM89.3722 62H91.1719V57.5107C91.1719 56.5412 91.9028 55.8551 92.8921 55.8551C93.1954 55.8551 93.5732 55.9098 93.7273 55.9595V54.304C93.5633 54.2741 93.2799 54.2543 93.081 54.2543C92.206 54.2543 91.4752 54.7514 91.1968 55.6364H91.1173V54.3636H89.3722V62ZM99.1464 54.3636H97.64V52.5341H95.8403V54.3636H94.7565V55.7557H95.8403V60.0014C95.8303 61.4382 96.8744 62.1442 98.2266 62.1044C98.7387 62.0895 99.0917 61.9901 99.2856 61.9254L98.9823 60.5185C98.8829 60.5433 98.679 60.5881 98.4553 60.5881C98.0029 60.5881 97.64 60.429 97.64 59.7031V55.7557H99.1464V54.3636ZM101.77 64.8487C103.172 64.8487 103.982 64.1229 104.415 62.9247L107.482 54.3736L105.558 54.3636L103.794 60.1307H103.714L101.954 54.3636H100.045L102.814 62.1591L102.66 62.5717C102.317 63.4169 101.8 63.4815 101.014 63.2578L100.597 64.6548C100.84 64.7592 101.278 64.8487 101.77 64.8487Z" fill="black" fill-opacity="0.56"/>
<path d="M234.307 51.8182H232.284L235.868 62H238.145L241.735 51.8182H239.707L237.062 59.8324H236.957L234.307 51.8182ZM244.387 62.1541C245.585 62.1541 246.301 61.5923 246.629 60.951H246.689V62H248.419V56.8892C248.419 54.8707 246.774 54.2642 245.317 54.2642C243.711 54.2642 242.478 54.9801 242.08 56.3722L243.761 56.6108C243.94 56.0888 244.447 55.6413 245.327 55.6413C246.162 55.6413 246.62 56.0689 246.62 56.8196V56.8494C246.62 57.3665 246.078 57.3913 244.73 57.5355C243.249 57.6946 241.832 58.1371 241.832 59.8572C241.832 61.3587 242.931 62.1541 244.387 62.1541ZM244.855 60.8317C244.104 60.8317 243.567 60.4886 243.567 59.8274C243.567 59.1364 244.169 58.848 244.974 58.7337C245.446 58.669 246.391 58.5497 246.625 58.3608V59.2607C246.625 60.1108 245.938 60.8317 244.855 60.8317ZM252.029 51.8182H250.229V62H252.029V51.8182ZM258.747 58.7884C258.747 59.9517 257.916 60.5284 257.121 60.5284C256.256 60.5284 255.679 59.9169 255.679 58.9474V54.3636H253.879V59.2259C253.879 61.0604 254.923 62.0994 256.425 62.0994C257.568 62.0994 258.374 61.4979 258.722 60.6428H258.801V62H260.546V54.3636H258.747V58.7884ZM265.778 62.1491C267.557 62.1491 268.78 61.2791 269.099 59.9517L267.418 59.7628C267.175 60.4091 266.578 60.7472 265.802 60.7472C264.639 60.7472 263.868 59.9815 263.854 58.674H269.173V58.1222C269.173 55.4425 267.562 54.2642 265.683 54.2642C263.496 54.2642 262.069 55.87 262.069 58.2266C262.069 60.6229 263.476 62.1491 265.778 62.1491ZM263.859 57.4609C263.913 56.4865 264.634 55.6662 265.708 55.6662C266.742 55.6662 267.438 56.4219 267.448 57.4609H263.859ZM275.555 62L276.396 59.4893H280.224L281.069 62H283.038L279.448 51.8182H277.171L273.587 62H275.555ZM276.893 58.0078L278.27 53.9062H278.349L279.727 58.0078H276.893Z" fill="black" fill-opacity="0.56"/>
<path d="M335.047 51.8182H333.024L336.608 62H338.885L342.475 51.8182H340.447L337.802 59.8324H337.697L335.047 51.8182ZM345.127 62.1541C346.325 62.1541 347.041 61.5923 347.369 60.951H347.429V62H349.159V56.8892C349.159 54.8707 347.514 54.2642 346.057 54.2642C344.451 54.2642 343.218 54.9801 342.82 56.3722L344.501 56.6108C344.68 56.0888 345.187 55.6413 346.067 55.6413C346.902 55.6413 347.36 56.0689 347.36 56.8196V56.8494C347.36 57.3665 346.818 57.3913 345.47 57.5355C343.989 57.6946 342.572 58.1371 342.572 59.8572C342.572 61.3587 343.671 62.1541 345.127 62.1541ZM345.595 60.8317C344.844 60.8317 344.307 60.4886 344.307 59.8274C344.307 59.1364 344.909 58.848 345.714 58.7337C346.186 58.669 347.131 58.5497 347.364 58.3608V59.2607C347.364 60.1108 346.678 60.8317 345.595 60.8317ZM352.769 51.8182H350.969V62H352.769V51.8182ZM359.486 58.7884C359.486 59.9517 358.656 60.5284 357.861 60.5284C356.996 60.5284 356.419 59.9169 356.419 58.9474V54.3636H354.619V59.2259C354.619 61.0604 355.663 62.0994 357.165 62.0994C358.308 62.0994 359.114 61.4979 359.462 60.6428H359.541V62H361.286V54.3636H359.486V58.7884ZM366.518 62.1491C368.297 62.1491 369.52 61.2791 369.839 59.9517L368.158 59.7628C367.915 60.4091 367.318 60.7472 366.542 60.7472C365.379 60.7472 364.608 59.9815 364.594 58.674H369.913V58.1222C369.913 55.4425 368.302 54.2642 366.423 54.2642C364.236 54.2642 362.809 55.87 362.809 58.2266C362.809 60.6229 364.216 62.1491 366.518 62.1491ZM364.598 57.4609C364.653 56.4865 365.374 55.6662 366.448 55.6662C367.482 55.6662 368.178 56.4219 368.188 57.4609H364.598ZM374.988 62H379.109C381.441 62 382.584 60.8118 382.584 59.2259C382.584 57.6847 381.491 56.7798 380.407 56.7251V56.6257C381.401 56.392 382.187 55.696 382.187 54.4581C382.187 52.9418 381.093 51.8182 378.886 51.8182H374.988V62ZM376.832 60.4588V57.4759H378.866C380.004 57.4759 380.71 58.1719 380.71 59.0817C380.71 59.892 380.153 60.4588 378.816 60.4588H376.832ZM376.832 56.1484V53.3395H378.697C379.78 53.3395 380.342 53.9112 380.342 54.6967C380.342 55.5916 379.616 56.1484 378.657 56.1484H376.832Z" fill="black" fill-opacity="0.56"/>
</g>
<path d="M58.0445 330.308L0 360.611L24.9351 377.097L87.678 342.35" fill="url(#paint1_linear)"/>
<path d="M55.2019 196.189C49.833 200.631 45.7697 206.356 43.4192 212.789C39.31 223.737 49.6198 241.743 49.6198 241.743L65.6737 229.517" fill="#A4D0BA"/>
<path d="M53.4346 341.47L49.0161 339.141L50.1207 333.148C50.1207 333.148 56.6012 333.731 57.1757 335.988" fill="#D1E3EC"/>
<path d="M55.0839 341.37C56.0707 340.788 57.0869 340.277 58.0295 339.751C60.5481 338.431 64.186 337.053 65.7325 334.554C66.0516 334.056 66.2031 333.474 66.1662 332.89C66.1293 332.305 65.9058 331.746 65.5263 331.288C63.2286 328.633 58.2505 333.006 55.7024 330.053C55.2017 329.471 54.966 320.226 54.966 320.226L45.26 322.754C45.26 322.754 43.6104 341.328 43.7872 342.478C43.9639 343.628 47.3073 344.721 47.3073 344.721C48.2967 344.532 49.244 344.176 50.1057 343.671C51.1219 342.961 50.2088 334.242 51.4901 335.463C52.7715 336.684 53.3606 341.455 53.3606 341.455C53.9364 341.499 54.5157 341.47 55.0839 341.37V341.37Z" fill="#F49E5D"/>
<path d="M72.0218 350.444L67.6033 348.115L68.7079 342.123C68.7079 342.123 75.1884 342.705 75.7628 344.963" fill="#D1E3EC"/>
<path d="M73.6564 350.344C74.6432 349.762 75.6594 349.251 76.602 348.726C79.1206 347.405 82.7585 346.028 84.305 343.528C84.6241 343.03 84.7756 342.449 84.7387 341.864C84.7018 341.279 84.4783 340.72 84.0988 340.262C81.8011 337.607 76.823 341.981 74.275 339.027C73.7742 338.445 73.5385 329.201 73.5385 329.201L63.8325 331.728C63.8325 331.728 62.1829 350.302 62.3597 351.452C62.5364 352.602 65.8798 353.696 65.8798 353.696C66.8693 353.506 67.8165 353.151 68.6782 352.645C69.6944 351.935 68.7813 343.216 70.0626 344.437C71.344 345.658 71.9331 350.43 71.9331 350.43C72.5089 350.473 73.0882 350.445 73.6564 350.344V350.344Z" fill="#F49E5D"/>
<path d="M40.3851 290.065L37.572 326.985C37.572 326.985 42.1231 333.049 57.4111 329.669L57.5584 304.805" fill="#97040B"/>
<path d="M58.0888 297.378C57.7648 300.559 58.0888 335.591 58.0888 335.591C58.0888 335.591 62.3159 343.216 80.7263 335.591L80.4612 305.771" fill="#97040B"/>
<path d="M38.9563 308.653C40.2082 309.477 40.6501 298.784 41.902 299.523C46.6671 302.198 51.7253 304.355 56.9838 305.955H57.1017C57.2268 305.896 57.3631 305.862 57.5023 305.855C57.6415 305.849 57.7807 305.869 57.9115 305.915C58.0423 305.962 58.1619 306.033 58.2632 306.126C58.3645 306.218 58.4454 306.329 58.5009 306.452C61.7491 307.374 65.055 308.095 68.3983 308.611C72.699 309.278 76.2486 306.211 80.6523 305.984C80.6523 289.696 80.7407 243.305 73.5385 233.564L52.3444 226.577C52.2413 228.267 42.0345 239.698 42.2702 253.557C42.55 269.248 40.4292 284.073 40.0757 288.972C40.002 289.952 39.0005 307.759 38.9563 308.653Z" fill="#97040B"/>
<path d="M75.5712 214.777L73.6123 233.464C73.6123 233.464 57.7352 234.089 50.8865 229.531V213.684" fill="#A4D0BA"/>
<path d="M97.6194 203.346L95.9993 205.476C96.8632 203.744 97.6253 201.966 98.2822 200.151C98.7388 198.901 96.6768 198.419 96.2202 199.654L95.9845 200.293C96.1809 199.63 96.3675 198.968 96.5442 198.305C96.6126 198.041 96.5695 197.762 96.4245 197.529C96.2795 197.296 96.0444 197.128 95.771 197.063C95.4976 196.997 95.2082 197.038 94.9665 197.178C94.7248 197.318 94.5506 197.544 94.4823 197.808C94.0357 199.532 93.4998 201.233 92.8769 202.906C93.2251 201.417 93.476 199.909 93.628 198.39C93.7606 197.084 91.6397 197.141 91.5071 198.39C91.3302 200.116 91.0101 201.826 90.5498 203.502C90.5498 202.915 90.4958 202.333 90.3877 201.756C90.3726 201.609 90.3254 201.468 90.2492 201.341C90.173 201.213 90.0696 201.103 89.9459 201.017C89.9459 200.79 89.8134 200.563 89.7397 200.336C89.6666 200.098 89.5067 199.895 89.2897 199.763C89.0727 199.63 88.8133 199.579 88.5597 199.617C88.3061 199.655 88.0755 199.781 87.9106 199.97C87.7457 200.16 87.6577 200.401 87.663 200.648L87.5305 208.373C87.1509 209.17 86.6549 209.912 86.0576 210.574C87.0779 211.269 88.061 212.013 89.0033 212.803C89.8501 213.503 90.6564 214.248 91.4188 215.033C92.0963 214.219 92.7541 213.385 93.3924 212.533C93.4705 212.472 93.5398 212.4 93.5986 212.32C95.5034 209.613 97.4672 206.948 99.4899 204.326C100.271 203.303 98.4147 202.309 97.6194 203.346Z" fill="#FFB5A9"/>
<path d="M65.4968 197.737C65.4968 197.737 72.9936 199.682 76.0276 204.368C77.9299 207.57 79.6078 210.891 81.05 214.308L86.5879 206.016C86.5879 206.016 93.304 208.004 95.9846 211.199C95.9846 211.199 88.0018 228.011 81.05 229.446C74.0982 230.88 66.734 219.506 66.734 219.506C66.734 219.506 65.2612 224.234 65.5116 219.193" fill="#A4D0BA"/>
<path d="M46.9246 218.966C51.1663 222.573 61.2995 222.402 66.7342 219.548C67.2939 217.688 68.7668 194.343 68.7668 192.355C68.8551 189.515 68.5164 186.604 68.3102 183.736C68.2812 183.614 68.2812 183.488 68.3102 183.367C67.3087 180.129 65.2614 177.388 61.2111 177.048C50.7392 176.181 50.1501 187.371 50.2237 191.915C50.3121 194.542 47.4401 217.262 46.9246 218.966Z" fill="#171725"/>
<path d="M58.3241 248.63C58.3241 248.442 58.2465 248.261 58.1084 248.128C57.9703 247.995 57.783 247.92 57.5877 247.92C57.3924 247.92 57.205 247.995 57.0669 248.128C56.9288 248.261 56.8512 248.442 56.8512 248.63C57.1556 276.254 56.8758 303.877 56.0117 331.501C56.0117 332.41 57.4846 332.41 57.4846 331.501C58.3584 303.887 58.6383 276.263 58.3241 248.63Z" fill="#D1E3EC"/>
<defs>
<filter id="filter0_ddd" x="20" y="-2" width="429" height="324" filterUnits="userSpaceOnUse" color-interpolation-filters="sRGB">
<feFlood flood-opacity="0" result="BackgroundImageFix"/>
<feColorMatrix in="SourceAlpha" type="matrix" values="0 0 0 0 0 0 0 0 0 0 0 0 0 0 0 0 0 0 127 0"/>
<feOffset dy="1"/>
<feGaussianBlur stdDeviation="1.5"/>
<feColorMatrix type="matrix" values="0 0 0 0 0 0 0 0 0 0 0 0 0 0 0 0 0 0 0.2 0"/>
<feBlend mode="normal" in2="BackgroundImageFix" result="effect1_dropShadow"/>
<feColorMatrix in="SourceAlpha" type="matrix" values="0 0 0 0 0 0 0 0 0 0 0 0 0 0 0 0 0 0 127 0"/>
<feOffset dy="2"/>
<feGaussianBlur stdDeviation="1"/>
<feColorMatrix type="matrix" values="0 0 0 0 0 0 0 0 0 0 0 0 0 0 0 0 0 0 0.12 0"/>
<feBlend mode="normal" in2="effect1_dropShadow" result="effect2_dropShadow"/>
<feColorMatrix in="SourceAlpha" type="matrix" values="0 0 0 0 0 0 0 0 0 0 0 0 0 0 0 0 0 0 127 0"/>
<feOffset/>
<feGaussianBlur stdDeviation="1"/>
<feColorMatrix type="matrix" values="0 0 0 0 0 0 0 0 0 0 0 0 0 0 0 0 0 0 0.14 0"/>
<feBlend mode="normal" in2="effect2_dropShadow" result="effect3_dropShadow"/>
<feBlend mode="normal" in="SourceGraphic" in2="effect3_dropShadow" result="shape"/>
</filter>
<linearGradient id="paint0_linear" x1="227" y1="0" x2="227" y2="318" gradientUnits="userSpaceOnUse">
<stop offset="0.494792"/>
<stop offset="1" stop-opacity="0"/>
</linearGradient>
<linearGradient id="paint1_linear" x1="25.9072" y1="368.776" x2="94.3617" y2="297.76" gradientUnits="userSpaceOnUse">
<stop stop-opacity="0"/>
<stop offset="1" stop-color="#8DB9CF"/>
</linearGradient>
</defs>
</svg>
