<svg width="635" height="347" viewBox="0 0 635 347" fill="none" xmlns="http://www.w3.org/2000/svg">
<g clip-path="url(#clip0)">
<mask id="mask0" mask-type="alpha" maskUnits="userSpaceOnUse" x="253" y="0" width="332" height="306">
<rect x="253" width="332" height="306" fill="url(#paint0_linear)"/>
</mask>
<g mask="url(#mask0)">
<g filter="url(#filter0_ddd)">
<rect x="264" y="17" width="298" height="247" rx="4" fill="white"/>
</g>
<rect x="274.5" y="53.5" width="277" height="192" rx="3.5" fill="white" stroke="#DEDEDE"/>
<path d="M287.12 188.5H500.465C501.294 188.5 501.965 189.172 501.965 190V216C501.965 216.828 501.294 217.5 500.465 217.5H287.12C286.292 217.5 285.62 216.828 285.62 216V190C285.62 189.172 286.292 188.5 287.12 188.5Z" fill="white" stroke="#BDBDBD"/>
<path d="M302.353 208H303.586V204.281H305.813C308.185 204.281 309.254 202.839 309.254 201.04C309.254 199.24 308.185 197.818 305.793 197.818H302.353V208ZM303.586 203.188V198.912H305.754C307.409 198.912 308.04 199.817 308.04 201.04C308.04 202.263 307.409 203.188 305.773 203.188H303.586ZM311.081 208H312.254V203.168C312.254 202.134 313.069 201.378 314.183 201.378C314.496 201.378 314.819 201.438 314.899 201.457V200.264C314.765 200.254 314.456 200.244 314.282 200.244C313.368 200.244 312.572 200.761 312.294 201.517H312.214V200.364H311.081V208ZM319.159 208.159C321.228 208.159 322.62 206.588 322.62 204.222C322.62 201.835 321.228 200.264 319.159 200.264C317.091 200.264 315.699 201.835 315.699 204.222C315.699 206.588 317.091 208.159 319.159 208.159ZM319.159 207.105C317.588 207.105 316.872 205.753 316.872 204.222C316.872 202.69 317.588 201.318 319.159 201.318C320.73 201.318 321.446 202.69 321.446 204.222C321.446 205.753 320.73 207.105 319.159 207.105ZM324.411 210.864H325.584V206.827H325.683C325.942 207.244 326.439 208.159 327.911 208.159C329.82 208.159 331.152 206.628 331.152 204.202C331.152 201.795 329.82 200.264 327.891 200.264C326.399 200.264 325.942 201.179 325.683 201.577H325.544V200.364H324.411V210.864ZM325.564 204.182C325.564 202.472 326.32 201.318 327.752 201.318C329.243 201.318 329.979 202.571 329.979 204.182C329.979 205.812 329.223 207.105 327.752 207.105C326.34 207.105 325.564 205.912 325.564 204.182ZM336.144 208.159C337.695 208.159 338.828 207.384 339.186 206.23L338.053 205.912C337.754 206.707 337.063 207.105 336.144 207.105C334.766 207.105 333.817 206.215 333.762 204.58H339.306V204.082C339.306 201.239 337.615 200.264 336.024 200.264C333.956 200.264 332.584 201.895 332.584 204.241C332.584 206.588 333.936 208.159 336.144 208.159ZM333.762 203.565C333.842 202.377 334.682 201.318 336.024 201.318C337.297 201.318 338.112 202.273 338.112 203.565H333.762ZM341.09 208H342.264V203.168C342.264 202.134 343.079 201.378 344.193 201.378C344.506 201.378 344.829 201.438 344.909 201.457V200.264C344.774 200.254 344.466 200.244 344.292 200.244C343.377 200.244 342.582 200.761 342.303 201.517H342.224V200.364H341.09V208ZM350.099 200.364H348.468V198.534H347.295V200.364H346.141V201.358H347.295V206.131C347.295 207.463 348.369 208.099 349.363 208.099C349.801 208.099 350.079 208.02 350.238 207.96L349.999 206.906C349.9 206.926 349.741 206.966 349.482 206.966C348.965 206.966 348.468 206.807 348.468 205.812V201.358H350.099V200.364ZM352.619 210.844C353.678 210.844 354.429 210.282 354.867 209.114L358.118 200.384L356.835 200.364L354.727 206.449H354.648L352.54 200.364H351.267L354.091 208.04L353.872 208.636C353.455 209.78 352.918 209.889 352.063 209.67L351.764 210.705C351.884 210.764 352.222 210.844 352.619 210.844Z" fill="#8F8F8F"/>
<g opacity="0.5">
<path d="M526 192C520.48 192 516 196.48 516 202C516 207.52 520.48 212 526 212C531.52 212 536 207.52 536 202C536 196.48 531.52 192 526 192ZM531 203H527V207H525V203H521V201H525V197H527V201H531V203Z" fill="black"/>
</g>
<path d="M294.944 116.909C294.944 113.688 293.055 111.679 290.45 111.679C287.844 111.679 285.955 113.688 285.955 116.909C285.955 120.131 287.844 122.139 290.45 122.139C293.055 122.139 294.944 120.131 294.944 116.909ZM293.751 116.909C293.751 119.554 292.299 120.986 290.45 120.986C288.6 120.986 287.148 119.554 287.148 116.909C287.148 114.264 288.6 112.832 290.45 112.832C292.299 112.832 293.751 114.264 293.751 116.909ZM299.96 122.159C301.651 122.159 302.764 121.125 302.963 119.773H301.79C301.571 120.608 300.875 121.105 299.96 121.105C298.568 121.105 297.673 119.952 297.673 118.182C297.673 116.452 298.588 115.318 299.96 115.318C300.994 115.318 301.611 115.955 301.79 116.651H302.963C302.764 115.219 301.551 114.264 299.94 114.264C297.872 114.264 296.5 115.895 296.5 118.222C296.5 120.509 297.812 122.159 299.96 122.159ZM307.781 122.159C309.471 122.159 310.584 121.125 310.783 119.773H309.61C309.391 120.608 308.695 121.105 307.781 121.105C306.388 121.105 305.494 119.952 305.494 118.182C305.494 116.452 306.408 115.318 307.781 115.318C308.815 115.318 309.431 115.955 309.61 116.651H310.783C310.584 115.219 309.371 114.264 307.761 114.264C305.692 114.264 304.32 115.895 304.32 118.222C304.32 120.509 305.633 122.159 307.781 122.159ZM317.311 118.878C317.311 120.31 316.217 120.966 315.342 120.966C314.368 120.966 313.672 120.25 313.672 119.136V114.364H312.499V119.216C312.499 121.165 313.533 122.099 314.964 122.099C316.118 122.099 316.874 121.483 317.232 120.707H317.311V122H318.484V114.364H317.311V118.878ZM320.633 124.864H321.807V120.827H321.906C322.165 121.244 322.662 122.159 324.133 122.159C326.042 122.159 327.375 120.628 327.375 118.202C327.375 115.795 326.042 114.264 324.113 114.264C322.622 114.264 322.165 115.179 321.906 115.577H321.767V114.364H320.633V124.864ZM321.787 118.182C321.787 116.472 322.542 115.318 323.974 115.318C325.466 115.318 326.201 116.571 326.201 118.182C326.201 119.812 325.446 121.105 323.974 121.105C322.562 121.105 321.787 119.912 321.787 118.182ZM331.412 122.179C332.744 122.179 333.44 121.463 333.679 120.966H333.738V122H334.912V116.969C334.912 114.543 333.062 114.264 332.088 114.264C330.934 114.264 329.622 114.662 329.025 116.054L330.139 116.452C330.398 115.895 331.009 115.298 332.128 115.298C333.206 115.298 333.738 115.87 333.738 116.849V116.889C333.738 117.456 333.162 117.406 331.77 117.585C330.353 117.769 328.807 118.082 328.807 119.832C328.807 121.324 329.96 122.179 331.412 122.179ZM331.591 121.125C330.656 121.125 329.98 120.707 329.98 119.892C329.98 118.997 330.795 118.719 331.71 118.599C332.207 118.54 333.54 118.401 333.738 118.162V119.236C333.738 120.19 332.983 121.125 331.591 121.125ZM340.374 114.364H338.744V112.534H337.57V114.364H336.417V115.358H337.57V120.131C337.57 121.463 338.644 122.099 339.638 122.099C340.076 122.099 340.354 122.02 340.513 121.96L340.275 120.906C340.175 120.926 340.016 120.966 339.758 120.966C339.241 120.966 338.744 120.807 338.744 119.812V115.358H340.374V114.364ZM342.139 122H343.312V114.364H342.139V122ZM342.736 113.091C343.193 113.091 343.571 112.733 343.571 112.295C343.571 111.858 343.193 111.5 342.736 111.5C342.278 111.5 341.901 111.858 341.901 112.295C341.901 112.733 342.278 113.091 342.736 113.091ZM348.564 122.159C350.632 122.159 352.024 120.588 352.024 118.222C352.024 115.835 350.632 114.264 348.564 114.264C346.496 114.264 345.103 115.835 345.103 118.222C345.103 120.588 346.496 122.159 348.564 122.159ZM348.564 121.105C346.993 121.105 346.277 119.753 346.277 118.222C346.277 116.69 346.993 115.318 348.564 115.318C350.135 115.318 350.851 116.69 350.851 118.222C350.851 119.753 350.135 121.105 348.564 121.105ZM354.988 117.406C354.988 116.074 355.814 115.318 356.937 115.318C358.026 115.318 358.687 116.029 358.687 117.227V122H359.86V117.148C359.86 115.199 358.821 114.264 357.275 114.264C356.122 114.264 355.406 114.781 355.048 115.557H354.948V114.364H353.815V122H354.988V117.406Z" fill="black" fill-opacity="0.56"/>
<g opacity="0.5">
<path d="M526 105C520.48 105 516 109.48 516 115C516 120.52 520.48 125 526 125C531.52 125 536 120.52 536 115C536 109.48 531.52 105 526 105ZM531 116H521V114H531V116Z" fill="black"/>
</g>
<path d="M294.546 158C294.168 155.912 292.498 154.679 290.45 154.679C287.844 154.679 285.955 156.688 285.955 159.909C285.955 163.131 287.844 165.139 290.45 165.139C292.498 165.139 294.168 163.906 294.546 161.818H293.313C293.015 163.23 291.802 163.986 290.45 163.986C288.6 163.986 287.148 162.554 287.148 159.909C287.148 157.264 288.6 155.832 290.45 155.832C291.802 155.832 293.015 156.588 293.313 158H294.546ZM299.482 165.159C301.55 165.159 302.942 163.588 302.942 161.222C302.942 158.835 301.55 157.264 299.482 157.264C297.413 157.264 296.021 158.835 296.021 161.222C296.021 163.588 297.413 165.159 299.482 165.159ZM299.482 164.105C297.911 164.105 297.195 162.753 297.195 161.222C297.195 159.69 297.911 158.318 299.482 158.318C301.053 158.318 301.769 159.69 301.769 161.222C301.769 162.753 301.053 164.105 299.482 164.105ZM309.545 161.878C309.545 163.31 308.452 163.966 307.577 163.966C306.602 163.966 305.906 163.25 305.906 162.136V157.364H304.733V162.216C304.733 164.165 305.767 165.099 307.199 165.099C308.352 165.099 309.108 164.483 309.466 163.707H309.545V165H310.719V157.364H309.545V161.878ZM314.041 160.406C314.041 159.074 314.866 158.318 315.99 158.318C317.079 158.318 317.74 159.029 317.74 160.227V165H318.913V160.148C318.913 158.199 317.874 157.264 316.328 157.264C315.175 157.264 314.459 157.781 314.101 158.557H314.001V157.364H312.868V165H314.041V160.406ZM324.378 157.364H322.747V155.534H321.574V157.364H320.421V158.358H321.574V163.131C321.574 164.463 322.648 165.099 323.642 165.099C324.08 165.099 324.358 165.02 324.517 164.96L324.279 163.906C324.179 163.926 324.02 163.966 323.762 163.966C323.245 163.966 322.747 163.807 322.747 162.812V158.358H324.378V157.364ZM326.143 165H327.316V160.168C327.316 159.134 328.132 158.378 329.245 158.378C329.559 158.378 329.882 158.438 329.961 158.457V157.264C329.827 157.254 329.519 157.244 329.345 157.244C328.43 157.244 327.635 157.761 327.356 158.517H327.277V157.364H326.143V165ZM332.34 167.844C333.399 167.844 334.15 167.282 334.587 166.114L337.839 157.384L336.556 157.364L334.448 163.449H334.369L332.261 157.364H330.988L333.812 165.04L333.593 165.636C333.175 166.78 332.638 166.889 331.783 166.67L331.485 167.705C331.604 167.764 331.942 167.844 332.34 167.844ZM346.431 165.159C348.499 165.159 349.891 163.588 349.891 161.222C349.891 158.835 348.499 157.264 346.431 157.264C344.363 157.264 342.971 158.835 342.971 161.222C342.971 163.588 344.363 165.159 346.431 165.159ZM346.431 164.105C344.86 164.105 344.144 162.753 344.144 161.222C344.144 159.69 344.86 158.318 346.431 158.318C348.002 158.318 348.718 159.69 348.718 161.222C348.718 162.753 348.002 164.105 346.431 164.105ZM355.083 157.364H353.372V156.588C353.372 155.832 353.691 155.435 354.466 155.435C354.804 155.435 355.003 155.514 355.122 155.554L355.461 154.54C355.282 154.46 354.924 154.341 354.347 154.341C353.253 154.341 352.199 154.997 352.199 156.31V157.364H350.966V158.358H352.199V165H353.372V158.358H355.083V157.364ZM369.017 158C368.639 155.912 366.969 154.679 364.92 154.679C362.315 154.679 360.426 156.688 360.426 159.909C360.426 163.131 362.315 165.139 364.92 165.139C366.969 165.139 368.639 163.906 369.017 161.818H367.784C367.486 163.23 366.273 163.986 364.92 163.986C363.071 163.986 361.619 162.554 361.619 159.909C361.619 157.264 363.071 155.832 364.92 155.832C366.273 155.832 367.486 156.588 367.784 158H369.017ZM370.85 165H372.023V157.364H370.85V165ZM371.447 156.091C371.904 156.091 372.282 155.733 372.282 155.295C372.282 154.858 371.904 154.5 371.447 154.5C370.989 154.5 370.611 154.858 370.611 155.295C370.611 155.733 370.989 156.091 371.447 156.091ZM377.493 157.364H375.863V155.534H374.689V157.364H373.536V158.358H374.689V163.131C374.689 164.463 375.763 165.099 376.758 165.099C377.195 165.099 377.474 165.02 377.633 164.96L377.394 163.906C377.295 163.926 377.135 163.966 376.877 163.966C376.36 163.966 375.863 163.807 375.863 162.812V158.358H377.493V157.364ZM379.258 165H380.432V157.364H379.258V165ZM379.855 156.091C380.312 156.091 380.69 155.733 380.69 155.295C380.69 154.858 380.312 154.5 379.855 154.5C379.398 154.5 379.02 154.858 379.02 155.295C379.02 155.733 379.398 156.091 379.855 156.091ZM382.362 165H388.348V163.906H383.993V163.827L388.208 158.298V157.364H382.501V158.457H386.697V158.537L382.362 164.105V165ZM393.138 165.159C394.689 165.159 395.822 164.384 396.18 163.23L395.047 162.912C394.749 163.707 394.057 164.105 393.138 164.105C391.761 164.105 390.811 163.215 390.756 161.58H396.3V161.082C396.3 158.239 394.609 157.264 393.018 157.264C390.95 157.264 389.578 158.895 389.578 161.241C389.578 163.588 390.93 165.159 393.138 165.159ZM390.756 160.565C390.836 159.377 391.676 158.318 393.018 158.318C394.291 158.318 395.107 159.273 395.107 160.565H390.756ZM399.258 160.406C399.258 159.074 400.083 158.318 401.207 158.318C402.295 158.318 402.957 159.029 402.957 160.227V165H404.13V160.148C404.13 158.199 403.091 157.264 401.545 157.264C400.391 157.264 399.675 157.781 399.317 158.557H399.218V157.364H398.084V165H399.258V160.406ZM411.683 159.074C411.315 157.99 410.49 157.264 408.978 157.264C407.368 157.264 406.175 158.179 406.175 159.472C406.175 160.526 406.801 161.232 408.203 161.56L409.476 161.858C410.246 162.037 410.609 162.405 410.609 162.932C410.609 163.588 409.913 164.125 408.819 164.125C407.86 164.125 407.258 163.712 407.05 162.892L405.936 163.17C406.209 164.468 407.278 165.159 408.839 165.159C410.614 165.159 411.822 164.19 411.822 162.872C411.822 161.808 411.156 161.137 409.794 160.804L408.66 160.526C407.755 160.302 407.348 159.999 407.348 159.412C407.348 158.756 408.044 158.278 408.978 158.278C410.003 158.278 410.425 158.845 410.629 159.372L411.683 159.074ZM414.762 160.406C414.762 159.074 415.612 158.318 416.77 158.318C417.874 158.318 418.54 159.014 418.54 160.227V165H419.713V160.148C419.713 158.184 418.669 157.264 417.108 157.264C415.905 157.264 415.219 157.766 414.861 158.557H414.762V154.818H413.588V165H414.762V160.406ZM421.86 165H423.033V157.364H421.86V165ZM422.456 156.091C422.914 156.091 423.292 155.733 423.292 155.295C423.292 154.858 422.914 154.5 422.456 154.5C421.999 154.5 421.621 154.858 421.621 155.295C421.621 155.733 421.999 156.091 422.456 156.091ZM425.182 167.864H426.355V163.827H426.455C426.713 164.244 427.211 165.159 428.682 165.159C430.591 165.159 431.924 163.628 431.924 161.202C431.924 158.795 430.591 157.264 428.662 157.264C427.171 157.264 426.713 158.179 426.455 158.577H426.316V157.364H425.182V167.864ZM426.336 161.182C426.336 159.472 427.091 158.318 428.523 158.318C430.015 158.318 430.75 159.571 430.75 161.182C430.75 162.812 429.995 164.105 428.523 164.105C427.111 164.105 426.336 162.912 426.336 161.182Z" fill="black" fill-opacity="0.56"/>
<g opacity="0.5">
<path d="M526 148C520.48 148 516 152.48 516 158C516 163.52 520.48 168 526 168C531.52 168 536 163.52 536 158C536 152.48 531.52 148 526 148ZM531 159H521V157H531V159Z" fill="black"/>
</g>
<path d="M273.348 94H551.574" stroke="#BEBEBE"/>
<path d="M286.733 79H288.577V75.5597H290.526C292.878 75.5597 294.14 74.1477 294.14 72.1889C294.14 70.245 292.893 68.8182 290.551 68.8182H286.733V79ZM288.577 74.0433V70.3594H290.268C291.65 70.3594 292.261 71.1051 292.261 72.1889C292.261 73.2727 291.65 74.0433 290.278 74.0433H288.577ZM295.663 79H297.463V74.5107C297.463 73.5412 298.194 72.8551 299.183 72.8551C299.486 72.8551 299.864 72.9098 300.018 72.9595V71.304C299.854 71.2741 299.571 71.2543 299.372 71.2543C298.497 71.2543 297.766 71.7514 297.488 72.6364H297.408V71.3636H295.663V79ZM304.23 79.1491C306.468 79.1491 307.889 77.5732 307.889 75.2116C307.889 72.8452 306.468 71.2642 304.23 71.2642C301.993 71.2642 300.571 72.8452 300.571 75.2116C300.571 77.5732 301.993 79.1491 304.23 79.1491ZM304.24 77.7074C303.002 77.7074 302.396 76.6037 302.396 75.2067C302.396 73.8097 303.002 72.6911 304.24 72.6911C305.458 72.6911 306.065 73.8097 306.065 75.2067C306.065 76.6037 305.458 77.7074 304.24 77.7074ZM309.417 81.8636H311.217V77.7969H311.291C311.575 78.3537 312.166 79.1342 313.479 79.1342C315.278 79.1342 316.626 77.7074 316.626 75.1918C316.626 72.6463 315.239 71.2642 313.474 71.2642C312.126 71.2642 311.565 72.0746 311.291 72.6264H311.187V71.3636H309.417V81.8636ZM311.182 75.1818C311.182 73.7003 311.818 72.7408 312.977 72.7408C314.175 72.7408 314.791 73.7599 314.791 75.1818C314.791 76.6136 314.165 77.6577 312.977 77.6577C311.828 77.6577 311.182 76.6634 311.182 75.1818ZM321.548 79.1491C323.327 79.1491 324.55 78.2791 324.869 76.9517L323.188 76.7628C322.945 77.4091 322.348 77.7472 321.572 77.7472C320.409 77.7472 319.638 76.9815 319.624 75.674H324.943V75.1222C324.943 72.4425 323.332 71.2642 321.453 71.2642C319.266 71.2642 317.839 72.87 317.839 75.2266C317.839 77.6229 319.246 79.1491 321.548 79.1491ZM319.629 74.4609C319.683 73.4865 320.404 72.6662 321.478 72.6662C322.512 72.6662 323.208 73.4219 323.218 74.4609H319.629ZM326.466 79H328.265V74.5107C328.265 73.5412 328.996 72.8551 329.986 72.8551C330.289 72.8551 330.667 72.9098 330.821 72.9595V71.304C330.657 71.2741 330.373 71.2543 330.175 71.2543C329.3 71.2543 328.569 71.7514 328.29 72.6364H328.211V71.3636H326.466V79ZM336.24 71.3636H334.733V69.5341H332.934V71.3636H331.85V72.7557H332.934V77.0014C332.924 78.4382 333.968 79.1442 335.32 79.1044C335.832 79.0895 336.185 78.9901 336.379 78.9254L336.076 77.5185C335.976 77.5433 335.773 77.5881 335.549 77.5881C335.096 77.5881 334.733 77.429 334.733 76.7031V72.7557H336.24V71.3636ZM338.864 81.8487C340.266 81.8487 341.076 81.1229 341.509 79.9247L344.576 71.3736L342.652 71.3636L340.887 77.1307H340.808L339.048 71.3636H337.138L339.908 79.1591L339.754 79.5717C339.411 80.4169 338.893 80.4815 338.108 80.2578L337.69 81.6548C337.934 81.7592 338.371 81.8487 338.864 81.8487Z" fill="black" fill-opacity="0.56"/>
<path d="M278.415 42C281.517 42 283.312 40.076 283.312 36.8942C283.312 33.7273 281.517 31.8182 278.519 31.8182H275.119V42H278.415ZM276.655 40.6577V33.1605H278.425C280.652 33.1605 281.8 34.4929 281.8 36.8942C281.8 39.3054 280.652 40.6577 278.33 40.6577H276.655ZM286.898 31.8182H285.362V42H286.898V31.8182ZM289.276 31.8182V42H290.737V34.6271H290.832L293.835 41.9851H295.048L298.05 34.6321H298.145V42H299.607V31.8182H297.742L294.501 39.733H294.381L291.14 31.8182H289.276ZM301.98 42H308.423V40.6776H303.516V37.5604H308.03V36.2429H303.516V33.1406H308.364V31.8182H301.98V42ZM318.774 31.8182H317.252V39.2955H317.158L311.977 31.8182H310.556V42H312.092V34.5327H312.186L317.362 42H318.774V31.8182ZM326.708 34.4929H328.189C328.145 32.8622 326.703 31.679 324.635 31.679C322.591 31.679 321.025 32.8473 321.025 34.6023C321.025 36.0192 322.039 36.8494 323.675 37.2919L324.878 37.62C325.967 37.9084 326.807 38.2663 326.807 39.1712C326.807 40.1655 325.858 40.8217 324.55 40.8217C323.367 40.8217 322.383 40.2947 322.293 39.1861H320.752C320.851 41.0305 322.278 42.169 324.56 42.169C326.951 42.169 328.329 40.9112 328.329 39.1861C328.329 37.3516 326.693 36.6406 325.4 36.3224L324.406 36.0639C323.611 35.8601 322.552 35.4872 322.557 34.5128C322.557 33.6477 323.347 33.0064 324.6 33.0064C325.768 33.0064 326.598 33.5533 326.708 34.4929ZM331.841 31.8182H330.304V42H331.841V31.8182ZM343.062 36.9091C343.062 33.6527 341.113 31.679 338.478 31.679C335.834 31.679 333.89 33.6527 333.89 36.9091C333.89 40.1605 335.834 42.1392 338.478 42.1392C341.113 42.1392 343.062 40.1655 343.062 36.9091ZM341.541 36.9091C341.541 39.3899 340.228 40.7372 338.478 40.7372C336.723 40.7372 335.416 39.3899 335.416 36.9091C335.416 34.4283 336.723 33.081 338.478 33.081C340.228 33.081 341.541 34.4283 341.541 36.9091ZM353.336 31.8182H351.814V39.2955H351.72L346.539 31.8182H345.118V42H346.654V34.5327H346.748L351.924 42H353.336V31.8182ZM361.27 34.4929H362.751C362.707 32.8622 361.265 31.679 359.197 31.679C357.153 31.679 355.587 32.8473 355.587 34.6023C355.587 36.0192 356.601 36.8494 358.237 37.2919L359.44 37.62C360.529 37.9084 361.369 38.2663 361.369 39.1712C361.369 40.1655 360.42 40.8217 359.112 40.8217C357.929 40.8217 356.944 40.2947 356.855 39.1861H355.314C355.413 41.0305 356.84 42.169 359.122 42.169C361.513 42.169 362.891 40.9112 362.891 39.1861C362.891 37.3516 361.255 36.6406 359.962 36.3224L358.968 36.0639C358.172 35.8601 357.114 35.4872 357.118 34.5128C357.118 33.6477 357.909 33.0064 359.162 33.0064C360.33 33.0064 361.16 33.5533 361.27 34.4929Z" fill="#4F4F4F"/>
</g>
<path d="M388 27.6667C383.4 27.6667 379.667 31.4001 379.667 36.0001C379.667 40.6001 383.4 44.3334 388 44.3334C392.6 44.3334 396.333 40.6001 396.333 36.0001C396.333 31.4001 392.6 27.6667 388 27.6667ZM388.833 41.8334H387.167V40.1667H388.833V41.8334ZM390.558 35.3751L389.808 36.1417C389.208 36.7501 388.833 37.2501 388.833 38.5001H387.167V38.0834C387.167 37.1667 387.542 36.3334 388.142 35.7251L389.175 34.6751C389.483 34.3751 389.667 33.9584 389.667 33.5001C389.667 32.5834 388.917 31.8334 388 31.8334C387.083 31.8334 386.333 32.5834 386.333 33.5001H384.667C384.667 31.6584 386.158 30.1667 388 30.1667C389.842 30.1667 391.333 31.6584 391.333 33.5001C391.333 34.2334 391.033 34.9001 390.558 35.3751Z" fill="#828282"/>
<path opacity="0.32" d="M513.802 308.566L574.393 346.883L634.97 314.819L565.637 280.446" fill="url(#paint1_linear)"/>
<path d="M523.355 301.981L524.562 301.065L523.488 286.686L517.159 286.912C517.159 286.912 517.478 293.059 516.124 294.559C514.771 296.059 510.977 295.329 510.618 295.475C510.26 295.621 507.726 295.077 506.638 296.312C505.55 297.546 510.751 300.494 513.391 300.919C515.198 301.151 517.031 301.088 518.818 300.733C518.818 300.733 519.123 297.015 520.051 297.307C520.98 297.6 521.378 301.49 521.378 301.49L523.355 301.981Z" fill="#9C4100"/>
<path d="M525.955 256.694C526.473 271.736 527.03 291.346 527.03 291.346C527.03 291.346 523.594 296.019 514.28 294.001C513.285 293.789 511.056 269.811 509.968 257.331C515.181 255.915 520.646 255.697 525.955 256.694V256.694Z" fill="#653200"/>
<path d="M506.864 314.394L508.071 313.478L506.997 299.1L500.668 299.325C500.668 299.325 500.987 305.472 499.633 306.973C498.28 308.473 494.486 307.743 494.128 307.889C493.769 308.035 491.235 307.491 490.147 308.725C489.06 309.96 494.26 312.907 496.9 313.332C498.716 313.54 500.553 313.45 502.34 313.067C502.34 313.067 502.645 309.349 503.574 309.641C504.502 309.933 504.9 313.824 504.9 313.824L506.864 314.394Z" fill="#9C4100"/>
<path d="M504.144 259.429C508.301 257.546 512.765 256.435 517.318 256.149C516.549 261.779 515.832 265.682 515.713 265.974C515.408 266.691 509.624 302.432 509.624 302.432C502.791 305.194 494.711 302.884 494.711 302.884C494.711 302.884 497.497 275.002 497.723 270.342C497.723 269.838 497.75 269.338 497.803 268.842C497.901 266.843 498.544 264.91 499.661 263.25C500.779 261.591 502.33 260.269 504.144 259.429Z" fill="#653200"/>
<path d="M546.121 267.74C546.121 267.74 534.539 257.251 525.915 256.694C517.292 256.136 505.006 265.085 506.015 270.289C507.023 275.494 523.487 286.673 523.487 286.673" fill="#653200"/>
<path d="M522.479 249.02L531.766 242.501C532.135 242.237 532.401 241.854 532.52 241.415C532.638 240.977 532.602 240.512 532.416 240.098L525.875 225.493C525.761 225.238 525.593 225.01 525.383 224.825C525.173 224.64 524.926 224.502 524.658 224.421C524.39 224.339 524.108 224.315 523.831 224.351C523.554 224.388 523.287 224.483 523.049 224.63L512.741 231.056C512.321 231.318 512.015 231.729 511.885 232.206C511.755 232.684 511.809 233.193 512.038 233.632L519.653 248.236C519.775 248.485 519.949 248.705 520.162 248.882C520.375 249.059 520.624 249.188 520.891 249.262C521.157 249.336 521.437 249.353 521.711 249.311C521.984 249.269 522.246 249.17 522.479 249.02V249.02Z" fill="#1784AA"/>
<path d="M523.301 248.515L532.588 241.996C532.957 241.733 533.224 241.349 533.342 240.911C533.461 240.473 533.424 240.007 533.238 239.593L526.698 224.989C526.583 224.734 526.415 224.506 526.205 224.321C525.995 224.136 525.748 223.998 525.48 223.916C525.213 223.834 524.931 223.811 524.653 223.847C524.376 223.883 524.11 223.978 523.872 224.126L513.563 230.552C513.144 230.814 512.838 231.224 512.708 231.702C512.577 232.179 512.632 232.689 512.86 233.128L520.476 247.732C520.598 247.981 520.771 248.201 520.985 248.377C521.198 248.554 521.446 248.684 521.713 248.758C521.98 248.832 522.259 248.848 522.533 248.807C522.807 248.765 523.069 248.666 523.301 248.515V248.515Z" fill="#C4C4C4"/>
<path d="M521.763 247.626L532.151 240.284L525.345 225.135L513.802 232.331L521.763 247.626Z" fill="#E4F5FD"/>
<path d="M526.565 231.561C530.001 233.446 535.375 235.544 538.983 238.08C539.567 238.478 540.429 239.859 539.859 239.66C540.098 239.939 537.736 240.868 537.962 241.173C538.041 241.28 536.436 240.39 536.343 240.43C534.984 241.153 533.403 241.342 531.912 240.961L531.315 240.523L531.169 240.43C531.142 240.387 531.106 240.351 531.063 240.324H530.97C530.953 240.239 530.906 240.164 530.837 240.111C530.041 239.487 528.303 239.155 528.118 238.106C528.149 237.827 528.235 237.556 528.37 237.31C528.421 237.254 528.449 237.18 528.449 237.104C528.449 237.028 528.421 236.954 528.37 236.898C528.305 236.584 528.303 236.261 528.365 235.946C528.426 235.632 528.55 235.332 528.728 235.066V235.066L528.529 234.827C527.592 234.168 526.705 233.44 525.875 232.65C525.781 232.563 525.719 232.445 525.703 232.318V232.318C525.699 232.282 525.699 232.247 525.703 232.211C525.697 232.105 525.717 231.998 525.762 231.901C525.807 231.805 525.875 231.72 525.961 231.656C526.046 231.592 526.146 231.549 526.251 231.533C526.357 231.516 526.464 231.526 526.565 231.561V231.561Z" fill="#E85454"/>
<path d="M528.316 235.278C528.569 234.615 528.953 234.588 529.55 234.84C530.751 235.38 531.897 236.034 532.973 236.792C533.159 236.911 532.973 237.204 532.787 237.084C532.111 236.619 529.219 234.429 528.635 235.424C528.051 236.42 529.962 237.018 530.532 237.296L532.628 238.412C532.827 238.518 532.628 238.81 532.442 238.704L531.116 238.013C531.127 238.048 531.127 238.085 531.116 238.12C531.002 238.27 530.868 238.404 530.718 238.518C530.834 238.692 530.908 238.89 530.934 239.098C530.959 239.306 530.935 239.516 530.864 239.713V239.792C531.44 240.399 532.203 240.795 533.031 240.915C533.859 241.036 534.703 240.874 535.428 240.456C535.6 240.324 535.839 240.576 535.666 240.709C534.86 241.211 533.9 241.409 532.961 241.265C532.022 241.121 531.165 240.646 530.545 239.925C530.332 239.895 530.125 239.827 529.935 239.726C529.316 239.511 528.76 239.146 528.316 238.664C528.2 238.462 528.139 238.233 528.139 238C528.139 237.767 528.2 237.538 528.316 237.336V237.336C528.235 237.257 528.17 237.162 528.125 237.057C528.081 236.952 528.058 236.84 528.058 236.726C528.058 236.612 528.081 236.499 528.125 236.394C528.17 236.289 528.235 236.194 528.316 236.115C528.226 235.843 528.226 235.55 528.316 235.278ZM528.462 238.359C528.686 238.671 528.988 238.919 529.338 239.076C529.564 239.208 530.094 239.58 530.32 239.527C530.758 239.421 530.492 238.837 530.32 238.584C530.074 238.49 529.845 238.355 529.643 238.186L528.807 237.655L528.529 237.442C528.447 237.582 528.398 237.738 528.387 237.899C528.375 238.061 528.401 238.222 528.462 238.372V238.359ZM529.524 237.721C530.001 238.013 530.386 238.385 530.85 237.867C530.187 237.522 529.524 237.177 528.887 236.792C528.695 236.682 528.527 236.532 528.396 236.354C528.038 236.951 529.179 237.509 529.524 237.735V237.721Z" fill="#653200"/>
<path d="M536.834 235.491C536.834 235.491 534.512 236.009 534.34 240.881L536.078 245.196L545.511 240.297C545.511 240.297 543.255 237.456 536.834 235.491Z" fill="#88D3D8"/>
<path d="M514.479 237.761C515.182 239.315 515.885 240.722 516.469 242.315C516.907 241.266 517.305 240.403 517.796 239.394C517.82 239.361 517.846 239.33 517.875 239.301C517.97 239.143 518.116 239.021 518.29 238.957C518.463 238.893 518.653 238.89 518.828 238.949C519.003 239.008 519.153 239.125 519.252 239.281C519.352 239.437 519.395 239.622 519.374 239.806C519.206 240.761 518.83 241.667 518.273 242.461C518.352 242.503 518.424 242.556 518.486 242.621C519.812 244.134 519.52 246.444 519.361 248.303C519.353 248.424 519.314 248.542 519.247 248.644C519.181 248.746 519.09 248.83 518.982 248.887C518.875 248.944 518.755 248.973 518.633 248.971C518.511 248.968 518.392 248.935 518.287 248.874C518.157 248.876 518.028 248.844 517.915 248.781C516.693 247.937 515.821 246.677 515.461 245.236C514.665 242.886 513.683 240.271 514.479 237.761Z" fill="#E85454"/>
<path d="M549.69 237.655L546.28 236.646C545.431 236.765 538.055 239.779 534.99 245.037C534.616 246.64 534.363 248.269 534.234 249.909C533.955 252.1 533.73 254.291 533.623 256.548C533.479 258.946 533.514 261.351 533.73 263.744C533.836 264.766 533.902 265.284 534.074 266.293C534.467 266.637 534.916 266.911 535.401 267.103C545.63 270.661 553.139 264.899 553.444 264.076C553.749 263.253 554.24 251.436 554.479 244.413C554.543 242.914 554.108 241.437 553.241 240.213C552.374 238.99 551.124 238.09 549.69 237.655V237.655Z" fill="#88D3D8"/>
<path d="M540.668 225.44C540.668 225.44 538.373 237.004 542.631 238.252C546.89 239.5 551.918 234.681 552.263 232.304C552.608 229.928 546.638 221.63 540.668 225.44Z" fill="#E85454"/>
<path d="M542.313 230.114C542.181 229.914 539.74 229.277 539.222 227.206C538.705 225.135 540.549 222.44 544.834 222.041C549.119 221.643 556.244 223.98 555.143 235.199C554.041 246.417 542.751 241.598 542.021 238.013C541.63 235.385 541.729 232.706 542.313 230.114V230.114Z" fill="#653200"/>
<path d="M542.313 230.114C542.313 230.114 541.597 233.951 540.045 235.597C538.492 237.243 537.232 240.244 539.142 242.527C541.053 244.811 539.142 246.059 536.489 248.25C533.836 250.44 535.454 259.336 545.166 257.158C550.646 256.064 555.63 253.239 559.388 249.099C559.388 249.099 556.894 231.627 554.253 227.525" fill="#653200"/>
<path d="M534.963 245.196C534.963 245.196 532.761 252.565 530.572 252.79C528.383 253.016 525.04 249.763 522.705 245.515C521.869 245.435 521.025 245.526 520.226 245.784C519.427 246.041 518.688 246.459 518.056 247.012C517.424 247.565 516.911 248.242 516.549 249C516.187 249.759 515.984 250.583 515.952 251.423C515.952 251.423 523.686 267.116 534.963 263.279" fill="#88D3D8"/>
<path d="M519.329 237.38C518.419 235.043 519.309 232.514 521.316 231.732C523.323 230.949 525.688 232.209 526.598 234.545C527.508 236.882 526.618 239.41 524.611 240.193C522.604 240.976 520.239 239.716 519.329 237.38Z" fill="#1784AA"/>
<path d="M525.61 234.8L524.389 234.415L523.885 236.141L519.918 234.721L519.746 235.942L524.575 237.708L525.61 234.8Z" fill="#E4F5FD"/>
<path d="M575.494 301.383C582.277 292.579 585.803 281.694 585.471 270.581C585.395 261.607 581.887 253.002 575.666 246.537C569.948 240.669 561.311 237.774 553.656 241.757C547.301 245.063 544.223 251.396 542.008 257.889C539.355 265.656 538.452 275.626 528.993 278.029C525.318 278.959 521.471 278.322 517.689 278.029C511.056 277.578 504.144 279.716 502.101 286.752C498.426 299.339 515.368 310.08 524.854 314.142C533.083 317.528 542.146 318.333 550.843 316.451C559.54 314.568 567.461 310.087 573.557 303.6C574.229 302.892 574.875 302.153 575.494 301.383Z" fill="#FCB749"/>
<path d="M502.406 286.951C509.133 299.126 531.036 304.623 542.977 304.012C553.816 303.454 560.662 296.829 559.932 285.849C559.521 279.822 557.61 273.807 558.154 267.74C559.07 257.397 568.887 248.914 578.904 250.932C583.162 256.868 585.479 263.978 585.537 271.285C585.87 282.398 582.344 293.282 575.561 302.087C574.941 302.857 574.296 303.609 573.624 304.344C567.528 310.831 559.607 315.312 550.91 317.194C542.213 319.077 533.15 318.272 524.92 314.886C515.408 310.823 498.492 300.082 502.167 287.496C502.274 287.297 502.34 287.137 502.406 286.951Z" fill="#F19604"/>
<mask id="mask1" mask-type="alpha" maskUnits="userSpaceOnUse" x="0" y="11" width="348" height="253">
<rect y="11" width="348" height="253" fill="url(#paint2_linear)"/>
</mask>
<g mask="url(#mask1)">
<rect x="55.5" y="128.5" width="149" height="31" rx="15.5" fill="white" stroke="#BDBDBD"/>
<path d="M74.9732 149H81.1976V147.906H76.2061V144.446H80.7999V143.352H76.2061V139.912H81.1181V138.818H74.9732V149ZM84.3546 144.406C84.3546 143.074 85.1799 142.318 86.3034 142.318C87.3922 142.318 88.0534 143.029 88.0534 144.227V149H89.2267V144.148C89.2267 142.199 88.1877 141.264 86.6415 141.264C85.4881 141.264 84.7722 141.781 84.4142 142.557H84.3148V141.364H83.1813V149H84.3546V144.406ZM94.4531 152.023C96.2827 152.023 97.7543 151.188 97.7543 149.219V141.364H96.6207V142.577H96.5014C96.2429 142.179 95.7656 141.264 94.2741 141.264C92.3452 141.264 91.0128 142.795 91.0128 145.142C91.0128 147.528 92.4048 148.881 94.2543 148.881C95.7457 148.881 96.223 148.006 96.4815 147.588H96.581V149.139C96.581 150.412 95.6861 150.989 94.4531 150.989C93.0661 150.989 92.5788 150.258 92.2656 149.835L91.331 150.491C91.8082 151.292 92.7479 152.023 94.4531 152.023ZM94.4134 147.827C92.9418 147.827 92.1861 146.713 92.1861 145.122C92.1861 143.571 92.9219 142.318 94.4134 142.318C95.8452 142.318 96.6009 143.472 96.6009 145.122C96.6009 146.812 95.8253 147.827 94.4134 147.827ZM99.902 149H101.075V141.364H99.902V149ZM100.499 140.091C100.956 140.091 101.334 139.733 101.334 139.295C101.334 138.858 100.956 138.5 100.499 138.5C100.041 138.5 99.6634 138.858 99.6634 139.295C99.6634 139.733 100.041 140.091 100.499 140.091ZM104.398 144.406C104.398 143.074 105.223 142.318 106.346 142.318C107.435 142.318 108.096 143.029 108.096 144.227V149H109.27V144.148C109.27 142.199 108.231 141.264 106.684 141.264C105.531 141.264 104.815 141.781 104.457 142.557H104.358V141.364H103.224V149H104.398V144.406ZM114.615 149.159C116.167 149.159 117.3 148.384 117.658 147.23L116.525 146.912C116.226 147.707 115.535 148.105 114.615 148.105C113.238 148.105 112.289 147.215 112.234 145.58H117.777V145.082C117.777 142.239 116.087 141.264 114.496 141.264C112.428 141.264 111.056 142.895 111.056 145.241C111.056 147.588 112.408 149.159 114.615 149.159ZM112.234 144.565C112.314 143.377 113.154 142.318 114.496 142.318C115.769 142.318 116.584 143.273 116.584 144.565H112.234ZM122.764 149.159C124.315 149.159 125.449 148.384 125.806 147.23L124.673 146.912C124.375 147.707 123.684 148.105 122.764 148.105C121.387 148.105 120.437 147.215 120.382 145.58H125.926V145.082C125.926 142.239 124.235 141.264 122.645 141.264C120.576 141.264 119.204 142.895 119.204 145.241C119.204 147.588 120.556 149.159 122.764 149.159ZM120.382 144.565C120.462 143.377 121.302 142.318 122.645 142.318C123.917 142.318 124.733 143.273 124.733 144.565H120.382ZM127.711 149H128.884V144.168C128.884 143.134 129.699 142.378 130.813 142.378C131.126 142.378 131.449 142.438 131.529 142.457V141.264C131.395 141.254 131.086 141.244 130.912 141.244C129.998 141.244 129.202 141.761 128.924 142.517H128.844V141.364H127.711V149ZM141.232 143.362H136.778V144.456H141.232V143.362ZM151.291 138.818V146.097C151.291 147.364 150.684 148.045 149.62 148.045C148.651 148.045 147.95 147.479 147.95 146.614H146.737C146.737 148.18 147.95 149.139 149.62 149.139C151.39 149.139 152.524 148.05 152.524 146.097V138.818H151.291ZM157.083 149.179C158.415 149.179 159.111 148.463 159.35 147.966H159.409V149H160.583V143.969C160.583 141.543 158.733 141.264 157.759 141.264C156.605 141.264 155.293 141.662 154.696 143.054L155.81 143.452C156.069 142.895 156.68 142.298 157.799 142.298C158.877 142.298 159.409 142.87 159.409 143.849V143.889C159.409 144.456 158.833 144.406 157.441 144.585C156.024 144.769 154.478 145.082 154.478 146.832C154.478 148.324 155.631 149.179 157.083 149.179ZM157.262 148.125C156.327 148.125 155.651 147.707 155.651 146.892C155.651 145.997 156.466 145.719 157.381 145.599C157.878 145.54 159.211 145.401 159.409 145.162V146.236C159.409 147.19 158.654 148.125 157.262 148.125ZM162.724 151.864H163.898V147.827H163.997C164.256 148.244 164.753 149.159 166.224 149.159C168.133 149.159 169.466 147.628 169.466 145.202C169.466 142.795 168.133 141.264 166.204 141.264C164.713 141.264 164.256 142.179 163.997 142.577H163.858V141.364H162.724V151.864ZM163.878 145.182C163.878 143.472 164.633 142.318 166.065 142.318C167.557 142.318 168.292 143.571 168.292 145.182C168.292 146.812 167.537 148.105 166.065 148.105C164.653 148.105 163.878 146.912 163.878 145.182ZM173.503 149.179C174.835 149.179 175.531 148.463 175.77 147.966H175.829V149H177.003V143.969C177.003 141.543 175.153 141.264 174.179 141.264C173.025 141.264 171.713 141.662 171.116 143.054L172.23 143.452C172.488 142.895 173.1 142.298 174.219 142.298C175.297 142.298 175.829 142.87 175.829 143.849V143.889C175.829 144.456 175.253 144.406 173.861 144.585C172.444 144.769 170.898 145.082 170.898 146.832C170.898 148.324 172.051 149.179 173.503 149.179ZM173.682 148.125C172.747 148.125 172.071 147.707 172.071 146.892C172.071 145.997 172.886 145.719 173.801 145.599C174.298 145.54 175.631 145.401 175.829 145.162V146.236C175.829 147.19 175.074 148.125 173.682 148.125ZM180.317 144.406C180.317 143.074 181.143 142.318 182.266 142.318C183.355 142.318 184.016 143.029 184.016 144.227V149H185.19V144.148C185.19 142.199 184.151 141.264 182.604 141.264C181.451 141.264 180.735 141.781 180.377 142.557H180.278V141.364H179.144V149H180.317V144.406Z" fill="#8F8F8F"/>
<rect x="114.5" y="81.5" width="149" height="31" rx="15.5" fill="white" stroke="#BDBDBD"/>
<path d="M135.744 102L136.768 99.1165H140.885L141.909 102H143.202L139.463 91.8182H138.19L134.452 102H135.744ZM137.156 98.0227L138.787 93.429H138.866L140.497 98.0227H137.156ZM144.629 102H145.802V97.1676C145.802 96.1335 146.617 95.3778 147.731 95.3778C148.044 95.3778 148.367 95.4375 148.447 95.4574V94.2642C148.312 94.2543 148.004 94.2443 147.83 94.2443C146.915 94.2443 146.12 94.7614 145.842 95.517H145.762V94.3636H144.629V102ZM153.637 94.3636H152.006V92.5341H150.833V94.3636H149.68V95.358H150.833V100.131C150.833 101.463 151.907 102.099 152.901 102.099C153.339 102.099 153.617 102.02 153.776 101.96L153.538 100.906C153.438 100.926 153.279 100.966 153.021 100.966C152.504 100.966 152.006 100.807 152.006 99.8125V95.358H153.637V94.3636ZM155.402 102H156.575V94.3636H155.402V102ZM155.999 93.0909C156.456 93.0909 156.834 92.733 156.834 92.2955C156.834 91.858 156.456 91.5 155.999 91.5C155.541 91.5 155.163 91.858 155.163 92.2955C155.163 92.733 155.541 93.0909 155.999 93.0909ZM164.133 96.0739C163.765 94.9901 162.94 94.2642 161.429 94.2642C159.818 94.2642 158.625 95.179 158.625 96.4716C158.625 97.5256 159.251 98.2315 160.653 98.5597L161.926 98.858C162.697 99.0369 163.059 99.4048 163.059 99.9318C163.059 100.588 162.363 101.125 161.27 101.125C160.31 101.125 159.709 100.712 159.5 99.892L158.386 100.17C158.66 101.468 159.729 102.159 161.29 102.159C163.064 102.159 164.273 101.19 164.273 99.8722C164.273 98.8082 163.606 98.1371 162.244 97.804L161.111 97.5256C160.206 97.3018 159.798 96.9986 159.798 96.4119C159.798 95.7557 160.494 95.2784 161.429 95.2784C162.453 95.2784 162.876 95.8452 163.079 96.3722L164.133 96.0739ZM169.36 94.3636H167.729V92.5341H166.556V94.3636H165.402V95.358H166.556V100.131C166.556 101.463 167.63 102.099 168.624 102.099C169.061 102.099 169.34 102.02 169.499 101.96L169.26 100.906C169.161 100.926 169.002 100.966 168.743 100.966C168.226 100.966 167.729 100.807 167.729 99.8125V95.358H169.36V94.3636ZM179.437 96.3622H174.983V97.456H179.437V96.3622ZM192.558 95H193.831C193.453 93.0312 191.803 91.679 189.655 91.679C187.045 91.679 185.2 93.6875 185.2 96.9091C185.2 100.131 187.03 102.139 189.735 102.139C192.161 102.139 193.891 100.523 193.891 98.0028V96.9091H190.013V98.0028H192.698C192.663 99.8324 191.46 100.986 189.735 100.986C187.845 100.986 186.394 99.554 186.394 96.9091C186.394 94.2642 187.845 92.8324 189.655 92.8324C191.127 92.8324 192.126 93.6626 192.558 95ZM199.045 102.159C200.596 102.159 201.73 101.384 202.088 100.23L200.954 99.9119C200.656 100.707 199.965 101.105 199.045 101.105C197.668 101.105 196.718 100.215 196.664 98.5795H202.207V98.0824C202.207 95.2386 200.517 94.2642 198.926 94.2642C196.858 94.2642 195.485 95.8949 195.485 98.2415C195.485 100.588 196.838 102.159 199.045 102.159ZM196.664 97.5653C196.743 96.3771 197.583 95.3182 198.926 95.3182C200.199 95.3182 201.014 96.2727 201.014 97.5653H196.664ZM203.992 102H205.165V97.1676C205.165 96.1335 205.98 95.3778 207.094 95.3778C207.407 95.3778 207.73 95.4375 207.81 95.4574V94.2642C207.676 94.2543 207.368 94.2443 207.194 94.2443C206.279 94.2443 205.483 94.7614 205.205 95.517H205.125V94.3636H203.992V102ZM209.201 102H210.374V97.2273C210.374 96.1087 211.189 95.3182 212.104 95.3182C212.994 95.3182 213.616 95.8999 213.616 96.7699V102H214.809V97.0284C214.809 96.044 215.425 95.3182 216.499 95.3182C217.334 95.3182 218.05 95.7607 218.05 96.8892V102H219.224V96.8892C219.224 95.0945 218.259 94.2642 216.897 94.2642C215.803 94.2642 215.003 94.7663 214.61 95.5568H214.53C214.153 94.7415 213.486 94.2642 212.482 94.2642C211.488 94.2642 210.752 94.7415 210.434 95.5568H210.334V94.3636H209.201V102ZM223.616 102.179C224.948 102.179 225.644 101.463 225.883 100.966H225.943V102H227.116V96.9688C227.116 94.5426 225.267 94.2642 224.292 94.2642C223.139 94.2642 221.826 94.6619 221.23 96.054L222.343 96.4517C222.602 95.8949 223.213 95.2983 224.332 95.2983C225.411 95.2983 225.943 95.87 225.943 96.8494V96.8892C225.943 97.456 225.366 97.4062 223.974 97.5852C222.557 97.7692 221.011 98.0824 221.011 99.8324C221.011 101.324 222.164 102.179 223.616 102.179ZM223.795 101.125C222.86 101.125 222.184 100.707 222.184 99.892C222.184 98.9972 222.999 98.7188 223.914 98.5994C224.411 98.5398 225.744 98.4006 225.943 98.1619V99.2358C225.943 100.19 225.187 101.125 223.795 101.125ZM230.431 97.4062C230.431 96.0739 231.256 95.3182 232.38 95.3182C233.468 95.3182 234.13 96.0291 234.13 97.2273V102H235.303V97.1477C235.303 95.1989 234.264 94.2642 232.718 94.2642C231.564 94.2642 230.848 94.7812 230.49 95.5568H230.391V94.3636H229.257V102H230.431V97.4062ZM237.929 104.844C238.988 104.844 239.739 104.282 240.176 103.114L243.428 94.3835L242.145 94.3636L240.037 100.449H239.958L237.85 94.3636H236.577L239.401 102.04L239.182 102.636C238.764 103.78 238.227 103.889 237.372 103.67L237.074 104.705C237.193 104.764 237.531 104.844 237.929 104.844Z" fill="#8F8F8F"/>
<rect x="138.5" y="175.5" width="149" height="31" rx="15.5" fill="white" stroke="#BDBDBD"/>
<path d="M157.143 186.912H160.345V196H161.578V186.912H164.779V185.818H157.143V186.912ZM168.617 196.159C170.169 196.159 171.302 195.384 171.66 194.23L170.526 193.912C170.228 194.707 169.537 195.105 168.617 195.105C167.24 195.105 166.291 194.215 166.236 192.58H171.779V192.082C171.779 189.239 170.089 188.264 168.498 188.264C166.43 188.264 165.058 189.895 165.058 192.241C165.058 194.588 166.41 196.159 168.617 196.159ZM166.236 191.565C166.316 190.377 167.156 189.318 168.498 189.318C169.771 189.318 170.586 190.273 170.586 191.565H166.236ZM175.811 196.179C177.144 196.179 177.84 195.463 178.078 194.966H178.138V196H179.311V190.969C179.311 188.543 177.462 188.264 176.487 188.264C175.334 188.264 174.021 188.662 173.425 190.054L174.539 190.452C174.797 189.895 175.409 189.298 176.527 189.298C177.606 189.298 178.138 189.87 178.138 190.849V190.889C178.138 191.456 177.561 191.406 176.169 191.585C174.752 191.769 173.206 192.082 173.206 193.832C173.206 195.324 174.36 196.179 175.811 196.179ZM175.99 195.125C175.056 195.125 174.379 194.707 174.379 193.892C174.379 192.997 175.195 192.719 176.11 192.599C176.607 192.54 177.939 192.401 178.138 192.162V193.236C178.138 194.19 177.382 195.125 175.99 195.125ZM184.555 196.159C186.245 196.159 187.359 195.125 187.558 193.773H186.385C186.166 194.608 185.47 195.105 184.555 195.105C183.163 195.105 182.268 193.952 182.268 192.182C182.268 190.452 183.183 189.318 184.555 189.318C185.589 189.318 186.206 189.955 186.385 190.651H187.558C187.359 189.219 186.146 188.264 184.535 188.264C182.467 188.264 181.095 189.895 181.095 192.222C181.095 194.509 182.407 196.159 184.555 196.159ZM190.446 191.406C190.446 190.074 191.297 189.318 192.455 189.318C193.559 189.318 194.225 190.014 194.225 191.227V196H195.398V191.148C195.398 189.184 194.354 188.264 192.793 188.264C191.59 188.264 190.904 188.766 190.546 189.557H190.446V185.818H189.273V196H190.446V191.406ZM200.746 196.159C202.297 196.159 203.431 195.384 203.789 194.23L202.655 193.912C202.357 194.707 201.666 195.105 200.746 195.105C199.369 195.105 198.42 194.215 198.365 192.58H203.908V192.082C203.908 189.239 202.218 188.264 200.627 188.264C198.559 188.264 197.187 189.895 197.187 192.241C197.187 194.588 198.539 196.159 200.746 196.159ZM198.365 191.565C198.444 190.377 199.285 189.318 200.627 189.318C201.9 189.318 202.715 190.273 202.715 191.565H198.365ZM205.693 196H206.866V191.168C206.866 190.134 207.682 189.378 208.795 189.378C209.108 189.378 209.432 189.438 209.511 189.457V188.264C209.377 188.254 209.069 188.244 208.895 188.244C207.98 188.244 207.184 188.761 206.906 189.517H206.827V188.364H205.693V196ZM219.214 190.362H214.76V191.456H219.214V190.362ZM225.376 196H226.608V191.446H231.023V190.352H226.608V186.912H231.481V185.818H225.376V196ZM233.351 196H234.525V191.168C234.525 190.134 235.34 189.378 236.453 189.378C236.767 189.378 237.09 189.438 237.169 189.457V188.264C237.035 188.254 236.727 188.244 236.553 188.244C235.638 188.244 234.843 188.761 234.564 189.517H234.485V188.364H233.351V196ZM240.807 196.179C242.14 196.179 242.836 195.463 243.074 194.966H243.134V196H244.307V190.969C244.307 188.543 242.458 188.264 241.483 188.264C240.33 188.264 239.018 188.662 238.421 190.054L239.535 190.452C239.793 189.895 240.405 189.298 241.523 189.298C242.602 189.298 243.134 189.87 243.134 190.849V190.889C243.134 191.456 242.557 191.406 241.165 191.585C239.748 191.769 238.202 192.082 238.202 193.832C238.202 195.324 239.356 196.179 240.807 196.179ZM240.986 195.125C240.052 195.125 239.376 194.707 239.376 193.892C239.376 192.997 240.191 192.719 241.106 192.599C241.603 192.54 242.935 192.401 243.134 192.162V193.236C243.134 194.19 242.378 195.125 240.986 195.125ZM247.622 191.406C247.622 190.074 248.447 189.318 249.571 189.318C250.66 189.318 251.321 190.029 251.321 191.227V196H252.494V191.148C252.494 189.199 251.455 188.264 249.909 188.264C248.756 188.264 248.04 188.781 247.682 189.557H247.582V188.364H246.449V196H247.622V191.406ZM257.741 196.159C259.431 196.159 260.545 195.125 260.743 193.773H259.57C259.351 194.608 258.655 195.105 257.741 195.105C256.349 195.105 255.454 193.952 255.454 192.182C255.454 190.452 256.368 189.318 257.741 189.318C258.775 189.318 259.391 189.955 259.57 190.651H260.743C260.545 189.219 259.331 188.264 257.721 188.264C255.653 188.264 254.28 189.895 254.28 192.222C254.28 194.509 255.593 196.159 257.741 196.159ZM265.66 196.159C267.211 196.159 268.345 195.384 268.703 194.23L267.569 193.912C267.271 194.707 266.58 195.105 265.66 195.105C264.283 195.105 263.334 194.215 263.279 192.58H268.822V192.082C268.822 189.239 267.132 188.264 265.541 188.264C263.473 188.264 262.101 189.895 262.101 192.241C262.101 194.588 263.453 196.159 265.66 196.159ZM263.279 191.565C263.358 190.377 264.199 189.318 265.541 189.318C266.814 189.318 267.629 190.273 267.629 191.565H263.279Z" fill="#8F8F8F"/>
<rect x="234.5" y="217.5" width="89" height="18" rx="9" fill="white" stroke="#BDBDBD"/>
<rect x="214.5" y="246.5" width="44" height="9" rx="4.5" fill="white" stroke="#BDBDBD"/>
<rect x="16.5" y="34.5" width="181" height="31" rx="15.5" fill="white" stroke="#BDBDBD"/>
<path d="M39.4566 55H40.6895V51.2812H42.9168C45.2883 51.2812 46.3572 49.8395 46.3572 48.0398C46.3572 46.2401 45.2883 44.8182 42.8969 44.8182H39.4566V55ZM40.6895 50.1875V45.9119H42.8572C44.5127 45.9119 45.1441 46.8168 45.1441 48.0398C45.1441 49.2628 44.5127 50.1875 42.877 50.1875H40.6895ZM51.2045 55.1591C53.2726 55.1591 54.6647 53.5881 54.6647 51.2216C54.6647 48.8352 53.2726 47.2642 51.2045 47.2642C49.1363 47.2642 47.7442 48.8352 47.7442 51.2216C47.7442 53.5881 49.1363 55.1591 51.2045 55.1591ZM51.2045 54.1051C49.6334 54.1051 48.9175 52.7528 48.9175 51.2216C48.9175 49.6903 49.6334 48.3182 51.2045 48.3182C52.7755 48.3182 53.4914 49.6903 53.4914 51.2216C53.4914 52.7528 52.7755 54.1051 51.2045 54.1051ZM57.629 44.8182H56.4557V55H57.629V44.8182ZM59.778 55H60.9513V47.3636H59.778V55ZM60.3746 46.0909C60.8319 46.0909 61.2098 45.733 61.2098 45.2955C61.2098 44.858 60.8319 44.5 60.3746 44.5C59.9172 44.5 59.5393 44.858 59.5393 45.2955C59.5393 45.733 59.9172 46.0909 60.3746 46.0909ZM66.4213 47.3636H64.7906V45.5341H63.6173V47.3636H62.4639V48.358H63.6173V53.1307C63.6173 54.4631 64.6911 55.0994 65.6855 55.0994C66.123 55.0994 66.4014 55.0199 66.5605 54.9602L66.3218 53.9062C66.2224 53.9261 66.0633 53.9659 65.8048 53.9659C65.2877 53.9659 64.7906 53.8068 64.7906 52.8125V48.358H66.4213V47.3636ZM68.1862 55H69.3595V47.3636H68.1862V55ZM68.7828 46.0909C69.2401 46.0909 69.618 45.733 69.618 45.2955C69.618 44.858 69.2401 44.5 68.7828 44.5C68.3254 44.5 67.9475 44.858 67.9475 45.2955C67.9475 45.733 68.3254 46.0909 68.7828 46.0909ZM74.6107 55.1591C76.301 55.1591 77.4147 54.125 77.6135 52.7727H76.4403C76.2215 53.608 75.5255 54.1051 74.6107 54.1051C73.2187 54.1051 72.3238 52.9517 72.3238 51.1818C72.3238 49.4517 73.2385 48.3182 74.6107 48.3182C75.6448 48.3182 76.2613 48.9545 76.4403 49.6506H77.6135C77.4147 48.2188 76.2016 47.2642 74.5908 47.2642C72.5226 47.2642 71.1505 48.8949 71.1505 51.2216C71.1505 53.5085 72.463 55.1591 74.6107 55.1591ZM79.3287 55H80.502V47.3636H79.3287V55ZM79.9253 46.0909C80.3827 46.0909 80.7606 45.733 80.7606 45.2955C80.7606 44.858 80.3827 44.5 79.9253 44.5C79.468 44.5 79.0901 44.858 79.0901 45.2955C79.0901 45.733 79.468 46.0909 79.9253 46.0909ZM84.8982 55.179C86.2306 55.179 86.9266 54.4631 87.1652 53.9659H87.2249V55H88.3982V49.9688C88.3982 47.5426 86.5487 47.2642 85.5743 47.2642C84.4209 47.2642 83.1084 47.6619 82.5118 49.054L83.6254 49.4517C83.884 48.8949 84.4955 48.2983 85.6141 48.2983C86.6929 48.2983 87.2249 48.87 87.2249 49.8494V49.8892C87.2249 50.456 86.6482 50.4062 85.2561 50.5852C83.8392 50.7692 82.2931 51.0824 82.2931 52.8324C82.2931 54.3239 83.4465 55.179 84.8982 55.179ZM85.0771 54.125C84.1425 54.125 83.4664 53.7074 83.4664 52.892C83.4664 51.9972 84.2817 51.7188 85.1965 51.5994C85.6936 51.5398 87.026 51.4006 87.2249 51.1619V52.2358C87.2249 53.1903 86.4692 54.125 85.0771 54.125ZM91.713 50.4062C91.713 49.0739 92.5383 48.3182 93.6618 48.3182C94.7506 48.3182 95.4118 49.0291 95.4118 50.2273V55H96.5851V50.1477C96.5851 48.1989 95.5461 47.2642 93.9999 47.2642C92.8465 47.2642 92.1306 47.7812 91.7726 48.5568H91.6732V47.3636H90.5397V55H91.713V50.4062ZM107.042 49.3622H102.587V50.456H107.042V49.3622ZM114.436 44.8182H113.203V55H114.436V44.8182ZM117.922 50.4062C117.922 49.0739 118.747 48.3182 119.871 48.3182C120.96 48.3182 121.621 49.0291 121.621 50.2273V55H122.794V50.1477C122.794 48.1989 121.755 47.2642 120.209 47.2642C119.055 47.2642 118.34 47.7812 117.982 48.5568H117.882V47.3636H116.749V55H117.922V50.4062ZM127.822 55.1591C129.293 55.1591 129.79 54.2443 130.049 53.8267H130.188V55H131.322V44.8182H130.148V48.5767H130.049C129.79 48.179 129.333 47.2642 127.842 47.2642C125.913 47.2642 124.58 48.7955 124.58 51.2017C124.58 53.6278 125.913 55.1591 127.822 55.1591ZM127.981 54.1051C126.509 54.1051 125.753 52.8125 125.753 51.1818C125.753 49.571 126.489 48.3182 127.981 48.3182C129.413 48.3182 130.168 49.4716 130.168 51.1818C130.168 52.9119 129.393 54.1051 127.981 54.1051ZM136.736 55.1591C138.804 55.1591 140.196 53.5881 140.196 51.2216C140.196 48.8352 138.804 47.2642 136.736 47.2642C134.668 47.2642 133.275 48.8352 133.275 51.2216C133.275 53.5881 134.668 55.1591 136.736 55.1591ZM136.736 54.1051C135.165 54.1051 134.449 52.7528 134.449 51.2216C134.449 49.6903 135.165 48.3182 136.736 48.3182C138.307 48.3182 139.023 49.6903 139.023 51.2216C139.023 52.7528 138.307 54.1051 136.736 54.1051ZM143.16 50.4062C143.16 49.0739 143.986 48.3182 145.109 48.3182C146.198 48.3182 146.859 49.0291 146.859 50.2273V55H148.032V50.1477C148.032 48.1989 146.993 47.2642 145.447 47.2642C144.294 47.2642 143.578 47.7812 143.22 48.5568H143.12V47.3636H141.987V55H143.16V50.4062ZM153.378 55.1591C154.929 55.1591 156.063 54.3835 156.421 53.2301L155.287 52.9119C154.989 53.7074 154.298 54.1051 153.378 54.1051C152.001 54.1051 151.051 53.2152 150.997 51.5795H156.54V51.0824C156.54 48.2386 154.85 47.2642 153.259 47.2642C151.191 47.2642 149.818 48.8949 149.818 51.2415C149.818 53.5881 151.171 55.1591 153.378 55.1591ZM150.997 50.5653C151.076 49.3771 151.916 48.3182 153.259 48.3182C154.532 48.3182 155.347 49.2727 155.347 50.5653H150.997ZM163.734 49.0739C163.366 47.9901 162.541 47.2642 161.029 47.2642C159.419 47.2642 158.225 48.179 158.225 49.4716C158.225 50.5256 158.852 51.2315 160.254 51.5597L161.527 51.858C162.297 52.0369 162.66 52.4048 162.66 52.9318C162.66 53.5881 161.964 54.125 160.87 54.125C159.911 54.125 159.309 53.7124 159.1 52.892L157.987 53.1705C158.26 54.468 159.329 55.1591 160.89 55.1591C162.665 55.1591 163.873 54.1896 163.873 52.8722C163.873 51.8082 163.207 51.1371 161.845 50.804L160.711 50.5256C159.806 50.3018 159.399 49.9986 159.399 49.4119C159.399 48.7557 160.095 48.2784 161.029 48.2784C162.054 48.2784 162.476 48.8452 162.68 49.3722L163.734 49.0739ZM165.639 55H166.813V47.3636H165.639V55ZM166.236 46.0909C166.693 46.0909 167.071 45.733 167.071 45.2955C167.071 44.858 166.693 44.5 166.236 44.5C165.778 44.5 165.401 44.858 165.401 45.2955C165.401 45.733 165.778 46.0909 166.236 46.0909ZM171.209 55.179C172.541 55.179 173.237 54.4631 173.476 53.9659H173.535V55H174.709V49.9688C174.709 47.5426 172.859 47.2642 171.885 47.2642C170.731 47.2642 169.419 47.6619 168.822 49.054L169.936 49.4517C170.195 48.8949 170.806 48.2983 171.925 48.2983C173.003 48.2983 173.535 48.87 173.535 49.8494V49.8892C173.535 50.456 172.959 50.4062 171.567 50.5852C170.15 50.7692 168.604 51.0824 168.604 52.8324C168.604 54.3239 169.757 55.179 171.209 55.179ZM171.388 54.125C170.453 54.125 169.777 53.7074 169.777 52.892C169.777 51.9972 170.592 51.7188 171.507 51.5994C172.004 51.5398 173.337 51.4006 173.535 51.1619V52.2358C173.535 53.1903 172.78 54.125 171.388 54.125Z" fill="#8F8F8F"/>
</g>
</g>
<defs>
<filter id="filter0_ddd" x="261" y="15" width="304" height="253" filterUnits="userSpaceOnUse" color-interpolation-filters="sRGB">
<feFlood flood-opacity="0" result="BackgroundImageFix"/>
<feColorMatrix in="SourceAlpha" type="matrix" values="0 0 0 0 0 0 0 0 0 0 0 0 0 0 0 0 0 0 127 0"/>
<feOffset dy="1"/>
<feGaussianBlur stdDeviation="1.5"/>
<feColorMatrix type="matrix" values="0 0 0 0 0 0 0 0 0 0 0 0 0 0 0 0 0 0 0.2 0"/>
<feBlend mode="normal" in2="BackgroundImageFix" result="effect1_dropShadow"/>
<feColorMatrix in="SourceAlpha" type="matrix" values="0 0 0 0 0 0 0 0 0 0 0 0 0 0 0 0 0 0 127 0"/>
<feOffset dy="2"/>
<feGaussianBlur stdDeviation="1"/>
<feColorMatrix type="matrix" values="0 0 0 0 0 0 0 0 0 0 0 0 0 0 0 0 0 0 0.12 0"/>
<feBlend mode="normal" in2="effect1_dropShadow" result="effect2_dropShadow"/>
<feColorMatrix in="SourceAlpha" type="matrix" values="0 0 0 0 0 0 0 0 0 0 0 0 0 0 0 0 0 0 127 0"/>
<feOffset/>
<feGaussianBlur stdDeviation="1"/>
<feColorMatrix type="matrix" values="0 0 0 0 0 0 0 0 0 0 0 0 0 0 0 0 0 0 0.14 0"/>
<feBlend mode="normal" in2="effect2_dropShadow" result="effect3_dropShadow"/>
<feBlend mode="normal" in="SourceGraphic" in2="effect3_dropShadow" result="shape"/>
</filter>
<linearGradient id="paint0_linear" x1="419" y1="107" x2="419" y2="247" gradientUnits="userSpaceOnUse">
<stop stop-color="#C4C4C4"/>
<stop offset="1" stop-color="#C4C4C4" stop-opacity="0"/>
</linearGradient>
<linearGradient id="paint1_linear" x1="562.597" y1="280.068" x2="603.097" y2="330.069" gradientUnits="userSpaceOnUse">
<stop offset="0.411458" stop-color="#4990B3"/>
<stop offset="1" stop-color="#E5E5E5"/>
</linearGradient>
<linearGradient id="paint2_linear" x1="219" y1="146.5" x2="245" y2="319.5" gradientUnits="userSpaceOnUse">
<stop stop-color="#C4C4C4"/>
<stop offset="0.860754" stop-color="#C4C4C4" stop-opacity="0"/>
</linearGradient>
<clipPath id="clip0">
<rect width="634.97" height="346.883" fill="white"/>
</clipPath>
</defs>
</svg>
