<svg width="25" height="17" viewBox="0 0 25 17" fill="none" xmlns="http://www.w3.org/2000/svg">
<path fill-rule="evenodd" clip-rule="evenodd" d="M12.4999 15.6274C14.9908 14.1865 16.6666 11.4934 16.6666 8.40891C16.6666 5.3244 14.9908 2.6313 12.4999 1.19043C10.0091 2.6313 8.33325 5.3244 8.33325 8.40891C8.33325 11.4934 10.0091 14.1865 12.4999 15.6274Z" fill="#F2F2F2"/>
<path fill-rule="evenodd" clip-rule="evenodd" d="M12.3809 15.5518C14.8717 14.1109 16.5475 11.4178 16.5475 8.33333C16.5475 5.24882 14.8717 2.55572 12.3809 1.11485C13.6066 0.40581 15.0297 0 16.5475 0C21.1499 0 24.8809 3.73096 24.8809 8.33333C24.8809 12.9357 21.1499 16.6667 16.5475 16.6667C15.0297 16.6667 13.6066 16.2609 12.3809 15.5518Z" fill="#F2F2F2"/>
<path fill-rule="evenodd" clip-rule="evenodd" d="M12.5 1.11485C10.0092 2.55573 8.33333 5.24882 8.33333 8.33333C8.33333 11.4178 10.0092 14.1109 12.5 15.5518C11.2743 16.2609 9.8512 16.6667 8.33333 16.6667C3.73096 16.6667 0 12.9357 0 8.33333C0 3.73096 3.73096 0 8.33333 0C9.8512 0 11.2743 0.40581 12.5 1.11485Z" fill="#5F9EBD"/>
<circle cx="16.6666" cy="8.33333" r="7.83333" stroke="#4D4D4D"/>
<circle cx="8.33333" cy="8.33333" r="7.83333" stroke="#4D4D4D"/>
</svg>
