<svg width="525" height="393" viewBox="0 0 525 393" fill="none" xmlns="http://www.w3.org/2000/svg">
<path d="M4.36046 252.976L236.873 389.04C241.117 391.523 245.956 392.807 250.872 392.753C255.788 392.7 260.598 391.311 264.787 388.736L520.806 231.463C522.132 230.646 523.219 229.492 523.954 228.119C524.69 226.746 525.049 225.202 524.995 223.645C524.94 222.087 524.475 220.572 523.645 219.254C522.815 217.935 521.652 216.86 520.272 216.138L276.808 89.2405C275.51 88.5644 274.064 88.2223 272.601 88.245C271.138 88.2677 269.704 88.6546 268.428 89.3706L4.49049 237.68C3.13913 238.441 2.01237 239.545 1.22399 240.882C0.435607 242.218 0.0135098 243.739 0.000318944 245.29C-0.0128719 246.842 0.38331 248.37 1.14886 249.719C1.91441 251.069 3.02223 252.192 4.36046 252.976V252.976Z" fill="#D1E3EC"/>
<path d="M138.829 217.93L41.3186 274.605C41.3186 274.605 191.448 362.206 219.03 378.587L303.161 329.213" fill="url(#paint0_linear)"/>
<path d="M309.793 82.214C309.793 82.214 303.19 38.0451 317.58 33.2017C331.971 28.3583 352.415 39.7366 356.778 53.2403C361.141 66.744 368.481 118.055 362.181 122.725C355.882 127.395 311.613 120.021 308.507 107.718" fill="#A93032"/>
<path d="M228.927 310.678L103.763 238.359L240.225 51.3029L365.389 123.621L228.927 310.678Z" fill="#FFB9AD"/>
<path d="M103.821 132.18L103.763 160.185V238.359L240.225 158.61V51.3029L103.821 132.18Z" fill="#FF8C79"/>
<path d="M164.257 96.3393L148.697 87.3465C148.104 86.9995 103.763 114.657 103.763 114.657V135.636" fill="#FF8C79"/>
<path d="M333.805 44.6667C335.423 44.0306 337.071 43.4812 338.616 42.9896C342.705 41.674 346.91 40.7631 351.056 39.7077C350.29 21.3461 339.093 0.671334 319.574 2.42074C316.738 2.55835 314.013 3.56812 311.772 5.31232C308.29 8.2039 306.975 12.975 307.438 18.5413C307.636 21.1131 308.438 23.6018 309.779 25.805C311.119 28.0082 312.961 29.8637 315.153 31.2209C326.509 38.4788 331.392 40.633 333.805 44.6667Z" fill="#01293D"/>
<path d="M310.486 15.2738C310.486 15.2738 311.295 41.2981 320.325 42.7439C329.355 44.1897 335.727 30.5558 335.727 30.5558C335.727 30.5558 340.625 18.6281 335.727 15.2738C330.829 11.9196 317.595 6.41114 310.486 15.2738Z" fill="#FFB9AD"/>
<path d="M331.392 48.6283C330.237 55.1488 329.774 63.3609 335.727 67.6838C339.616 67.0618 343.412 65.9544 347.025 64.3874C350.985 62.3623 354.627 59.7659 357.832 56.6813C357.912 55.5164 357.912 54.3474 357.832 53.1825C357.399 45.9535 348.355 -15.0588 320.788 8.68105L325.252 17.9341C327.405 22.4161 329.933 27.0426 331.19 31.9727C332.411 37.4505 332.48 43.1224 331.392 48.6283V48.6283Z" fill="#01293D"/>
<path d="M310.486 6.98947C310.399 6.72923 314.416 -0.673223 329.167 0.0496719C345.999 0.888231 347.849 20.5944 347.849 20.5944" fill="#01293D"/>
<path d="M309.518 12.2666C309.244 12.8305 308.521 20.9413 310.486 23.2835C310.486 23.2835 321.033 28.6619 326.986 28.8932C326.986 28.8932 326.986 22.0257 327.78 21.3317C328.575 20.6377 327.347 8.57983 319.559 6.97501" fill="#01293D"/>
<path d="M113.776 267.969C103.821 262.186 93.9384 256.114 83.8826 250.432C79.8 247.857 75.1551 246.309 70.3448 245.921C64.2188 245.733 56.3157 250.128 60.0722 257.097C61.936 260.552 65.7214 262.88 68.9433 264.832C75.4738 268.923 82.1344 272.841 88.6938 276.89C96.568 281.733 106.711 290.075 116.651 288.846C122.43 288.138 126.345 283.584 121.895 278.726C119.584 276.21 115.986 274.634 113.039 272.943L78.1901 253.135C77.7762 252.894 77.2834 252.827 76.8201 252.949C76.3568 253.071 75.9608 253.372 75.7194 253.786C75.478 254.2 75.4109 254.693 75.5328 255.157C75.6548 255.62 75.9558 256.017 76.3696 256.258L105.641 272.899C108.777 274.678 111.999 276.384 115.076 278.263C116.044 278.856 117.864 279.55 118.471 280.49C121.852 285.723 113.992 285.463 111.146 284.827C105.656 283.482 100.671 280.128 95.9323 277.179C90.2542 273.651 84.5472 270.196 78.8402 266.726C75.3293 264.586 56.778 256.273 66.6461 249.955C71.125 247.063 79.0569 251.877 83.1602 254.292C92.7922 259.892 102.386 265.521 111.941 271.179C112.355 271.42 112.847 271.487 113.311 271.365C113.774 271.243 114.17 270.942 114.411 270.528C114.653 270.114 114.72 269.621 114.598 269.157C114.476 268.694 114.175 268.297 113.761 268.056L113.776 267.969Z" fill="#4D4D4D"/>
<path d="M345.291 112.026C345.291 112.026 352.963 104.884 356.532 97.4815L355.087 117.723L345.291 112.026Z" fill="#01293D"/>
<path d="M265.336 76.5754L260.597 73.1633C259.8 72.5428 258.834 72.1777 257.826 72.1158C256.818 72.0539 255.815 72.2981 254.948 72.8163L129.813 147C128.693 147.662 127.764 148.605 127.118 149.736C126.472 150.866 126.131 152.146 126.129 153.448V177.188V249.882C126.128 250.339 126.229 250.789 126.424 251.202C126.619 251.615 126.903 251.979 127.256 252.268L127.675 252.557L132.544 255.94L134.725 251.718L133.05 251.227L262.49 175.641V77.1537L265.336 76.5754Z" fill="white"/>
<path opacity="0.5" d="M265.336 76.5754L260.597 73.1633C259.8 72.5428 258.834 72.1777 257.826 72.1158C256.818 72.0539 255.815 72.2981 254.948 72.8163L129.813 147C128.693 147.662 127.764 148.605 127.118 149.736C126.472 150.866 126.131 152.146 126.129 153.448V177.188V249.882C126.128 250.339 126.229 250.789 126.424 251.202C126.619 251.615 126.903 251.979 127.256 252.268L127.675 252.557L132.544 255.94L134.725 251.718L133.05 251.227L262.49 175.641V77.1537L265.336 76.5754Z" fill="black"/>
<path d="M162.798 158.942C172.565 154.157 185.554 156.643 191.81 165.867C194.483 169.814 195.985 174.875 200.06 177.347C201.737 178.238 203.603 178.717 205.502 178.745C207.401 178.773 209.279 178.348 210.982 177.506C221.472 172.793 225.04 160.937 229.013 151.178C233.478 140.205 239.488 126.788 250.267 120.817C255.736 118.274 261.358 116.073 267.099 114.224V80.4067C267.098 79.5163 266.862 78.6418 266.415 77.8721C265.967 77.1025 265.324 76.465 264.551 76.0245C263.777 75.584 262.901 75.3561 262.012 75.3639C261.122 75.3718 260.25 75.6152 259.484 76.0694L134.35 150.253C133.229 150.915 132.3 151.858 131.654 152.989C131.008 154.119 130.668 155.399 130.666 156.701V180.441V218.581C133.274 206.573 137.219 194.895 142.426 183.766C146.804 174.195 152.988 163.742 162.798 158.942Z" fill="#0B5E8A"/>
<path d="M267.113 178.865V114.18C261.372 116.029 255.75 118.231 250.281 120.773C239.488 126.773 233.477 140.19 229.027 151.135C225.054 160.908 221.486 172.749 210.996 177.463C209.293 178.305 207.415 178.729 205.516 178.702C203.617 178.674 201.751 178.195 200.074 177.304C195.999 174.846 194.497 169.771 191.824 165.824C185.582 156.6 172.579 154.113 162.812 158.899C153.045 163.684 146.804 174.195 142.411 183.766C137.204 194.895 133.259 206.573 130.651 218.581V253.135C130.653 253.688 130.8 254.23 131.077 254.707C131.354 255.185 131.752 255.581 132.23 255.856C132.709 256.132 133.251 256.276 133.803 256.276C134.355 256.275 134.897 256.13 135.375 255.853L267.113 178.865Z" fill="white"/>
<path d="M215.826 145.452C217.6 138.587 215.725 132.165 211.639 131.107C207.552 130.049 202.801 134.757 201.027 141.622C199.253 148.487 201.127 154.909 205.214 155.966C209.301 157.024 214.052 152.316 215.826 145.452Z" fill="#5BAA83"/>
<path d="M279.206 98.161L154.071 172.345C152.951 173.007 152.022 173.95 151.376 175.08C150.73 176.211 150.389 177.49 150.387 178.793V202.533V275.227C150.386 275.683 150.487 276.134 150.682 276.547C150.877 276.959 151.161 277.323 151.514 277.613V277.613L151.933 277.902L156.802 281.285L158.984 277.063L157.308 276.572L286.806 200.884V102.498C286.804 101.61 286.567 100.738 286.12 99.9704C285.674 99.2028 285.032 98.5668 284.261 98.1267C283.49 97.6866 282.617 97.458 281.729 97.464C280.841 97.4701 279.971 97.7105 279.206 98.161V98.161Z" fill="white"/>
<path d="M284.855 98.508L289.666 101.92L283.829 103.077" fill="#006DA8"/>
<path opacity="0.5" d="M279.206 98.161L154.071 172.345C152.951 173.007 152.022 173.95 151.376 175.08C150.73 176.211 150.389 177.49 150.387 178.793V202.533V275.227C150.386 275.683 150.487 276.134 150.682 276.547C150.877 276.959 151.161 277.323 151.514 277.613V277.613L151.933 277.902L156.802 281.285L158.984 277.063L157.308 276.572L286.806 200.884V102.498C286.804 101.61 286.567 100.738 286.12 99.9704C285.674 99.2028 285.032 98.5668 284.261 98.1267C283.49 97.6866 282.617 97.458 281.729 97.464C280.841 97.4701 279.971 97.7105 279.206 98.161V98.161Z" fill="black"/>
<path d="M187.129 184.316C196.895 179.53 209.884 182.017 216.14 191.241C218.813 195.188 220.316 200.248 224.39 202.721C226.068 203.612 227.933 204.091 229.832 204.119C231.731 204.146 233.61 203.722 235.313 202.88C245.802 198.166 249.371 186.311 253.344 176.552C257.808 165.578 263.819 152.161 274.597 146.19C280.064 143.614 285.686 141.378 291.429 139.496V105.766C291.429 104.875 291.193 104.001 290.745 103.231C290.298 102.462 289.655 101.824 288.881 101.384C288.108 100.943 287.232 100.715 286.342 100.723C285.452 100.731 284.58 100.974 283.815 101.428L158.695 175.641C157.574 176.303 156.645 177.246 155.999 178.377C155.353 179.507 155.013 180.787 155.01 182.089V205.829V243.969C157.589 231.955 161.505 220.267 166.685 209.125C171.135 199.554 177.318 189.101 187.129 184.316Z" fill="#0B5E8A"/>
<path d="M291.429 204.21V139.496C285.688 141.345 280.067 143.547 274.597 146.089C263.804 152.089 257.794 165.506 253.344 176.451C249.371 186.224 245.802 198.065 235.313 202.778C233.61 203.621 231.731 204.045 229.832 204.018C227.933 203.99 226.068 203.511 224.39 202.619C220.316 200.162 218.813 195.087 216.14 191.14C209.899 181.916 196.895 179.429 187.129 184.214C177.362 189 171.135 199.554 166.685 209.125C161.477 220.254 157.532 231.932 154.924 243.94V278.494C154.926 279.047 155.073 279.589 155.35 280.066C155.627 280.544 156.025 280.94 156.504 281.215C156.982 281.491 157.524 281.635 158.076 281.635C158.628 281.634 159.17 281.489 159.648 281.213L291.429 204.21Z" fill="white"/>
<path d="M240.15 170.808C241.924 163.943 240.049 157.521 235.962 156.463C231.876 155.405 227.125 160.113 225.351 166.978C223.576 173.842 225.451 180.265 229.538 181.322C233.624 182.38 238.376 177.672 240.15 170.808Z" fill="#5BAA83"/>
<path d="M320.816 109.366L195.682 183.549C194.561 184.212 193.632 185.155 192.986 186.285C192.34 187.416 191.999 188.695 191.997 189.998V213.738V286.432C191.997 286.888 192.098 287.339 192.293 287.752C192.487 288.164 192.772 288.528 193.124 288.817L193.543 289.107L198.412 292.49L200.594 288.268L198.918 287.777L328.416 212.089V113.703C328.414 112.815 328.178 111.943 327.731 111.175C327.284 110.408 326.643 109.772 325.872 109.332C325.101 108.892 324.227 108.663 323.339 108.669C322.452 108.675 321.581 108.915 320.816 109.366V109.366Z" fill="white"/>
<path d="M326.451 109.698L331.262 113.125L325.44 114.267" fill="#006DA8"/>
<path opacity="0.5" d="M320.816 109.366L195.682 183.549C194.561 184.212 193.632 185.155 192.986 186.285C192.34 187.416 191.999 188.695 191.997 189.998V213.738V286.432C191.997 286.888 192.098 287.339 192.293 287.752C192.487 288.164 192.772 288.528 193.124 288.817L193.543 289.107L198.412 292.49L200.594 288.268L198.918 287.777L328.416 212.089V113.703C328.414 112.815 328.178 111.943 327.731 111.175C327.284 110.408 326.643 109.772 325.872 109.332C325.101 108.892 324.227 108.663 323.339 108.669C322.452 108.675 321.581 108.915 320.816 109.366V109.366Z" fill="black"/>
<path d="M228.725 195.492C238.491 190.706 251.48 193.193 257.736 202.417C260.409 206.364 261.912 211.424 265.986 213.897C267.664 214.788 269.529 215.267 271.428 215.295C273.327 215.322 275.206 214.898 276.909 214.056C287.398 209.342 290.967 197.487 294.94 187.728C299.404 176.754 305.415 163.337 316.193 157.366C321.663 154.824 327.284 152.622 333.025 150.773V116.956C333.025 116.066 332.789 115.191 332.341 114.422C331.894 113.652 331.251 113.015 330.477 112.574C329.704 112.134 328.828 111.906 327.938 111.914C327.048 111.921 326.176 112.165 325.411 112.619L200.276 186.802C199.156 187.465 198.227 188.408 197.581 189.538C196.935 190.669 196.594 191.948 196.592 193.251V216.991V255.159C199.2 243.151 203.145 231.474 208.353 220.345C212.731 210.745 218.914 200.292 228.725 195.492Z" fill="#0B5E8A"/>
<path d="M333.04 215.4V150.73C327.299 152.579 321.677 154.781 316.208 157.323C305.415 163.323 299.404 176.74 294.954 187.684C290.981 197.458 287.413 209.299 276.923 214.012C275.22 214.854 273.342 215.279 271.443 215.251C269.544 215.224 267.678 214.744 266.001 213.853C261.926 211.395 260.424 206.321 257.751 202.374C251.509 193.15 238.506 190.663 228.739 195.448C218.972 200.234 212.745 210.701 208.353 220.273C203.135 231.424 199.185 243.126 196.578 255.159V289.714C196.58 290.266 196.727 290.808 197.004 291.286C197.281 291.763 197.679 292.16 198.157 292.435C198.636 292.71 199.178 292.855 199.73 292.854C200.282 292.854 200.824 292.708 201.302 292.432L333.04 215.4Z" fill="white"/>
<path d="M281.752 181.991C283.526 175.127 281.651 168.704 277.565 167.647C273.478 166.589 268.727 171.297 266.953 178.161C265.179 185.026 267.053 191.448 271.14 192.506C275.227 193.564 279.978 188.856 281.752 181.991Z" fill="#5BAA83"/>
<path d="M348.167 299.083L317.898 320.249L287.008 295.511L310.862 275.429L348.167 299.083Z" fill="url(#paint1_linear)"/>
<path d="M231.383 203.111C230.648 203.547 230.04 204.167 229.617 204.91C229.194 205.652 228.971 206.492 228.97 207.347V232.547V310.721L365.432 230.957V123.593L231.383 203.111Z" fill="#FF8C79"/>
<path d="M388.506 223.641V275.776L348.167 299.083L315.297 279.536V231.102" fill="#FFAF68"/>
<path d="M348.167 299.083V247.656L315.297 233.082V279.535L348.167 299.083Z" fill="#F49E5D"/>
<path d="M315.297 228.383V233.082L318.418 234.036L320.499 230.856" fill="#EA8E50"/>
<path d="M355.29 208.634L388.52 228.326L346.967 252.268C345.739 252.976 315.297 233.01 315.297 233.01L355.29 208.634Z" fill="#EA8E50"/>
<path d="M388.506 228.34V223.641L382.539 220.677L383.261 229.005" fill="#EA8E50"/>
<path d="M355.29 203.95L388.52 223.641L346.967 247.641C345.739 248.35 315.297 228.383 315.297 228.383L355.29 203.95Z" fill="#FFB883"/>
<path d="M382.712 238.345V249.145L352.486 266.393V255.81L382.712 238.345Z" fill="#EA8E50"/>
<path d="M383.116 254.465V265.266L352.891 282.514V271.931L383.116 254.465Z" fill="#EA8E50"/>
<path d="M370.317 251.955C370.418 250.898 369.894 249.983 369.148 249.912C368.401 249.841 367.714 250.64 367.613 251.697C367.512 252.754 368.036 253.669 368.783 253.74C369.529 253.812 370.216 253.012 370.317 251.955Z" fill="#FFB883"/>
<path d="M371.55 267.519C371.651 266.462 371.127 265.547 370.38 265.476C369.634 265.404 368.947 266.204 368.846 267.261C368.745 268.318 369.269 269.233 370.015 269.304C370.762 269.375 371.449 268.576 371.55 267.519Z" fill="#FFB883"/>
<path d="M324.515 252.962L269.41 221.718L249.501 234.224L274.409 259.367L306.369 273.868" fill="white"/>
<path opacity="0.5" d="M324.515 252.962L269.41 221.718L249.501 234.224L274.409 259.367L306.369 273.868" fill="white"/>
<path d="M302.699 265.497L249.501 234.224V242.147V246.08V299.603L302.699 329.227V328.967L303.161 329.227L324.515 316.215V264.152V252.962L302.699 265.497Z" fill="white"/>
<path d="M306.513 270.239V297.593L321.929 288.528V261.478L306.513 270.239Z" fill="#FFECB3"/>
<path opacity="0.2" d="M302.699 265.497V329.227L249.501 299.603V234.224L302.699 265.497Z" fill="black"/>
<path d="M318.801 305.628C319.449 302.852 318.442 300.244 316.554 299.803C314.666 299.363 312.61 301.256 311.963 304.032C311.316 306.808 312.322 309.416 314.211 309.856C316.099 310.297 318.154 308.404 318.801 305.628Z" fill="#FFECB3"/>
<path d="M346.621 199.496C346.621 199.496 341.203 224.379 341.622 225.81C342.676 229.468 357.76 231.593 362.21 225.81L356.734 199.496H346.621Z" fill="#A93032"/>
<path d="M351.562 202.75C354.442 202.75 356.777 201.436 356.777 199.815C356.777 198.194 354.442 196.88 351.562 196.88C348.681 196.88 346.346 198.194 346.346 199.815C346.346 201.436 348.681 202.75 351.562 202.75Z" fill="#934600"/>
<path d="M362.051 148.388C362.051 148.388 351.937 142.98 345.797 154.171C339.657 165.361 348.687 170.74 358.728 171.145C368.769 171.549 370.547 152.161 362.051 148.388Z" fill="#5BAA83"/>
<path d="M360.115 148.388C351.837 163.728 350.565 181.424 349.857 198.513C349.857 199.41 351.215 199.41 351.302 198.513C351.995 181.684 353.209 164.205 361.416 149.096C361.733 148.301 360.534 147.593 360.115 148.388Z" fill="#1A892D"/>
<path d="M366.067 176.986C366.067 176.986 352.082 176.422 353.7 185.747C355.318 195.072 367.238 193.193 369 188.161C370.763 183.13 366.067 176.986 366.067 176.986Z" fill="#5BAA83"/>
<path d="M365.836 177.463C360.404 184.629 356.196 192.646 353.382 201.188C353.342 201.32 353.356 201.463 353.421 201.585C353.486 201.707 353.597 201.798 353.729 201.839C353.861 201.879 354.004 201.865 354.126 201.8C354.248 201.735 354.339 201.624 354.379 201.492C357.167 193.037 361.337 185.103 366.718 178.012C367.122 177.492 366.241 176.928 365.836 177.463Z" fill="#1A892D"/>
<path d="M335.582 169.757C335.582 169.757 328.069 181.569 336.94 184.851C345.811 188.133 350.175 176.87 346.722 172.822C343.269 168.773 335.582 169.757 335.582 169.757Z" fill="#5BAA83"/>
<path d="M350.55 200.118C346.649 189.271 341.775 178.799 335.987 168.831C335.918 168.71 335.804 168.622 335.669 168.585C335.535 168.549 335.392 168.567 335.271 168.636C335.151 168.705 335.062 168.819 335.026 168.953C334.989 169.088 335.007 169.231 335.076 169.352C340.818 179.237 345.654 189.621 349.524 200.378C349.756 201 350.767 200.754 350.55 200.118Z" fill="#1A892D"/>
<path d="M325.396 113.472C325.169 113.35 324.917 113.28 324.659 113.267C324.402 113.255 324.144 113.3 323.906 113.4C323.668 113.499 323.455 113.651 323.283 113.844C323.111 114.036 322.984 114.265 322.911 114.513C322.752 115.048 322.565 115.583 322.377 116.118C321.957 116.314 321.63 116.667 321.467 117.101C321.25 117.65 321.033 118.185 320.802 118.72L320.658 118.474C321.322 116.927 319.314 115.236 317.999 116.364C317.832 116.299 317.657 116.255 317.479 116.233C318.317 115.684 319.145 115.12 319.964 114.542C321.784 113.241 320.036 110.204 318.201 111.52C313.405 114.932 307.51 117.101 303.753 121.944C303.204 122.653 300.3 126.137 300.661 127.019C300.785 127.322 300.982 127.591 301.234 127.8C301.486 128.009 301.785 128.153 302.106 128.219C304.635 128.566 305.848 125.776 307.784 124.156C306.513 127.438 304.187 130.214 303.753 133.872C303.746 134.117 303.793 134.361 303.89 134.585C303.988 134.81 304.133 135.011 304.316 135.174C304.499 135.336 304.716 135.457 304.951 135.527C305.185 135.597 305.433 135.614 305.675 135.578L305.299 136.373C304.317 138.397 307.336 140.161 308.319 138.137L308.926 136.865C309.039 137.131 309.213 137.367 309.433 137.553C309.654 137.74 309.915 137.872 310.196 137.94C310.477 138.007 310.77 138.008 311.051 137.942C311.332 137.876 311.594 137.745 311.815 137.559C312.348 137.106 312.854 136.623 313.332 136.113C313.489 136.275 313.676 136.404 313.883 136.492C314.091 136.581 314.314 136.626 314.539 136.626C314.764 136.626 314.987 136.581 315.194 136.492C315.401 136.404 315.589 136.275 315.745 136.113C319.01 132.947 320.369 128.609 322.492 124.72C324.688 121.977 326.541 118.977 328.012 115.785C328.922 113.862 326.538 112.243 325.396 113.472Z" fill="#FFB9AD"/>
<path d="M309.157 127.727L305.386 135.159C305.083 135.766 305.993 136.287 306.296 135.694L309.995 128.291C310.356 127.655 309.446 127.12 309.157 127.727Z" fill="#0D0D0D"/>
<path d="M311.959 130.446C310.996 132.691 309.975 134.913 308.896 137.111C308.608 137.718 309.503 138.253 309.807 137.646C310.876 135.448 311.897 133.226 312.87 130.981C313.115 130.373 312.22 129.838 311.959 130.446Z" fill="#0D0D0D"/>
<path d="M315.5 129.376L312.61 136.084C312.35 136.691 313.246 137.226 313.52 136.619L316.41 129.911C316.699 129.376 315.803 128.812 315.5 129.376Z" fill="#0D0D0D"/>
<path d="M332.62 72.397C332.62 72.397 320.137 99.202 308.507 107.689C308.507 107.689 318.447 131.313 330.338 125.342C334.672 123.202 355.102 104.638 360.101 90.0212" fill="#A93032"/>
<path d="M265.249 102.961C263.522 104.485 261.914 106.138 260.438 107.906C259.369 109.192 257.823 110.638 258.112 112.431C258.198 112.966 259.022 112.749 258.935 112.2C258.661 110.537 261.131 108.354 262.172 107.197C263.331 105.919 264.561 104.708 265.856 103.568C266.26 103.207 265.654 102.6 265.249 102.961Z" fill="#0D0D0D"/>
<path d="M289.493 89.3706C289.471 88.9739 289.316 88.596 289.055 88.2972C288.793 87.9985 288.438 87.7961 288.048 87.7224L288.828 87.2309C289.18 86.9943 289.431 86.6353 289.533 86.2237C289.634 85.8121 289.579 85.3774 289.377 85.0043C281.171 89.8766 272.502 93.9827 264.281 98.8261C261.949 100.495 259.729 102.316 257.635 104.277C256.392 105.448 257.794 107.804 259.383 106.85C260.722 106.05 262.051 105.236 263.371 104.407C262.258 105.766 261.175 107.139 260.12 108.542C259.253 109.698 257.375 112.995 259.455 112.749C260.25 112.344 262.562 110.624 263.79 109.857L264.223 109.583L263.862 109.829C264.166 109.67 265.307 108.961 265.307 109.004C266.261 108.484 267.2 107.935 268.197 107.385C268.21 107.457 268.245 107.523 268.296 107.575C268.348 107.626 268.414 107.661 268.486 107.674H268.731C268.713 107.737 268.71 107.803 268.722 107.867C268.734 107.931 268.761 107.991 268.8 108.043C268.839 108.095 268.89 108.137 268.948 108.166C269.006 108.195 269.071 108.21 269.136 108.209C269.635 108.164 270.123 108.037 270.58 107.833C271.138 107.614 271.634 107.262 272.025 106.807C272.055 106.772 272.08 106.733 272.098 106.691C272.338 106.41 272.542 106.099 272.704 105.766C272.734 105.708 272.749 105.643 272.749 105.578C272.749 105.513 272.734 105.448 272.704 105.39L272.964 105.029C273.326 104.667 273.643 104.291 273.99 103.915L278.397 101.197L278.989 100.951L282.327 99.8381C282.42 99.7946 282.494 99.7195 282.537 99.626C282.58 99.5326 282.588 99.4269 282.561 99.3279C282.533 99.2289 282.471 99.143 282.386 99.0855C282.301 99.028 282.198 99.0027 282.096 99.014L281.821 99.1008L282.717 98.5369L284.162 97.4381C286.608 95.758 288.878 93.835 290.938 91.6984C291.935 90.5562 290.736 89.3128 289.493 89.3706Z" fill="#FFB9AD"/>
<path d="M283.584 98.7972C281.821 100.155 279.752 101.058 277.559 101.429C276.837 101.544 275.464 101.356 274.814 101.804C274.458 102.123 274.207 102.541 274.091 103.004C273.71 103.983 273.226 104.919 272.647 105.795C272.04 106.662 270.523 108.282 269.28 108.007C267.546 107.617 270.234 102.325 270.725 101.486C270.762 101.391 270.763 101.285 270.729 101.188C270.695 101.091 270.628 101.01 270.54 100.958C270.452 100.906 270.348 100.887 270.247 100.904C270.146 100.921 270.054 100.974 269.988 101.053C269.33 102.207 268.797 103.428 268.399 104.696C267.957 105.71 267.764 106.816 267.835 107.92C268.269 109.713 270.927 108.571 271.838 107.92C272.685 107.257 273.38 106.418 273.875 105.462C274.178 104.898 274.38 104.291 274.684 103.727C274.813 103.39 275.027 103.091 275.305 102.86C275.811 102.397 276.071 102.47 276.75 102.412C279.405 102.154 281.934 101.152 284.046 99.5201C284.451 99.2021 284.017 98.4647 283.584 98.7972Z" fill="#0D0D0D"/>
<path d="M309.937 44.262C309.937 44.262 301.499 65.7609 295.923 70.6332C290.346 75.5055 272.589 87.3465 272.589 87.3465C272.589 87.3465 272.43 101.457 287.037 103.829C287.037 103.829 316.916 86.9128 323.518 82.1417" fill="#A93032"/>
<path d="M312.118 67.8283L310.211 92.0453C310.139 92.9706 311.584 92.9706 311.656 92.0453L313.563 67.8283C313.636 66.903 312.191 66.903 312.118 67.8283Z" fill="#01293D"/>
<defs>
<linearGradient id="paint0_linear" x1="209.248" y1="241.974" x2="160.857" y2="320.248" gradientUnits="userSpaceOnUse">
<stop stop-color="#8DB9CF"/>
<stop offset="1" stop-color="#D1E3EC"/>
</linearGradient>
<linearGradient id="paint1_linear" x1="15516.1" y1="9593.41" x2="15080" y2="10556.5" gradientUnits="userSpaceOnUse">
<stop stop-color="#8DB9CF"/>
<stop offset="1" stop-color="#D1E3EC"/>
</linearGradient>
</defs>
</svg>
