<svg width="525" height="416" viewBox="0 0 525 416" fill="none" xmlns="http://www.w3.org/2000/svg">
<path d="M0 268.282C3.66317 266.163 254.615 416.912 256.948 415.565L525 261.942L265.769 114.905L0 268.282Z" fill="#D1E3EC"/>
<path opacity="0.32" d="M309.3 234.082C318.68 229.039 342.269 215.519 351.583 210.361L237.17 145.344L194.887 167.964C204.694 173.105 295.731 225.671 309.3 234.082Z" fill="url(#paint0_linear)"/>
<path opacity="0.32" d="M164.169 267.198C173.549 262.155 206.37 241.392 215.684 236.217L149.632 212.497L107.415 235.034C117.222 240.242 150.601 258.804 164.169 267.198Z" fill="url(#paint1_linear)"/>
<path opacity="0.32" d="M73.789 309.119C83.1687 304.076 115.989 283.313 125.303 278.138L59.2842 254.402L17.0181 277.021C26.8249 282.163 60.2205 300.742 73.789 309.119Z" fill="url(#paint2_linear)"/>
<path opacity="0.32" d="M231.683 398.777C247.043 390.563 300.857 356.461 316.117 347.985L207.947 309.119L138.626 346.194C154.708 354.605 209.442 385.011 231.683 398.777Z" fill="url(#paint3_linear)"/>
<path opacity="0.32" d="M419.983 251.133C411.77 256.209 392.058 264.537 384.288 269.202C392.239 273.588 406.76 284.988 412.214 288.339C417.503 285.481 443.654 279.042 450.833 258.508L419.983 251.133Z" fill="url(#paint4_linear)"/>
<path d="M138.626 143.57V228.546C138.626 228.546 220.3 233.08 220.3 228.546V143.57" fill="#339967"/>
<path d="M179.463 246.467C202.016 246.467 220.3 238.12 220.3 227.823C220.3 217.526 202.016 209.179 179.463 209.179C156.909 209.179 138.626 217.526 138.626 227.823C138.626 238.12 156.909 246.467 179.463 246.467Z" fill="#339967"/>
<path d="M179.463 162.214C202.016 162.214 220.3 153.867 220.3 143.57C220.3 133.273 202.016 124.926 179.463 124.926C156.909 124.926 138.626 133.273 138.626 143.57C138.626 153.867 156.909 162.214 179.463 162.214Z" fill="#3129A3"/>
<path d="M154.017 158.075L154.297 158.223C155.939 158.765 157.451 159.258 159.061 159.668L147.989 66.6106C147.989 66.6106 145.673 65.3293 142.305 67.6619L153.673 157.829L154.017 158.075Z" fill="#F78B72"/>
<path d="M166.699 160.966L170.165 73.6248C170.165 73.6248 168.079 71.9821 164.383 73.7727L161.557 160.243C163.256 160.581 164.973 160.823 166.699 160.966V160.966Z" fill="#F78B72"/>
<path d="M179.463 162.231L190.699 71.1608L213.433 83.1688L204.234 159.668C196.199 162.008 187.807 162.876 179.463 162.231V162.231Z" fill="#FCB749"/>
<path d="M225.228 24.7387V154.839L262.681 176.259L304.963 151.291V21.1741" fill="#FF734D"/>
<path d="M225.228 24.7387L268.676 0L304.963 21.1741L262.681 46.1593L225.228 24.7387Z" fill="#FFB5A4"/>
<path d="M262.681 46.1593V176.259L304.963 151.291V21.1741L262.681 46.1593Z" fill="#F78B72"/>
<path d="M306.13 48.804L262.681 73.5427V176.571L300.117 197.992L342.4 173.007V69.9781L306.13 48.804Z" fill="#339967"/>
<path opacity="0.49" d="M262.681 73.5427L306.13 48.804L342.4 69.9781L300.117 94.9632L262.681 73.5427Z" fill="white"/>
<path opacity="0.2" d="M300.117 94.9632V197.992L342.4 173.007V69.9781L300.117 94.9632Z" fill="black"/>
<path d="M300.117 150.601V198.616L337.571 220.037L379.837 195.052V147.053" fill="#FFAD4A"/>
<path d="M300.117 150.601L343.566 125.862L379.837 147.053L337.571 172.021L300.117 150.601Z" fill="#FFDD99"/>
<path d="M337.57 172.021V220.037L379.836 195.052V147.053L337.57 172.021Z" fill="#FFC36C"/>
<path d="M162.264 325.825L315.279 238.024C316.911 237.078 318.764 236.58 320.651 236.58C322.537 236.58 324.39 237.078 326.022 238.024L407.68 285.793C408.631 286.349 409.419 287.144 409.968 288.1C410.516 289.055 410.804 290.137 410.804 291.239C410.804 292.34 410.516 293.422 409.968 294.378C409.419 295.333 408.631 296.128 407.68 296.684L256.291 384.272C254.112 385.529 251.638 386.182 249.123 386.165C246.608 386.148 244.144 385.46 241.983 384.173L162.215 336.634C161.285 336.069 160.518 335.273 159.987 334.323C159.456 333.374 159.179 332.303 159.184 331.216C159.189 330.128 159.475 329.06 160.015 328.115C160.555 327.171 161.329 326.382 162.264 325.825Z" fill="#C40A0A"/>
<path d="M162.264 318.91L315.279 231.108C316.911 230.162 318.764 229.664 320.651 229.664C322.537 229.664 324.39 230.162 326.022 231.108L407.68 278.878C408.631 279.433 409.419 280.229 409.968 281.184C410.516 282.139 410.804 283.222 410.804 284.323C410.804 285.424 410.516 286.507 409.968 287.462C409.419 288.417 408.631 289.213 407.68 289.769L256.291 377.356C254.112 378.613 251.638 379.267 249.123 379.25C246.608 379.232 244.144 378.545 241.983 377.258L162.215 329.718C161.285 329.153 160.518 328.357 159.987 327.408C159.456 326.458 159.179 325.388 159.184 324.3C159.189 323.212 159.475 322.144 160.015 321.2C160.555 320.255 161.329 319.466 162.264 318.91Z" fill="#FFDDDC"/>
<path d="M311.55 242.081C312.388 242.361 389.693 287.452 389.693 287.452L260.594 363.015L182.6 317.99L311.55 242.081Z" fill="white"/>
<path d="M227.265 355.919C227.505 355.779 227.714 355.59 227.878 355.365C228.041 355.139 228.155 354.881 228.212 354.609C228.269 354.336 228.269 354.055 228.21 353.782C228.152 353.51 228.037 353.253 227.872 353.028C226.78 351.883 225.51 350.924 224.111 350.186C222.796 349.365 221.417 348.642 220.07 347.854L209.671 341.809L201.146 336.88C200.586 336.535 199.957 336.319 199.303 336.248C198.65 336.177 197.988 336.253 197.368 336.47C196.48 336.773 195.71 337.347 195.167 338.112C195.033 338.335 194.948 338.584 194.918 338.842C194.888 339.1 194.914 339.361 194.993 339.608C195.073 339.856 195.204 340.083 195.378 340.276C195.553 340.468 195.766 340.621 196.004 340.724L211.725 349.825L218.493 353.751L222.419 356.051C223.017 356.407 223.686 356.627 224.379 356.695C225.071 356.764 225.771 356.678 226.427 356.445C226.73 356.311 227.012 356.134 227.265 355.919V355.919Z" fill="#C40A0A"/>
<path d="M188.415 334.663C189.921 334.663 191.142 333.655 191.142 332.412C191.142 331.169 189.921 330.162 188.415 330.162C186.909 330.162 185.688 331.169 185.688 332.412C185.688 333.655 186.909 334.663 188.415 334.663Z" fill="#C40A0A"/>
<path d="M440.386 243.856C440.386 243.856 440.583 253.942 439.384 254.566C438.185 255.19 430.563 265.112 430.037 266.672C428.279 271.847 437.84 274.13 441.273 272.372C444.706 270.615 450.455 260.874 450.85 258.459C451.244 256.044 454.135 240.915 454.135 240.915" fill="#663A12"/>
<path d="M425.979 235.034C425.979 235.034 426.176 245.12 424.977 245.745C423.778 246.369 411.326 253.745 410.702 255.256C408.715 260.069 418.406 261.827 421.84 260.184C425.273 258.541 436.049 252.135 436.459 249.671C436.87 247.207 439.745 232.127 439.745 232.127" fill="#663A12"/>
<path d="M464.73 137.886C464.73 137.886 471.958 149.221 470.989 159.389C470.02 169.557 459.851 250.443 453.313 249.621C446.776 248.8 442.866 249.736 439.449 241.178C439.449 241.178 428.476 243.675 424.977 234.952C424.977 234.952 427.622 159.077 433.864 147.168C440.106 135.258 464.73 137.886 464.73 137.886Z" fill="#963626"/>
<path d="M371.147 108.17C372.969 107.713 374.826 107.406 376.699 107.25C374.796 107.268 372.899 107.46 371.032 107.825C369.077 108.138 368.847 105.082 370.802 104.754L371.771 104.606C371.605 104.383 371.497 104.122 371.46 103.846C371.422 103.571 371.454 103.29 371.555 103.031C371.655 102.772 371.819 102.542 372.032 102.364C372.245 102.185 372.5 102.063 372.773 102.01C377.046 101.487 381.381 101.884 385.487 103.177C385.373 101.622 385.4 100.061 385.569 98.5114C385.6 98.2451 385.709 97.9936 385.882 97.7887C386.041 97.4974 386.285 97.2614 386.582 97.1118C386.878 96.9621 387.213 96.9057 387.542 96.9502C387.871 96.9947 388.179 97.1379 388.425 97.3609C388.671 97.5839 388.844 97.8762 388.921 98.1993C389.348 100.663 389.216 103.127 389.643 105.624C389.723 106.064 389.832 106.497 389.972 106.922C391.866 108.893 393.734 110.886 395.573 112.901C396.871 114.33 394.489 116.022 393.159 114.758C392.958 115.059 392.672 115.294 392.337 115.431L392.567 115.727C392.714 115.922 392.807 116.152 392.836 116.394C392.865 116.637 392.829 116.883 392.731 117.107L392.945 117.32C394.358 118.7 392.387 121.065 390.974 119.669L390.481 119.176C390.334 119.276 390.167 119.343 389.991 119.373C389.816 119.402 389.636 119.393 389.464 119.346C389.292 119.299 389.133 119.216 388.996 119.101C388.86 118.987 388.75 118.844 388.674 118.684C387.481 116.749 385.849 115.123 383.91 113.936L383.303 113.526C381.631 112.958 379.89 112.621 378.128 112.523C376.814 112.852 375.516 113.246 374.235 113.657C373.865 113.803 373.452 113.799 373.085 113.646C372.718 113.492 372.425 113.202 372.269 112.836C372.113 112.47 372.105 112.057 372.249 111.686C372.392 111.315 372.674 111.014 373.036 110.848L372.198 111.029C370.276 111.538 369.225 108.647 371.147 108.17Z" fill="#FFC388"/>
<path d="M371.508 104.195C373.532 103.919 375.578 103.825 377.619 103.916C378.112 103.916 378.177 104.721 377.619 104.704C375.578 104.614 373.532 104.707 371.508 104.984C371.081 105.049 371.015 104.261 371.508 104.195Z" fill="#663A12"/>
<path d="M371.229 107.316C373.404 106.992 375.601 106.838 377.8 106.856C378.292 106.856 378.358 107.645 377.8 107.645C375.601 107.626 373.404 107.78 371.229 108.105C370.785 108.17 370.736 107.382 371.229 107.316Z" fill="#663A12"/>
<path d="M379.886 108.335C381.087 107.992 382.351 107.936 383.577 108.17C384.804 108.404 385.959 108.921 386.949 109.682C387.376 109.961 386.867 110.552 386.44 110.289C385.557 109.614 384.528 109.154 383.436 108.945C382.344 108.737 381.218 108.787 380.149 109.09C380.048 109.125 379.938 109.119 379.843 109.073C379.747 109.026 379.674 108.944 379.639 108.844C379.605 108.744 379.611 108.634 379.657 108.538C379.703 108.443 379.786 108.369 379.886 108.335V108.335Z" fill="#663A12"/>
<path d="M378.637 108.154C378.741 107.26 379.064 106.406 379.577 105.667C380.09 104.927 380.777 104.326 381.578 103.916C382.038 103.719 382.301 104.458 381.841 104.655C381.165 105.016 380.589 105.538 380.163 106.174C379.736 106.809 379.472 107.54 379.393 108.302C379.311 108.795 378.539 108.647 378.637 108.154Z" fill="#663A12"/>
<path d="M372.346 110.191C373.939 109.475 375.636 109.015 377.372 108.827C377.882 108.827 377.931 109.55 377.372 109.616C375.703 109.797 374.074 110.241 372.543 110.93C372.149 111.111 371.886 110.372 372.346 110.191Z" fill="#663A12"/>
<path d="M405.89 104.113L402.276 126.174C402.276 126.174 405.019 134.388 410.933 135.455C416.846 136.523 421.265 109.074 421.265 109.074" fill="#FCB749"/>
<path d="M423.368 92.3021C427.94 92.7034 432.446 93.6577 436.788 95.144C442.653 97.0495 467.999 134.19 464.714 137.854C461.428 141.517 445.675 148.975 436.263 146.921C426.85 144.868 404.871 108.269 405.889 104.113C408.255 94.569 415.631 94.5362 415.631 94.5362" fill="#FCB749"/>
<path d="M406.629 82.4953C406.629 82.4953 404.986 96.4909 409.914 98.9221C414.842 101.353 420.476 96.1953 422.103 93.1563C423.729 90.1173 425.388 74.7255 415.959 75.7603C406.53 76.7952 406.629 82.4953 406.629 82.4953Z" fill="#FFC388"/>
<path d="M406.333 73.2634C410.193 71.9164 414.678 69.0089 421.561 73.5591C428.443 78.1093 430.53 90.7251 422.316 93.7641L420.756 89.2138C421.484 88.2819 421.825 87.1054 421.708 85.9285C421.69 85.5454 421.589 85.1708 421.412 84.8304C421.236 84.4899 420.988 84.1917 420.685 83.9561C420.382 83.7205 420.032 83.5532 419.659 83.4655C419.285 83.3778 418.898 83.3718 418.522 83.448C417.667 82.8093 416.97 81.9833 416.485 81.0333C415.088 78.2736 413.528 79.637 411.557 82.0846C409.585 84.5322 405.183 85.2714 403.015 83.7273C400.846 82.1832 401.438 74.9718 406.333 73.2634Z" fill="#663A12"/>
<path d="M391.746 107.316C396.811 110.924 401.67 114.812 406.3 118.963L413.413 134.273C413.413 134.273 409.241 140.153 401.471 136.014C395.951 133.073 387.245 122.363 383.073 115.973C383.869 114.025 385.047 112.256 386.536 110.77C388.026 109.283 389.797 108.109 391.746 107.316V107.316Z" fill="#FCB749"/>
<path d="M444.131 161.377C444.23 160.325 445.872 160.325 445.774 161.377L438.3 241.079C438.201 242.131 436.558 242.131 436.657 241.079L444.131 161.377Z" fill="#663A12"/>
<path d="M418.817 133.188C418.817 133.188 427.031 126.388 427.031 123.332C427.031 120.277 422.776 98.5278 429.807 96.803C436.837 95.0782 442.537 111.587 444.591 121.262C446.644 130.938 423.548 148.876 423.548 148.876" fill="#FCB749"/>
<path d="M388.428 55.9825C383.664 52.5493 376.469 53.0749 371.705 56.4917L386.358 221.893L402.998 220.415L388.428 55.9825Z" fill="#963626"/>
<path d="M395.004 224.67C399.595 224.263 403.177 222.358 403.005 220.415C402.832 218.472 398.971 217.227 394.38 217.634C389.79 218.042 386.208 219.947 386.38 221.89C386.553 223.833 390.414 225.078 395.004 224.67Z" fill="#963626"/>
<path d="M403.08 221.433C403.08 221.433 401.191 217.392 394.571 218.279C387.951 219.166 386.358 222.189 386.358 222.189L396.477 253.547L403.08 221.433Z" fill="#FFD8BD"/>
<path d="M396.526 253.547L399.565 238.632C398.4 237.868 397.005 237.534 395.62 237.687C394.235 237.839 392.947 238.47 391.976 239.47L396.526 253.547Z" fill="#653200"/>
<path d="M404.444 150.092L397.019 150.962C397.019 150.962 391.023 149.681 389.693 152.063C389.331 152.687 395.655 153.607 395.655 153.607C395.655 153.607 386.555 156.005 387.114 157.796C387.672 159.586 393.684 163.052 394.867 163.364C396.05 163.677 407.532 154.543 407.532 154.543" fill="#FFC388"/>
<path d="M400.846 149.418C403.787 145.246 409.914 141.205 414.908 136.441C421.692 130.823 428.772 123.71 434.226 131.381C440.304 139.907 416.419 155.923 409.471 160.325C405.5 157.709 402.476 153.885 400.846 149.418V149.418Z" fill="#FCB749"/>
<path d="M53.5186 225.392V260.25L93.5999 261.794L116.712 243.658V208.472" fill="#339967"/>
<path opacity="0.86" d="M53.5186 226.098V260.956L93.5999 262.5L116.712 244.381V209.179" fill="#1F6945"/>
<path d="M116.778 208.472C109.446 205.634 101.642 204.212 93.7804 204.283C72.8362 204.283 55.6209 213.548 53.6333 225.392L94.0432 225.031L116.778 208.472Z" fill="#339967"/>
<path d="M93.9446 225.03L93.2383 257.375L116.696 239.847L116.712 208.472L93.9446 225.03Z" fill="#339967"/>
<path d="M100.351 279.173V288.224C107.256 287.54 113.956 285.491 120.063 282.196C128.769 277.038 130.741 272.537 131.266 268.381C131.348 267.707 131.398 257.375 131.398 257.375" fill="#790101"/>
<path d="M93.2383 257.375L116.696 239.847C116.696 239.847 130.609 244.595 131.48 257.375C132.35 270.155 113.049 278.073 100.351 279.173L93.2383 257.375Z" fill="#990000"/>
<path opacity="0.65" d="M93.9446 225.737L93.2383 258.081L116.696 240.554L116.712 209.179L93.9446 225.737Z" fill="#1F6945"/>
<path d="M101.057 262.024V288.191C89.9193 289.578 78.6136 287.909 68.3517 283.362C56.7051 278.023 54.6025 271.65 53.5676 266.935V239.207" fill="#EDAF24"/>
<path d="M53.535 239.207H93.5835L101.058 262.024C101.058 262.024 80.2942 264.783 64.9188 255.453C51.5966 247.305 53.535 239.207 53.535 239.207Z" fill="#FFCB44"/>
<path d="M208.768 315.821L264.093 347.328C264.512 347.524 264.989 347.557 265.43 347.42C265.872 347.283 266.246 346.986 266.481 346.587C266.715 346.189 266.792 345.717 266.697 345.265C266.601 344.812 266.341 344.411 265.966 344.141L210.64 312.635C210.222 312.438 209.745 312.406 209.303 312.543C208.862 312.68 208.487 312.977 208.253 313.375C208.019 313.774 207.942 314.245 208.037 314.698C208.132 315.15 208.393 315.551 208.768 315.821Z" fill="#E6E6E6"/>
<path d="M218.92 310.713L274.245 342.219C274.669 342.449 275.165 342.504 275.629 342.374C276.093 342.245 276.488 341.94 276.731 341.524C276.974 341.108 277.046 340.614 276.932 340.146C276.817 339.678 276.525 339.273 276.118 339.016L220.792 307.509C220.374 307.313 219.897 307.281 219.455 307.418C219.014 307.555 218.639 307.851 218.405 308.25C218.171 308.649 218.094 309.12 218.189 309.573C218.284 310.025 218.545 310.426 218.92 310.696V310.713Z" fill="#E6E6E6"/>
<path d="M228.874 304.75L284.2 336.256C284.619 336.452 285.095 336.485 285.537 336.348C285.979 336.211 286.353 335.914 286.587 335.516C286.822 335.117 286.899 334.645 286.803 334.193C286.708 333.74 286.448 333.34 286.072 333.069L230.747 301.563C230.328 301.367 229.852 301.334 229.41 301.471C228.968 301.608 228.594 301.905 228.36 302.304C228.125 302.702 228.048 303.174 228.144 303.626C228.239 304.079 228.499 304.479 228.874 304.75V304.75Z" fill="#E6E6E6"/>
<path d="M286.45 267.789L341.825 299.28C342.244 299.476 342.72 299.508 343.162 299.371C343.603 299.234 343.978 298.938 344.212 298.539C344.447 298.14 344.524 297.669 344.428 297.216C344.333 296.764 344.072 296.363 343.697 296.093L288.323 264.603C287.904 264.407 287.427 264.374 286.986 264.511C286.544 264.648 286.17 264.945 285.935 265.343C285.701 265.742 285.624 266.214 285.719 266.666C285.814 267.118 286.075 267.519 286.45 267.789V267.789Z" fill="#E6E6E6"/>
<path d="M298.179 262.96L353.504 294.467C353.923 294.663 354.4 294.695 354.841 294.558C355.283 294.421 355.658 294.124 355.892 293.726C356.126 293.327 356.203 292.856 356.108 292.403C356.013 291.951 355.752 291.55 355.377 291.28L300.052 259.773C299.633 259.577 299.156 259.544 298.714 259.681C298.273 259.818 297.898 260.115 297.664 260.514C297.43 260.912 297.353 261.384 297.448 261.837C297.543 262.289 297.804 262.69 298.179 262.96Z" fill="#E6E6E6"/>
<path d="M307.329 256.767L362.654 288.274C363.073 288.47 363.549 288.502 363.991 288.365C364.433 288.228 364.807 287.932 365.041 287.533C365.276 287.134 365.353 286.663 365.257 286.21C365.162 285.758 364.902 285.357 364.527 285.087L309.201 253.58C308.783 253.384 308.306 253.351 307.864 253.488C307.423 253.625 307.048 253.922 306.814 254.321C306.579 254.72 306.502 255.191 306.598 255.644C306.693 256.096 306.954 256.497 307.329 256.767Z" fill="#E6E6E6"/>
<path d="M246.188 293.054C247.059 293.481 298.935 323.558 298.935 323.558L326.072 307.427L274.377 277.12L246.188 293.054Z" fill="#E6E6E6" stroke="#E6E6E6" stroke-width="0.75" stroke-miterlimit="10"/>
<defs>
<linearGradient id="paint0_linear" x1="264.455" y1="206.008" x2="278.122" y2="179.758" gradientUnits="userSpaceOnUse">
<stop stop-color="#AA4200" stop-opacity="0"/>
<stop offset="0.98" stop-color="#5F9EBD"/>
</linearGradient>
<linearGradient id="paint1_linear" x1="13071.5" y1="10073.5" x2="13498.5" y2="8893.22" gradientUnits="userSpaceOnUse">
<stop stop-color="#AA4200" stop-opacity="0"/>
<stop offset="0.98" stop-color="#5F9EBD"/>
</linearGradient>
<linearGradient id="paint2_linear" x1="7025.25" y1="11514.7" x2="7451.88" y2="10334.6" gradientUnits="userSpaceOnUse">
<stop stop-color="#AA4200" stop-opacity="0"/>
<stop offset="0.98" stop-color="#5F9EBD"/>
</linearGradient>
<linearGradient id="paint3_linear" x1="27893" y1="23325.1" x2="28319.1" y2="21878.9" gradientUnits="userSpaceOnUse">
<stop stop-color="#AA4200" stop-opacity="0"/>
<stop offset="0.98" stop-color="#5F9EBD"/>
</linearGradient>
<linearGradient id="paint4_linear" x1="406.612" y1="280.159" x2="421.544" y2="259.297" gradientUnits="userSpaceOnUse">
<stop stop-color="white" stop-opacity="0"/>
<stop offset="0.98" stop-color="#AA003D"/>
</linearGradient>
</defs>
</svg>
