<svg width="290" height="65" viewBox="0 0 290 65" fill="none" xmlns="http://www.w3.org/2000/svg">
<path d="M40.442 18.585C40.442 25.0417 38.2315 30.0152 33.8107 33.5053C29.4189 36.9664 23.1222 38.6969 14.9203 38.6969H7.41654V63.7822H0V0H16.5345C32.4728 0 40.442 6.19499 40.442 18.585ZM7.41654 32.3274H14.0914C20.6645 32.3274 25.4198 31.2658 28.3574 29.1426C31.2949 27.0195 32.7637 23.6166 32.7637 18.934C32.7637 14.7167 31.3821 11.5756 28.6191 9.51062C25.8561 7.44562 21.5516 6.41313 15.7056 6.41313H7.41654V32.3274Z" fill="#1A1A1A"/>
<path d="M74.558 15.0948C76.6812 15.0948 78.5862 15.2693 80.2731 15.6184L79.2697 22.3369C77.292 21.9006 75.5469 21.6825 74.0345 21.6825C70.1663 21.6825 66.8507 23.253 64.0876 26.3942C61.3537 29.5353 59.9867 33.4471 59.9867 38.1297V63.7822H52.7447V15.9674H58.7215L59.5504 24.8236H59.8995C61.6736 21.7116 63.8113 19.3121 66.3126 17.6252C68.8139 15.9383 71.5623 15.0948 74.558 15.0948Z" fill="#1A1A1A"/>
<path d="M130.487 39.8312C130.487 47.6258 128.524 53.719 124.598 58.1108C120.671 62.4734 115.247 64.6548 108.325 64.6548C104.05 64.6548 100.254 63.6514 96.9385 61.6445C93.6229 59.6377 91.0635 56.7583 89.2602 53.0064C87.457 49.2546 86.5554 44.8628 86.5554 39.8312C86.5554 32.0365 88.504 25.9724 92.4014 21.6388C96.2987 17.2762 101.708 15.0948 108.63 15.0948C115.32 15.0948 120.628 17.3198 124.554 21.7697C128.51 26.2197 130.487 32.2401 130.487 39.8312ZM94.0592 39.8312C94.0592 45.9389 95.2807 50.5924 97.7238 53.7917C100.167 56.991 103.759 58.5907 108.5 58.5907C113.24 58.5907 116.832 57.0056 119.275 53.8354C121.748 50.6361 122.984 45.968 122.984 39.8312C122.984 33.7525 121.748 29.1426 119.275 26.0015C116.832 22.8313 113.211 21.2462 108.412 21.2462C103.672 21.2462 100.094 22.8022 97.6802 25.9143C95.2662 29.0263 94.0592 33.6653 94.0592 39.8312Z" fill="#1A1A1A"/>
<path d="M211.328 63.7822H190.954L184.846 35.992C184.555 34.8287 184.09 32.5164 183.45 29.0554C182.84 25.5943 182.389 22.7004 182.098 20.3737C181.865 22.2642 181.487 24.62 180.964 27.4412C180.44 30.2333 179.917 32.8073 179.393 35.1631C178.899 37.519 176.79 47.0587 173.067 63.7822H152.693L136.901 0H153.522L160.459 31.9784C162.03 39.0459 163.106 44.6737 163.687 48.8619C164.065 45.8953 164.734 41.8671 165.694 36.7773C166.683 31.6875 167.599 27.4703 168.443 24.1256L174.071 0H190.038L195.491 24.1256C196.422 27.9938 197.367 32.4583 198.327 37.519C199.287 42.5797 199.927 46.3606 200.247 48.8619C200.625 45.6335 201.657 40.0348 203.344 32.0656L210.412 0H227.033L211.328 63.7822Z" fill="#1A1A1A"/>
<path d="M289.42 30.5387C289.42 41.1836 286.482 49.3854 280.607 55.1442C274.761 60.9029 266.53 63.7822 255.914 63.7822H235.279V0H257.354C267.592 0 275.488 2.6176 281.043 7.85281C286.627 13.088 289.42 20.65 289.42 30.5387ZM271.533 31.1495C271.533 25.3035 270.369 20.9699 268.042 18.1487C265.745 15.3275 262.24 13.9169 257.528 13.9169H252.511V49.6472H256.35C261.586 49.6472 265.425 48.1348 267.868 45.11C270.311 42.0561 271.533 37.4026 271.533 31.1495Z" fill="#1A1A1A"/>
<path d="M211.494 64.1275H191.121L185.013 36.3373C184.722 35.1739 184.257 32.8617 183.617 29.4006C183.006 25.9396 182.555 23.0457 182.265 20.7189C182.032 22.6094 181.654 24.9653 181.13 27.7864C180.607 30.5786 180.083 33.1525 179.56 35.5084C179.065 37.8642 176.957 47.4039 173.234 64.1275H152.86L137.067 0.345245H153.689L160.626 32.3236C162.196 39.3911 163.272 45.019 163.854 49.2072C164.232 46.2405 164.901 42.2123 165.861 37.1226C166.85 32.0328 167.766 27.8155 168.609 24.4708L174.237 0.345245H190.205L195.658 24.4708C196.589 28.339 197.534 32.8035 198.494 37.8642C199.454 42.9249 200.093 46.7059 200.413 49.2072C200.791 45.9788 201.824 40.38 203.511 32.4109L210.578 0.345245H227.2L211.494 64.1275Z" fill="#990000"/>
<path d="M289.586 30.8839C289.586 41.5289 286.649 49.7307 280.774 55.4894C274.928 61.2481 266.697 64.1275 256.081 64.1275H235.446V0.345245H257.521C267.758 0.345245 275.655 2.96285 281.21 8.19805C286.794 13.4333 289.586 20.9952 289.586 30.8839ZM271.699 31.4947C271.699 25.6487 270.536 21.3151 268.209 18.494C265.912 15.6728 262.407 14.2622 257.695 14.2622H252.678V49.9924H256.517C261.752 49.9924 265.592 48.48 268.035 45.4553C270.478 42.4014 271.699 37.7479 271.699 31.4947Z" fill="#990000"/>
<path fill-rule="evenodd" clip-rule="evenodd" d="M147.159 41.1006L152.86 64.1275H173.234C176.957 47.4039 179.065 37.8642 179.56 35.5084C179.855 34.1794 180.15 32.781 180.446 31.3132C175.661 33.037 170.86 34.6536 166.056 36.1268C165.991 36.4549 165.926 36.7868 165.861 37.1226C164.901 42.2123 164.232 46.2405 163.854 49.2072C163.42 46.0794 162.71 42.1487 161.724 37.4151C156.865 38.8139 152.006 40.0549 147.159 41.1006ZM195.879 25.4004C191.853 27.0254 187.807 28.6014 183.748 30.1061C184.321 33.1778 184.742 35.2548 185.013 36.3373L191.121 64.1275H211.494L223.997 13.3554C218.067 15.9929 212.052 18.6392 205.978 21.2155L203.511 32.4109C201.824 40.38 200.791 45.9788 200.413 49.2072C200.093 46.7059 199.454 42.9249 198.494 37.8642C197.61 33.204 196.738 29.0494 195.879 25.4004ZM235.446 8.24528V64.1275H256.081C266.697 64.1275 274.928 61.2481 280.774 55.4894C286.649 49.7307 289.586 41.5289 289.586 30.8839C289.586 20.9952 286.794 13.4333 281.21 8.19805C275.655 2.96285 267.758 0.345245 257.521 0.345245H253.439C247.572 2.85056 241.564 5.51461 235.446 8.24528ZM268.209 18.494C270.536 21.3151 271.699 25.6487 271.699 31.4947C271.699 37.7479 270.478 42.4014 268.035 45.4553C265.592 48.48 261.752 49.9924 256.517 49.9924H252.678V14.2622H257.695C262.407 14.2622 265.912 15.6728 268.209 18.494Z" fill="#339967"/>
<path fill-rule="evenodd" clip-rule="evenodd" d="M149.252 49.5717L152.856 64.1275H173.23C175.588 53.5313 177.299 45.8192 178.362 40.991C173.709 42.6348 169.043 44.1726 164.374 45.5708C164.161 46.9219 163.987 48.134 163.85 49.2071C163.708 48.184 163.536 47.0749 163.335 45.8798C158.639 47.2654 153.941 48.5073 149.252 49.5717ZM197.658 33.6131C193.612 35.2627 189.544 36.8661 185.462 38.4005L191.117 64.1275H211.49L221.522 23.3887C215.685 25.9754 209.771 28.5602 203.802 31.0686L203.507 32.4109C201.82 40.38 200.787 45.9788 200.409 49.2071C200.089 46.7059 199.449 42.9249 198.489 37.8642C198.211 36.397 197.934 34.98 197.658 33.6131ZM235.441 17.1815V64.1275H256.077C266.693 64.1275 274.923 61.2481 280.769 55.4894C286.645 49.7307 289.582 41.5288 289.582 30.8839C289.582 20.9952 286.79 13.4332 281.206 8.19804C278.37 5.52575 274.924 3.53549 270.869 2.22726C259.67 6.43716 247.782 11.6739 235.441 17.1815ZM268.205 18.4939C270.532 21.3151 271.695 25.6487 271.695 31.4947C271.695 37.7479 270.474 42.4014 268.03 45.4552C265.587 48.48 261.748 49.9924 256.513 49.9924H252.674V14.2621H257.691C262.403 14.2621 265.907 15.6727 268.205 18.4939Z" fill="#006699"/>
</svg>
