<svg width="525" height="456" viewBox="0 0 525 456" fill="none" xmlns="http://www.w3.org/2000/svg">
<path d="M326.639 154.112L525 267.484L199.84 455.349L-1.7671e-05 341.761L326.639 154.112Z" fill="#D1E3EC"/>
<path opacity="0.32" d="M132.866 378.509L228.664 432.874L320.04 375.981L233.152 332.911" fill="url(#paint0_linear)"/>
<path opacity="0.32" d="M317.264 289.11L393.181 337.12L469.081 296.945L382.209 253.876" fill="url(#paint1_linear)"/>
<path d="M140.58 102.725L312.028 0.30014V143.915L140.58 240.933V102.725Z" fill="white"/>
<path d="M298.83 23.2738V142.634" stroke="#C4C4C4" stroke-miterlimit="10"/>
<path d="M269.207 41.8058V161.183" stroke="#C4C4C4" stroke-miterlimit="10"/>
<path d="M222.896 69.3709V188.731" stroke="#C4C4C4" stroke-miterlimit="10"/>
<path d="M189.434 87.5536V206.93" stroke="#C4C4C4" stroke-miterlimit="10"/>
<path d="M159.479 106.951V226.327" stroke="#C4C4C4" stroke-miterlimit="10"/>
<path d="M53.1763 277.182C48.0824 275.723 43.1865 273.645 38.5981 270.994C32.5806 267.184 44.5158 268.232 46.2778 268.615C48.0398 268.997 53.1763 277.182 53.1763 277.182Z" fill="#389869"/>
<path d="M86.4888 146.527C80.0987 144.145 73.358 142.841 66.5413 142.667C54.2237 142.102 77.8948 151.833 77.8948 151.833" fill="#389869"/>
<path d="M45.9525 273.484C21.8585 268.635 8.18502 235.549 15.4119 199.583C22.6388 163.617 48.0294 138.391 72.1234 143.24C96.2174 148.089 109.891 181.176 102.664 217.142C95.4372 253.107 70.0465 278.333 45.9525 273.484Z" fill="#1F74A0"/>
<path d="M55.4449 277.728C31.3509 272.879 17.7771 239.296 25.1271 202.717C32.477 166.139 57.9675 140.417 82.0615 145.266C106.155 150.115 119.729 183.698 112.379 220.276C105.029 256.855 79.5389 282.577 55.4449 277.728Z" fill="#3382A9"/>
<path d="M102.962 159.702L68.7527 211.572V146.277C68.7527 146.277 84.5942 138.026 102.962 159.702Z" fill="#97040B"/>
<path d="M68.7524 211.572L23.6379 232.532C23.6379 232.532 17.1217 163.362 68.7025 145.595L68.7524 211.572Z" fill="#389869"/>
<path d="M154.642 289.11L66.2421 339.931L190.049 411.631L277.402 359.445L154.642 289.11Z" fill="#D8D5D0"/>
<path d="M277.402 339.582V359.445L257.255 349.513L277.402 339.582Z" fill="#D8D5D0"/>
<path d="M66.242 320.069V339.932L86.5884 330.516L66.242 320.069Z" fill="#D8D5D0"/>
<path d="M154.642 269.247L66.2421 320.069L190.049 391.768L277.402 339.582L154.642 269.247Z" fill="#EAEAEA"/>
<path d="M260.431 331.231L260.68 330L273.396 332.196C273.396 332.196 264.005 347.035 256.973 351.743C261.145 345.82 260.464 338.168 260.431 331.231Z" fill="#D8D5D0"/>
<path d="M163.386 284.585L119.037 310.087C118.75 310.255 118.409 310.302 118.088 310.218C117.767 310.133 117.492 309.925 117.325 309.638C117.157 309.351 117.11 309.01 117.194 308.688C117.279 308.367 117.487 308.092 117.773 307.925L162.123 282.422C162.41 282.255 162.751 282.208 163.072 282.292C163.393 282.376 163.668 282.585 163.835 282.872C164.003 283.158 164.05 283.5 163.965 283.821C163.881 284.143 163.673 284.417 163.386 284.585V284.585Z" fill="#CCCCCC"/>
<path d="M169.154 288.361L97.8258 329.368C97.5392 329.535 97.1979 329.582 96.8768 329.498C96.5557 329.414 96.2812 329.205 96.1136 328.919C95.9461 328.632 95.8993 328.29 95.9834 327.969C96.0676 327.648 96.2759 327.373 96.5624 327.205L167.891 286.199C168.178 286.031 168.519 285.984 168.84 286.068C169.161 286.153 169.436 286.361 169.603 286.648C169.771 286.935 169.818 287.276 169.734 287.598C169.649 287.919 169.441 288.194 169.154 288.361V288.361Z" fill="#CCCCCC"/>
<path d="M174.906 292.736L103.577 333.743C103.291 333.911 102.949 333.958 102.628 333.873C102.307 333.789 102.033 333.581 101.865 333.294C101.697 333.007 101.651 332.665 101.735 332.344C101.819 332.023 102.027 331.748 102.314 331.58L173.659 290.59C173.946 290.423 174.287 290.376 174.608 290.46C174.929 290.544 175.204 290.753 175.371 291.04C175.539 291.326 175.586 291.668 175.502 291.989C175.417 292.311 175.209 292.585 174.923 292.753L174.906 292.736Z" fill="#CCCCCC"/>
<path d="M180.791 296.413L109.462 337.419C109.175 337.587 108.834 337.634 108.513 337.55C108.192 337.465 107.917 337.257 107.75 336.97C107.582 336.683 107.535 336.342 107.62 336.02C107.704 335.699 107.912 335.424 108.199 335.257L179.527 294.25C179.814 294.083 180.155 294.036 180.476 294.12C180.798 294.204 181.072 294.413 181.24 294.699C181.407 294.986 181.454 295.328 181.37 295.649C181.286 295.97 181.077 296.245 180.791 296.413V296.413Z" fill="#CCCCCC"/>
<path d="M214.552 323.562L194.421 311.967L189.435 314.845L209.615 326.373L214.552 323.562Z" fill="#006699"/>
<path d="M205.359 330.449L169.869 310.004L165.098 313.065L200.355 333.211L205.359 330.449Z" fill="#006699"/>
<path d="M194.421 336.871L173.094 324.593L167.691 327.239L189.434 339.665L194.421 336.871Z" fill="#006699"/>
<path d="M183.633 342.26L155.474 326.041L150.204 328.786L178.613 345.039L183.633 342.26Z" fill="#006699"/>
<path d="M173.127 348.682L162.755 342.71L157.668 345.488L168.174 351.493L173.127 348.682Z" fill="#006699"/>
<path d="M160.577 354.887L125.087 334.442L120.3 337.503L155.507 357.632L160.577 354.887Z" fill="#006699"/>
<path d="M234.748 326.357L190.398 351.859C190.112 352.027 189.77 352.074 189.449 351.989C189.128 351.905 188.854 351.697 188.686 351.41C188.519 351.123 188.472 350.782 188.556 350.46C188.64 350.139 188.848 349.864 189.135 349.697L233.485 324.194C233.771 324.027 234.113 323.98 234.434 324.064C234.755 324.148 235.03 324.357 235.197 324.643C235.365 324.93 235.411 325.272 235.327 325.593C235.243 325.914 235.035 326.189 234.748 326.357Z" fill="#CCCCCC"/>
<path d="M240.483 330.216L169.154 371.273C168.868 371.44 168.527 371.487 168.205 371.403C167.884 371.319 167.61 371.11 167.442 370.824C167.275 370.537 167.228 370.195 167.312 369.874C167.396 369.553 167.605 369.278 167.891 369.11L239.22 328.02C239.506 327.853 239.848 327.806 240.169 327.89C240.49 327.974 240.764 328.183 240.932 328.47C241.099 328.756 241.146 329.098 241.062 329.419C240.978 329.741 240.77 330.015 240.483 330.183V330.216Z" fill="#CCCCCC"/>
<path d="M246.235 334.591L174.906 375.598C174.619 375.766 174.278 375.813 173.957 375.728C173.636 375.644 173.361 375.436 173.194 375.149C173.026 374.862 172.979 374.52 173.063 374.199C173.148 373.878 173.356 373.603 173.642 373.435L244.971 332.429C245.258 332.261 245.599 332.214 245.92 332.299C246.241 332.383 246.516 332.591 246.683 332.878C246.851 333.165 246.898 333.506 246.814 333.828C246.729 334.149 246.521 334.424 246.235 334.591V334.591Z" fill="#CCCCCC"/>
<path d="M252.119 338.201L180.79 379.208C180.504 379.376 180.162 379.422 179.841 379.338C179.52 379.254 179.245 379.045 179.078 378.759C178.91 378.472 178.864 378.13 178.948 377.809C179.032 377.488 179.24 377.213 179.527 377.045L250.856 336.039C251.142 335.871 251.483 335.824 251.805 335.908C252.126 335.993 252.4 336.201 252.568 336.488C252.735 336.775 252.782 337.116 252.698 337.438C252.614 337.759 252.405 338.034 252.119 338.201V338.201Z" fill="#CCCCCC"/>
<path d="M66.2421 324.593L189.434 396.293L277.402 345.039" stroke="#CCCCCC" stroke-width="0.5" stroke-miterlimit="10"/>
<path d="M66.6748 329.135L189.867 400.834L277.852 349.58" stroke="#CCCCCC" stroke-width="0.5" stroke-miterlimit="10"/>
<path d="M66.6748 335.689L189.867 407.372L277.852 356.118" stroke="#CCCCCC" stroke-width="0.5" stroke-miterlimit="10"/>
<path d="M58.1133 347.817L45.0976 345.804L56.4344 357.349" fill="#FFC65A"/>
<path d="M58.1137 357.865C55.9747 357.865 54.2406 355.615 54.2406 352.841C54.2406 350.066 55.9747 347.817 58.1137 347.817C60.2527 347.817 61.9868 350.066 61.9868 352.841C61.9868 355.615 60.2527 357.865 58.1137 357.865Z" fill="#465CA2"/>
<path d="M170.767 425.871L56.4346 357.349L59.5597 348.183L173.759 416.605L170.767 425.871Z" fill="#465CA2"/>
<path d="M172.263 426.253C170.124 426.253 168.39 424.004 168.39 421.229C168.39 418.455 170.124 416.205 172.263 416.205C174.402 416.205 176.136 418.455 176.136 421.229C176.136 424.004 174.402 426.253 172.263 426.253Z" fill="#283860"/>
<path d="M45.0981 345.804L50.085 346.569C49.5339 346.792 49.0899 347.219 48.8453 347.761C48.6008 348.303 48.5744 348.919 48.7717 349.48L45.0981 345.804Z" fill="#465CA2"/>
<path d="M329.233 280.859L330.746 279.711L329.399 261.694L321.47 261.977C321.47 261.977 321.869 269.68 320.173 271.559C318.478 273.439 313.724 272.524 313.275 272.707C312.826 272.89 309.651 272.208 308.288 273.755C306.925 275.302 313.441 278.995 316.749 279.528C319.013 279.818 321.309 279.74 323.548 279.295C323.548 279.295 323.93 274.637 325.094 275.003C326.257 275.369 326.756 280.243 326.756 280.243L329.233 280.859Z" fill="#9C4100"/>
<path d="M332.491 224.115C333.139 242.963 333.837 267.534 333.837 267.534C333.837 267.534 329.532 273.389 317.863 270.861C316.616 270.595 313.823 240.551 312.46 224.913C318.992 223.139 325.839 222.866 332.491 224.115V224.115Z" fill="#653200"/>
<path d="M308.57 296.413L310.083 295.265L308.737 277.249L300.807 277.531C300.807 277.531 301.206 285.234 299.511 287.114C297.815 288.993 293.061 288.078 292.612 288.261C292.164 288.444 288.989 287.762 287.626 289.309C286.262 290.857 292.779 294.55 296.087 295.082C298.361 295.342 300.663 295.229 302.902 294.749C302.902 294.749 303.284 290.091 304.448 290.457C305.611 290.823 306.11 295.698 306.11 295.698L308.57 296.413Z" fill="#9C4100"/>
<path d="M305.162 227.542C310.371 225.183 315.964 223.791 321.669 223.433C320.705 230.486 319.807 235.377 319.658 235.743C319.275 236.641 312.028 281.424 312.028 281.424C303.467 284.884 293.344 281.99 293.344 281.99C293.344 281.99 296.834 247.055 297.117 241.216C297.117 240.584 297.15 239.957 297.217 239.336C297.34 236.832 298.145 234.409 299.546 232.33C300.946 230.251 302.889 228.595 305.162 227.542Z" fill="#653200"/>
<path d="M357.757 237.956C357.757 237.956 343.246 224.813 332.441 224.115C321.636 223.416 306.243 234.628 307.506 241.15C308.77 247.671 329.399 261.678 329.399 261.678" fill="#653200"/>
<path d="M328.136 214.499L339.772 206.331C340.234 206.001 340.568 205.52 340.716 204.971C340.865 204.423 340.819 203.839 340.586 203.32L332.391 185.021C332.247 184.701 332.037 184.416 331.774 184.184C331.511 183.952 331.201 183.779 330.866 183.677C330.531 183.575 330.177 183.545 329.83 183.59C329.482 183.636 329.148 183.755 328.85 183.94L315.935 191.991C315.408 192.319 315.025 192.834 314.862 193.432C314.699 194.031 314.767 194.669 315.054 195.219L324.595 213.518C324.748 213.829 324.966 214.105 325.233 214.326C325.5 214.548 325.811 214.71 326.145 214.803C326.48 214.896 326.83 214.917 327.173 214.864C327.516 214.812 327.844 214.688 328.136 214.499V214.499Z" fill="#1784AA"/>
<path d="M329.166 213.867L340.802 205.699C341.264 205.369 341.598 204.888 341.747 204.339C341.895 203.79 341.849 203.207 341.617 202.688L333.421 184.389C333.278 184.069 333.067 183.784 332.804 183.552C332.541 183.32 332.231 183.147 331.896 183.045C331.561 182.942 331.208 182.913 330.86 182.958C330.512 183.004 330.179 183.123 329.881 183.308L316.965 191.359C316.439 191.687 316.056 192.202 315.892 192.8C315.729 193.399 315.797 194.037 316.084 194.587L325.625 212.886C325.779 213.197 325.996 213.473 326.263 213.694C326.53 213.916 326.841 214.078 327.176 214.171C327.51 214.264 327.86 214.285 328.203 214.232C328.546 214.18 328.874 214.056 329.166 213.867V213.867Z" fill="#C4C4C4"/>
<path d="M327.238 212.753L340.253 203.553L331.726 184.572L317.264 193.589L327.238 212.753Z" fill="#E4F5FD"/>
<path d="M333.255 192.624C337.561 194.986 344.293 197.614 348.814 200.792C349.546 201.291 350.626 203.021 349.912 202.771C350.211 203.121 347.252 204.285 347.535 204.668C347.634 204.801 345.623 203.686 345.507 203.736C343.803 204.642 341.823 204.879 339.955 204.402L339.206 203.853L339.024 203.736C338.99 203.683 338.944 203.637 338.891 203.603H338.774C338.753 203.497 338.694 203.403 338.608 203.337C337.611 202.555 335.433 202.139 335.2 200.825C335.24 200.475 335.347 200.136 335.516 199.827C335.58 199.756 335.616 199.664 335.616 199.569C335.616 199.474 335.58 199.382 335.516 199.311C335.435 198.918 335.433 198.512 335.51 198.118C335.587 197.724 335.742 197.349 335.965 197.015V197.015L335.716 196.716C334.542 195.89 333.431 194.978 332.391 193.988C332.272 193.879 332.196 193.732 332.175 193.572V193.572C332.17 193.528 332.17 193.483 332.175 193.439C332.168 193.305 332.193 193.172 332.25 193.05C332.306 192.929 332.391 192.823 332.498 192.743C332.605 192.662 332.73 192.609 332.862 192.588C332.994 192.568 333.129 192.58 333.255 192.624V192.624Z" fill="#E85454"/>
<path d="M335.449 197.282C335.765 196.45 336.247 196.417 336.995 196.733C338.499 197.409 339.935 198.228 341.284 199.178C341.516 199.328 341.284 199.694 341.051 199.544C340.203 198.962 336.579 196.217 335.848 197.465C335.117 198.712 337.51 199.461 338.225 199.81L340.851 201.208C341.101 201.341 340.851 201.707 340.619 201.574L338.956 200.709C338.97 200.752 338.97 200.798 338.956 200.842C338.814 201.03 338.646 201.198 338.458 201.341C338.604 201.558 338.697 201.807 338.728 202.067C338.76 202.328 338.73 202.592 338.641 202.838V202.938C339.362 203.698 340.319 204.194 341.356 204.345C342.393 204.496 343.451 204.293 344.359 203.769C344.575 203.603 344.874 203.919 344.658 204.086C343.648 204.715 342.445 204.963 341.268 204.783C340.092 204.603 339.018 204.007 338.242 203.104C337.974 203.066 337.715 202.981 337.477 202.855C336.702 202.585 336.005 202.128 335.449 201.524C335.303 201.271 335.226 200.984 335.226 200.692C335.226 200.4 335.303 200.113 335.449 199.86V199.86C335.346 199.761 335.265 199.642 335.209 199.51C335.154 199.379 335.125 199.238 335.125 199.095C335.125 198.952 335.154 198.811 335.209 198.679C335.265 198.548 335.346 198.429 335.449 198.33C335.336 197.989 335.336 197.622 335.449 197.282ZM335.632 201.141C335.911 201.533 336.29 201.843 336.729 202.039C337.012 202.206 337.676 202.672 337.959 202.605C338.508 202.472 338.175 201.74 337.959 201.424C337.651 201.305 337.364 201.137 337.111 200.925L336.064 200.259L335.715 199.993C335.612 200.168 335.552 200.364 335.537 200.566C335.523 200.768 335.555 200.97 335.632 201.158V201.141ZM336.962 200.343C337.56 200.709 338.042 201.174 338.624 200.526C337.793 200.093 336.962 199.66 336.164 199.178C335.923 199.04 335.713 198.853 335.549 198.629C335.1 199.378 336.53 200.076 336.962 200.359V200.343Z" fill="#653200"/>
<path d="M346.121 197.548C346.121 197.548 343.212 198.197 342.996 204.302L345.174 209.708L356.993 203.57C356.993 203.57 354.167 200.01 346.121 197.548Z" fill="#88D3D8"/>
<path d="M318.112 200.392C318.993 202.339 319.874 204.102 320.605 206.098C321.154 204.784 321.653 203.703 322.268 202.439C322.298 202.397 322.331 202.358 322.367 202.322C322.486 202.123 322.669 201.971 322.886 201.891C323.104 201.81 323.342 201.807 323.561 201.881C323.781 201.954 323.968 202.101 324.093 202.297C324.217 202.492 324.271 202.724 324.246 202.954C324.034 204.151 323.563 205.287 322.866 206.281C322.965 206.333 323.055 206.401 323.132 206.481C324.794 208.377 324.429 211.272 324.229 213.601C324.219 213.753 324.17 213.9 324.087 214.029C324.004 214.157 323.889 214.261 323.754 214.333C323.62 214.405 323.469 214.441 323.316 214.438C323.164 214.435 323.015 214.393 322.883 214.316C322.72 214.32 322.559 214.279 322.417 214.2C320.887 213.143 319.793 211.564 319.342 209.758C318.345 206.814 317.115 203.537 318.112 200.392Z" fill="#E85454"/>
<path d="M362.229 200.259L357.957 198.995C356.893 199.145 347.651 202.921 343.811 209.509C343.343 211.517 343.026 213.558 342.863 215.614C342.514 218.359 342.232 221.104 342.099 223.932C341.918 226.936 341.962 229.95 342.232 232.948C342.365 234.229 342.448 234.878 342.664 236.142C343.156 236.574 343.718 236.917 344.326 237.157C357.143 241.615 366.551 234.396 366.933 233.364C367.316 232.333 367.931 217.527 368.23 208.727C368.311 206.849 367.765 204.998 366.678 203.465C365.592 201.932 364.027 200.804 362.229 200.259V200.259Z" fill="#88D3D8"/>
<path d="M350.925 184.955C350.925 184.955 348.05 199.444 353.386 201.008C358.722 202.572 365.022 196.533 365.454 193.555C365.886 190.578 358.406 180.18 350.925 184.955Z" fill="#E85454"/>
<path d="M352.987 190.81C352.821 190.561 349.762 189.762 349.114 187.167C348.465 184.572 350.776 181.195 356.145 180.696C361.514 180.197 370.441 183.125 369.061 197.182C367.681 211.239 353.535 205.2 352.621 200.709C352.13 197.415 352.254 194.059 352.987 190.81V190.81Z" fill="#653200"/>
<path d="M352.987 190.81C352.987 190.81 352.089 195.618 350.144 197.681C348.199 199.744 346.62 203.503 349.014 206.365C351.408 209.226 349.014 210.79 345.689 213.535C342.365 216.279 344.393 227.425 356.561 224.697C363.427 223.325 369.673 219.786 374.38 214.599C374.38 214.599 371.255 192.707 367.947 187.566" fill="#653200"/>
<path d="M343.777 209.708C343.777 209.708 341.018 218.941 338.275 219.224C335.532 219.507 331.343 215.431 328.418 210.108C327.37 210.007 326.314 210.122 325.312 210.445C324.31 210.767 323.385 211.291 322.593 211.984C321.801 212.677 321.159 213.525 320.705 214.475C320.252 215.425 319.997 216.458 319.957 217.51C319.957 217.51 329.648 237.174 343.777 232.366" fill="#88D3D8"/>
<path d="M324.189 199.914C323.049 196.987 324.164 193.818 326.678 192.837C329.193 191.857 332.156 193.435 333.296 196.363C334.436 199.29 333.322 202.459 330.807 203.44C328.292 204.42 325.329 202.842 324.189 199.914Z" fill="#1784AA"/>
<path d="M332.058 196.683L330.529 196.2L329.897 198.363L324.927 196.583L324.711 198.113L330.762 200.326L332.058 196.683Z" fill="#E4F5FD"/>
<path d="M394.56 280.11C403.06 269.078 407.477 255.44 407.06 241.516C406.966 230.271 402.57 219.489 394.776 211.389C387.612 204.036 376.79 200.409 367.199 205.4C359.236 209.542 355.38 217.477 352.604 225.612C349.279 235.344 348.149 247.837 336.297 250.848C331.692 252.013 326.872 251.214 322.134 250.848C313.823 250.282 305.162 252.961 302.602 261.778C297.998 277.548 319.225 291.006 331.111 296.097C341.422 300.339 352.778 301.348 363.674 298.989C374.571 296.631 384.495 291.016 392.133 282.888C392.975 282.001 393.784 281.075 394.56 280.11Z" fill="#FCB749"/>
<path d="M302.986 262.027C311.413 277.282 338.858 284.169 353.818 283.404C367.399 282.705 375.977 274.404 375.062 260.646C374.547 253.094 372.153 245.558 372.835 237.956C373.982 224.996 386.283 214.366 398.833 216.895C404.168 224.333 407.072 233.241 407.144 242.397C407.561 256.321 403.144 269.96 394.644 280.992C393.868 281.957 393.059 282.899 392.217 283.82C384.579 291.948 374.655 297.562 363.758 299.921C352.862 302.28 341.506 301.271 331.195 297.028C319.276 291.938 298.082 278.48 302.686 262.709C302.819 262.46 302.902 262.26 302.986 262.027Z" fill="#F19604"/>
<path d="M296.252 124.817C296.252 124.817 288.672 87.7366 273.462 94.4573C257.338 101.577 272.016 132.137 254.529 141.237C237.59 150.053 242.511 85.574 222.946 93.1764C205.458 99.9637 211.991 126.015 211.975 139.323C211.975 145.479 214.052 168.269 202.084 171.763C181.156 177.868 189.833 115.102 162.854 129.359" stroke="#92929D" stroke-miterlimit="10"/>
<path d="M296.17 129.043C294.361 129.043 292.895 127.27 292.895 125.083C292.895 122.897 294.361 121.124 296.17 121.124C297.978 121.124 299.444 122.897 299.444 125.083C299.444 127.27 297.978 129.043 296.17 129.043Z" fill="#92929D"/>
<path d="M162.755 134.2C160.947 134.2 159.48 132.427 159.48 130.24C159.48 128.054 160.947 126.281 162.755 126.281C164.564 126.281 166.03 128.054 166.03 130.24C166.03 132.427 164.564 134.2 162.755 134.2Z" fill="#92929D"/>
<path d="M237.557 110.91C235.749 110.91 234.283 109.137 234.283 106.951C234.283 104.764 235.749 102.991 237.557 102.991C239.366 102.991 240.832 104.764 240.832 106.951C240.832 109.137 239.366 110.91 237.557 110.91Z" fill="#92929D"/>
<path d="M211.776 138.159C209.967 138.159 208.501 136.386 208.501 134.2C208.501 132.013 209.967 130.24 211.776 130.24C213.584 130.24 215.05 132.013 215.05 134.2C215.05 136.386 213.584 138.159 211.776 138.159Z" fill="#92929D"/>
<path d="M453.971 92.9601L364.207 41.3899C363.63 41.0581 362.974 40.8851 362.308 40.8886C361.642 40.8922 360.989 41.072 360.415 41.41C359.841 41.7479 359.367 42.2319 359.04 42.8127C358.713 43.3936 358.546 44.0506 358.555 44.717V77.9881C358.554 79.6016 358.984 81.1861 359.799 82.5781C360.614 83.9701 361.786 85.1191 363.193 85.9066L450.247 134.616C450.824 134.939 451.475 135.105 452.136 135.098C452.797 135.09 453.445 134.908 454.014 134.572C454.583 134.235 455.053 133.754 455.378 133.178C455.703 132.602 455.871 131.95 455.866 131.288V96.2373C455.866 95.5725 455.691 94.9193 455.358 94.3438C455.025 93.7684 454.547 93.2911 453.971 92.9601V92.9601Z" fill="white"/>
<path d="M447.571 127.529V146.992L431.347 122.788" fill="white"/>
<path d="M371.621 56.861L419.262 83.4779C422.071 85.0416 419.561 89.3502 416.752 87.7865L369.111 61.1696C366.302 59.6058 368.812 55.2972 371.621 56.861V56.861Z" fill="#F2F2F2"/>
<path d="M369.543 70.1694L441.553 110.344C444.362 111.908 441.852 116.217 439.043 114.653L367.033 74.4614C364.224 72.8976 366.734 68.589 369.543 70.1528V70.1694Z" fill="#F2F2F2"/>
<path d="M465.427 184.795C453.158 172.516 451.337 154.431 461.36 144.4C471.383 134.37 489.454 136.192 501.724 148.47C513.993 160.749 515.814 178.834 505.791 188.865C495.768 198.896 477.696 197.073 465.427 184.795Z" stroke="#0071BC" stroke-width="3" stroke-miterlimit="10"/>
<path d="M487.848 194.387C490.511 195.333 493.429 195.262 496.043 194.187L506.2 230.453C504.371 235.959 498.869 233.148 498.869 233.148L487.649 194.271C487.711 194.316 487.778 194.355 487.848 194.387Z" fill="#2E3192"/>
<defs>
<linearGradient id="paint0_linear" x1="269.191" y1="434.887" x2="228.707" y2="380.369" gradientUnits="userSpaceOnUse">
<stop stop-color="white" stop-opacity="0"/>
<stop offset="1" stop-color="#8DB9CF"/>
</linearGradient>
<linearGradient id="paint1_linear" x1="-15752.5" y1="17351.4" x2="-16677.2" y2="14953.5" gradientUnits="userSpaceOnUse">
<stop stop-color="#D1E3EC"/>
<stop offset="1" stop-color="#8DB9CF"/>
</linearGradient>
</defs>
</svg>
