<svg width="301" height="328" viewBox="0 0 301 328" fill="none" xmlns="http://www.w3.org/2000/svg">
<path d="M84.5725 188.303L0.318848 237.273C0.318848 237.273 130.039 312.965 153.87 327.119L226.564 284.457" fill="url(#paint0_linear)"/>
<path d="M232.294 71.0371C232.294 71.0371 226.589 32.8729 239.023 28.688C251.457 24.503 269.122 34.3345 272.892 46.0024C276.662 57.6703 283.004 102.006 277.561 106.041C272.118 110.076 233.867 103.705 231.183 93.0737" fill="#A93032"/>
<path d="M162.422 268.442L54.2739 205.955L172.184 44.3285L280.332 106.815L162.422 268.442Z" fill="#FFB9AD"/>
<path d="M54.3239 114.211L54.2739 138.409V205.955L172.184 137.047V44.3285L54.3239 114.211Z" fill="#FF8C79"/>
<path d="M106.544 83.2422L93.0988 75.4719C92.5869 75.1721 54.2739 99.07 54.2739 99.07V117.196" fill="#FF8C79"/>
<path d="M253.042 38.5944C254.441 38.0447 255.864 37.57 257.2 37.1453C260.733 36.0085 264.365 35.2214 267.948 34.3095C267.287 18.4442 257.612 0.580069 240.746 2.09165C238.295 2.21055 235.941 3.08305 234.005 4.59012C230.996 7.0886 229.86 11.2111 230.259 16.0207C230.431 18.2428 231.124 20.3932 232.282 22.2968C233.441 24.2005 235.032 25.8038 236.926 26.9765C246.738 33.2476 250.958 35.109 253.042 38.5944Z" fill="#01293D"/>
<path d="M232.893 13.1974C232.893 13.1974 233.592 35.6837 241.395 36.9329C249.197 38.1822 254.703 26.4018 254.703 26.4018C254.703 26.4018 258.935 16.0956 254.703 13.1974C250.471 10.2992 239.035 5.53956 232.893 13.1974Z" fill="#FFB9AD"/>
<path d="M250.958 42.0173C249.959 47.6514 249.56 54.7471 254.703 58.4823C258.063 57.9449 261.343 56.988 264.465 55.634C267.887 53.8842 271.033 51.6408 273.803 48.9756C273.872 47.969 273.872 46.959 273.803 45.9524C273.429 39.7062 265.614 -13.0116 241.795 7.50088L245.652 15.496C247.512 19.3686 249.697 23.3662 250.783 27.6261C251.838 32.3592 251.897 37.26 250.958 42.0173V42.0173Z" fill="#01293D"/>
<path d="M232.893 6.03926C232.818 5.8144 236.289 -0.5817 249.035 0.0429191C263.579 0.767477 265.177 17.7946 265.177 17.7946" fill="#01293D"/>
<path d="M232.057 10.599C231.82 11.0862 231.196 18.0944 232.893 20.1182C232.893 20.1182 242.007 24.7654 247.15 24.9652C247.15 24.9652 247.15 19.0314 247.837 18.4317C248.523 17.8321 247.462 7.41345 240.733 6.02679" fill="#01293D"/>
<path d="M62.9254 231.539C54.324 226.542 45.785 221.296 37.0963 216.386C33.5687 214.161 29.5552 212.824 25.3989 212.488C20.1057 212.326 13.277 216.124 16.5228 222.145C18.1333 225.131 21.404 227.142 24.1879 228.828C29.8307 232.364 35.5857 235.749 41.2534 239.247C48.0571 243.432 56.8208 250.64 65.4097 249.578C70.4032 248.966 73.7864 245.031 69.9413 240.834C67.9439 238.66 64.8354 237.298 62.2887 235.837L32.1776 218.722C31.82 218.513 31.3942 218.455 30.9939 218.561C30.5936 218.666 30.2515 218.926 30.0429 219.284C29.8343 219.642 29.7763 220.068 29.8817 220.469C29.987 220.869 30.2471 221.212 30.6047 221.42L55.897 235.799C58.606 237.336 61.3899 238.81 64.0489 240.434C64.8854 240.946 66.4583 241.546 66.9827 242.358C69.9039 246.88 63.1127 246.655 60.6533 246.105C55.9095 244.944 51.6025 242.045 47.5078 239.497C42.6017 236.449 37.6705 233.463 32.7394 230.465C29.7058 228.616 13.6765 221.433 22.203 215.974C26.073 213.475 32.9267 217.635 36.4721 219.721C44.7947 224.56 53.0839 229.424 61.3399 234.313C61.6975 234.521 62.1233 234.579 62.5237 234.474C62.924 234.369 63.2661 234.108 63.4747 233.75C63.6833 233.393 63.7413 232.967 63.6359 232.566C63.5306 232.165 63.2705 231.823 62.9129 231.614L62.9254 231.539Z" fill="#4D4D4D"/>
<path d="M262.967 96.7965C262.967 96.7965 269.596 90.6252 272.679 84.2291L271.431 101.718L262.967 96.7965Z" fill="#01293D"/>
<path d="M193.881 66.165L189.787 63.2168C189.098 62.6807 188.263 62.3652 187.392 62.3117C186.521 62.2582 185.654 62.4692 184.905 62.917L76.7825 127.015C75.8143 127.588 75.0117 128.403 74.4536 129.379C73.8954 130.356 73.6009 131.462 73.5991 132.587V153.1V215.911C73.5987 216.306 73.6858 216.695 73.8542 217.051C74.0226 217.408 74.2681 217.723 74.5729 217.972L74.9349 218.222L79.142 221.146L81.027 217.498L79.5789 217.073L191.422 151.763V66.6647L193.881 66.165Z" fill="white"/>
<path opacity="0.5" d="M193.881 66.165L189.787 63.2168C189.098 62.6807 188.263 62.3652 187.392 62.3117C186.521 62.2582 185.654 62.4692 184.905 62.917L76.7825 127.015C75.8143 127.588 75.0117 128.403 74.4536 129.379C73.8954 130.356 73.6009 131.462 73.5991 132.587V153.1V215.911C73.5987 216.306 73.6858 216.695 73.8542 217.051C74.0226 217.408 74.2681 217.723 74.5729 217.972L74.9349 218.222L79.142 221.146L81.027 217.498L79.5789 217.073L191.422 151.763V66.6647L193.881 66.165Z" fill="black"/>
<path d="M105.283 137.334C113.722 133.199 124.945 135.348 130.351 143.318C132.66 146.728 133.959 151.101 137.479 153.237C138.929 154.007 140.54 154.421 142.181 154.445C143.822 154.469 145.446 154.102 146.917 153.374C155.98 149.302 159.064 139.058 162.497 130.626C166.354 121.144 171.548 109.551 180.861 104.392C185.587 102.195 190.444 100.293 195.404 98.6953V69.4756C195.404 68.7062 195.2 67.9506 194.813 67.2856C194.427 66.6205 193.871 66.0697 193.203 65.6891C192.535 65.3084 191.778 65.1115 191.009 65.1183C190.24 65.1251 189.487 65.3354 188.825 65.7279L80.7024 129.826C79.7343 130.399 78.9316 131.213 78.3735 132.19C77.8153 133.167 77.5209 134.273 77.519 135.398V155.91V188.865C79.7727 178.49 83.1813 168.399 87.6809 158.784C91.4635 150.514 96.8066 141.482 105.283 137.334Z" fill="#0B5E8A"/>
<path d="M195.417 154.549V98.6578C190.456 100.255 185.599 102.158 180.873 104.354C171.547 109.539 166.354 121.132 162.509 130.588C159.076 139.033 155.992 149.264 146.929 153.337C145.458 154.065 143.835 154.432 142.194 154.408C140.553 154.384 138.941 153.97 137.491 153.2C133.971 151.076 132.673 146.691 130.363 143.281C124.97 135.311 113.735 133.162 105.295 137.297C96.8564 141.432 91.4633 150.514 87.6682 158.784C83.1686 168.4 79.76 178.49 77.5063 188.865V218.722C77.5081 219.199 77.6351 219.668 77.8747 220.08C78.1142 220.493 78.4579 220.835 78.8714 221.073C79.2848 221.311 79.7534 221.436 80.2303 221.436C80.7072 221.435 81.1756 221.309 81.5886 221.071L195.417 154.549Z" fill="white"/>
<path d="M151.102 125.678C152.635 119.746 151.015 114.197 147.484 113.283C143.953 112.37 139.848 116.437 138.315 122.369C136.782 128.3 138.402 133.849 141.933 134.763C145.464 135.677 149.569 131.609 151.102 125.678Z" fill="#5BAA83"/>
<path d="M205.866 84.8163L97.743 148.915C96.7748 149.487 95.9722 150.302 95.414 151.279C94.8559 152.256 94.5614 153.361 94.5596 154.486V174.999V237.811C94.5591 238.205 94.6462 238.594 94.8146 238.951C94.9831 239.307 95.2285 239.622 95.5333 239.872V239.872L95.8953 240.122L100.102 243.045L101.987 239.397L100.539 238.972L212.432 173.575V88.564C212.431 87.7965 212.226 87.043 211.84 86.3797C211.454 85.7165 210.9 85.1669 210.234 84.7867C209.568 84.4064 208.813 84.2089 208.046 84.2141C207.279 84.2193 206.527 84.427 205.866 84.8163V84.8163Z" fill="white"/>
<path d="M210.747 85.1161L214.904 88.0643L209.861 89.0637" fill="#006DA8"/>
<path opacity="0.5" d="M205.866 84.8163L97.743 148.915C96.7748 149.487 95.9722 150.302 95.414 151.279C94.8559 152.256 94.5614 153.361 94.5596 154.486V174.999V237.811C94.5591 238.205 94.6462 238.594 94.8146 238.951C94.9831 239.307 95.2285 239.622 95.5333 239.872V239.872L95.8953 240.122L100.102 243.045L101.987 239.397L100.539 238.972L212.432 173.575V88.564C212.431 87.7965 212.226 87.043 211.84 86.3797C211.454 85.7165 210.9 85.1669 210.234 84.7867C209.568 84.4064 208.813 84.2089 208.046 84.2141C207.279 84.2193 206.527 84.427 205.866 84.8163V84.8163Z" fill="black"/>
<path d="M126.306 159.258C134.745 155.123 145.968 157.272 151.374 165.242C153.683 168.653 154.982 173.025 158.502 175.161C159.952 175.931 161.564 176.345 163.205 176.369C164.846 176.393 166.469 176.026 167.94 175.299C177.003 171.226 180.087 160.982 183.52 152.55C187.377 143.068 192.571 131.475 201.884 126.316C206.608 124.09 211.465 122.158 216.427 120.532V91.3872C216.427 90.6178 216.223 89.8622 215.836 89.1972C215.45 88.5321 214.894 87.9813 214.226 87.6007C213.558 87.2201 212.801 87.0231 212.032 87.03C211.263 87.0368 210.51 87.2471 209.848 87.6395L101.738 151.763C100.77 152.335 99.9673 153.15 99.4091 154.127C98.851 155.104 98.5565 156.209 98.5547 157.334V177.847V210.802C100.783 200.421 104.166 190.322 108.642 180.695C112.487 172.425 117.83 163.393 126.306 159.258Z" fill="#0B5E8A"/>
<path d="M216.427 176.448V120.532C211.467 122.129 206.609 124.032 201.883 126.229C192.558 131.413 187.365 143.006 183.52 152.462C180.087 160.907 177.003 171.139 167.94 175.211C166.468 175.939 164.845 176.306 163.204 176.282C161.563 176.258 159.951 175.844 158.502 175.074C154.981 172.95 153.683 168.565 151.374 165.155C145.981 157.185 134.745 155.036 126.306 159.171C117.867 163.306 112.486 172.425 108.641 180.695C104.142 190.311 100.733 200.401 98.4795 210.777V240.634C98.4812 241.111 98.6082 241.579 98.8478 241.992C99.0874 242.405 99.4311 242.747 99.8445 242.985C100.258 243.223 100.727 243.348 101.203 243.347C101.68 243.347 102.149 243.221 102.562 242.982L216.427 176.448Z" fill="white"/>
<path d="M172.119 147.587C173.652 141.655 172.032 136.106 168.501 135.192C164.97 134.278 160.865 138.346 159.332 144.277C157.799 150.209 159.419 155.758 162.95 156.672C166.481 157.586 170.586 153.518 172.119 147.587Z" fill="#5BAA83"/>
<path d="M241.819 94.4978L133.697 158.596C132.728 159.169 131.926 159.983 131.368 160.96C130.809 161.937 130.515 163.043 130.513 164.168V184.68V247.492C130.513 247.886 130.6 248.276 130.768 248.632C130.937 248.989 131.182 249.303 131.487 249.553L131.849 249.803L136.056 252.726L137.941 249.079L136.493 248.654L248.386 183.256V98.2455C248.384 97.478 248.18 96.7245 247.794 96.0612C247.408 95.398 246.854 94.8484 246.188 94.4682C245.521 94.0879 244.766 93.8904 243.999 93.8956C243.232 93.9008 242.48 94.1086 241.819 94.4978V94.4978Z" fill="white"/>
<path d="M246.688 94.7852L250.845 97.7459L245.814 98.7328" fill="#006DA8"/>
<path opacity="0.5" d="M241.819 94.4978L133.697 158.596C132.728 159.169 131.926 159.983 131.368 160.96C130.809 161.937 130.515 163.043 130.513 164.168V184.68V247.492C130.513 247.886 130.6 248.276 130.768 248.632C130.937 248.989 131.182 249.303 131.487 249.553L131.849 249.803L136.056 252.726L137.941 249.079L136.493 248.654L248.386 183.256V98.2455C248.384 97.478 248.18 96.7245 247.794 96.0612C247.408 95.398 246.854 94.8484 246.188 94.4682C245.521 94.0879 244.766 93.8904 243.999 93.8956C243.232 93.9008 242.48 94.1086 241.819 94.4978V94.4978Z" fill="black"/>
<path d="M162.248 168.915C170.687 164.78 181.91 166.929 187.315 174.899C189.625 178.309 190.923 182.682 194.443 184.818C195.893 185.588 197.505 186.002 199.146 186.026C200.787 186.05 202.41 185.683 203.881 184.955C212.945 180.883 216.028 170.639 219.461 162.207C223.319 152.725 228.512 141.132 237.825 135.973C242.551 133.776 247.408 131.873 252.369 130.276V101.056C252.368 100.287 252.164 99.5314 251.778 98.8664C251.391 98.2013 250.835 97.6505 250.167 97.2699C249.499 96.8892 248.742 96.6923 247.973 96.6991C247.204 96.706 246.451 96.9163 245.79 97.3087L137.667 161.407C136.699 161.979 135.896 162.794 135.338 163.771C134.78 164.748 134.485 165.853 134.483 166.979V187.491V220.471C136.737 210.095 140.146 200.005 144.645 190.389C148.428 182.094 153.771 173.062 162.248 168.915Z" fill="#0B5E8A"/>
<path d="M252.381 186.117V130.239C247.42 131.836 242.563 133.738 237.837 135.935C228.512 141.119 223.318 152.712 219.473 162.169C216.04 170.614 212.957 180.845 203.894 184.918C202.422 185.645 200.799 186.012 199.158 185.988C197.517 185.964 195.905 185.55 194.456 184.78C190.935 182.657 189.637 178.272 187.327 174.861C181.934 166.891 170.699 164.742 162.26 168.877C153.821 173.012 148.44 182.057 144.645 190.327C140.137 199.962 136.724 210.074 134.471 220.471V250.328C134.472 250.805 134.599 251.273 134.839 251.686C135.079 252.099 135.422 252.441 135.836 252.679C136.249 252.917 136.718 253.042 137.195 253.041C137.672 253.041 138.14 252.915 138.553 252.676L252.381 186.117Z" fill="white"/>
<path d="M208.066 157.25C209.599 151.318 207.979 145.769 204.448 144.855C200.917 143.942 196.811 148.009 195.279 153.941C193.746 159.872 195.365 165.421 198.897 166.335C202.428 167.249 206.533 163.181 208.066 157.25Z" fill="#5BAA83"/>
<path d="M265.452 258.423L239.298 276.712L212.607 255.337L233.218 237.985L265.452 258.423Z" fill="url(#paint1_linear)"/>
<path d="M164.544 175.498C163.909 175.875 163.384 176.411 163.018 177.053C162.653 177.694 162.46 178.42 162.459 179.159V200.933V268.479L280.37 199.559V106.79L164.544 175.498Z" fill="#FF8C79"/>
<path d="M300.306 193.238V238.285L265.451 258.423L237.051 241.533V199.684" fill="#FFAF68"/>
<path d="M265.451 258.423V213.987L237.051 201.395V241.533L265.451 258.423Z" fill="#F49E5D"/>
<path d="M237.051 197.335V201.395L239.747 202.22L241.545 199.471" fill="#EA8E50"/>
<path d="M271.606 180.271L300.319 197.285L264.415 217.973C263.354 218.585 237.051 201.333 237.051 201.333L271.606 180.271Z" fill="#EA8E50"/>
<path d="M300.306 197.298V193.238L295.15 190.677L295.775 197.872" fill="#EA8E50"/>
<path d="M271.606 176.223L300.319 193.238L264.415 213.975C263.354 214.587 237.051 197.335 237.051 197.335L271.606 176.223Z" fill="#FFB883"/>
<path d="M295.3 205.942V215.274L269.184 230.178V221.033L295.3 205.942Z" fill="#EA8E50"/>
<path d="M295.65 219.871V229.203L269.533 244.107V234.962L295.65 219.871Z" fill="#EA8E50"/>
<path d="M284.591 217.702C284.678 216.789 284.225 215.998 283.58 215.937C282.935 215.875 282.341 216.566 282.254 217.479C282.167 218.393 282.62 219.183 283.265 219.245C283.91 219.306 284.504 218.616 284.591 217.702Z" fill="#FFB883"/>
<path d="M285.656 231.15C285.743 230.237 285.29 229.446 284.645 229.385C284 229.323 283.406 230.014 283.319 230.927C283.232 231.841 283.685 232.631 284.33 232.693C284.975 232.754 285.569 232.064 285.656 231.15Z" fill="#FFB883"/>
<path d="M245.015 218.572L197.402 191.576L180.199 202.382L201.721 224.106L229.335 236.636" fill="white"/>
<path opacity="0.5" d="M245.015 218.572L197.402 191.576L180.199 202.382L201.721 224.106L229.335 236.636" fill="white"/>
<path d="M226.165 229.403L180.199 202.382V209.228V212.626V258.873L226.165 284.469V284.245L226.564 284.469L245.015 273.226V228.241V218.572L226.165 229.403Z" fill="white"/>
<path d="M229.46 233.501V257.136L242.78 249.303V225.93L229.46 233.501Z" fill="#FFECB3"/>
<path opacity="0.2" d="M226.165 229.403V284.469L180.199 258.873V202.382L226.165 229.403Z" fill="black"/>
<path d="M240.078 264.078C240.638 261.68 239.768 259.427 238.137 259.046C236.505 258.665 234.729 260.301 234.17 262.699C233.611 265.098 234.48 267.351 236.112 267.732C237.743 268.113 239.519 266.477 240.078 264.078Z" fill="#FFECB3"/>
<path d="M264.116 172.375C264.116 172.375 259.434 193.875 259.796 195.111C260.707 198.272 273.741 200.108 277.586 195.111L272.854 172.375H264.116Z" fill="#A93032"/>
<path d="M268.385 175.186C270.874 175.186 272.892 174.051 272.892 172.65C272.892 171.25 270.874 170.114 268.385 170.114C265.896 170.114 263.878 171.25 263.878 172.65C263.878 174.051 265.896 175.186 268.385 175.186Z" fill="#934600"/>
<path d="M277.448 128.215C277.448 128.215 268.71 123.543 263.404 133.212C258.098 142.881 265.901 147.528 274.577 147.878C283.253 148.228 284.789 131.475 277.448 128.215Z" fill="#5BAA83"/>
<path d="M275.776 128.215C268.622 141.469 267.524 156.76 266.912 171.526C266.912 172.3 268.086 172.3 268.16 171.526C268.76 156.985 269.808 141.881 276.899 128.827C277.174 128.14 276.138 127.528 275.776 128.215Z" fill="#1A892D"/>
<path d="M280.919 152.925C280.919 152.925 268.834 152.438 270.232 160.495C271.631 168.553 281.93 166.929 283.453 162.581C284.976 158.234 280.919 152.925 280.919 152.925Z" fill="#5BAA83"/>
<path d="M280.719 153.337C276.026 159.529 272.389 166.456 269.958 173.837C269.923 173.951 269.935 174.075 269.991 174.18C270.048 174.286 270.143 174.364 270.258 174.399C270.372 174.434 270.495 174.422 270.601 174.366C270.706 174.309 270.785 174.214 270.819 174.099C273.228 166.794 276.831 159.938 281.481 153.812C281.83 153.362 281.069 152.875 280.719 153.337Z" fill="#1A892D"/>
<path d="M254.578 146.678C254.578 146.678 248.086 156.885 255.751 159.72C263.416 162.556 267.186 152.825 264.203 149.327C261.219 145.829 254.578 146.678 254.578 146.678Z" fill="#5BAA83"/>
<path d="M267.511 172.912C264.14 163.54 259.928 154.492 254.927 145.879C254.868 145.775 254.769 145.698 254.653 145.666C254.537 145.635 254.414 145.651 254.309 145.71C254.205 145.77 254.129 145.869 254.097 145.984C254.065 146.1 254.081 146.224 254.141 146.329C259.102 154.87 263.28 163.842 266.625 173.137C266.824 173.674 267.698 173.462 267.511 172.912Z" fill="#1A892D"/>
<path d="M245.777 98.0457C245.58 97.94 245.363 97.8795 245.14 97.8687C244.917 97.8579 244.695 97.897 244.489 97.9832C244.283 98.0694 244.099 98.2005 243.951 98.3669C243.802 98.5333 243.692 98.7309 243.63 98.9451C243.492 99.4074 243.33 99.8696 243.168 100.332C242.805 100.501 242.523 100.806 242.381 101.181C242.194 101.656 242.007 102.118 241.807 102.58L241.682 102.368C242.256 101.031 240.521 99.5698 239.385 100.544C239.241 100.488 239.09 100.451 238.936 100.432C239.66 99.957 240.376 99.4698 241.083 98.9701C242.656 97.8458 241.145 95.2224 239.56 96.3592C235.415 99.3074 230.322 101.181 227.076 105.366C226.602 105.978 224.092 108.989 224.404 109.751C224.511 110.013 224.681 110.245 224.899 110.426C225.117 110.607 225.376 110.731 225.653 110.788C227.838 111.088 228.886 108.677 230.559 107.278C229.46 110.113 227.451 112.512 227.076 115.672C227.07 115.884 227.111 116.094 227.195 116.289C227.279 116.483 227.404 116.657 227.563 116.797C227.721 116.938 227.908 117.042 228.111 117.102C228.314 117.162 228.527 117.178 228.736 117.147L228.412 117.834C227.563 119.583 230.172 121.107 231.021 119.358L231.545 118.258C231.643 118.488 231.793 118.692 231.984 118.853C232.174 119.015 232.4 119.129 232.643 119.187C232.885 119.246 233.138 119.246 233.381 119.189C233.624 119.132 233.851 119.018 234.042 118.858C234.502 118.467 234.94 118.05 235.353 117.609C235.488 117.749 235.65 117.86 235.829 117.937C236.008 118.013 236.201 118.052 236.395 118.052C236.59 118.052 236.782 118.013 236.962 117.937C237.141 117.86 237.303 117.749 237.438 117.609C240.259 114.873 241.432 111.125 243.268 107.765C245.165 105.395 246.766 102.802 248.036 100.044C248.823 98.383 246.763 96.9838 245.777 98.0457Z" fill="#FFB9AD"/>
<path d="M231.745 110.363L228.487 116.784C228.225 117.309 229.011 117.759 229.273 117.246L232.469 110.85C232.781 110.301 231.995 109.838 231.745 110.363Z" fill="#0D0D0D"/>
<path d="M234.167 112.712C233.334 114.652 232.452 116.572 231.52 118.471C231.27 118.995 232.044 119.458 232.307 118.933C233.23 117.034 234.113 115.114 234.953 113.174C235.165 112.649 234.391 112.187 234.167 112.712Z" fill="#0D0D0D"/>
<path d="M237.225 111.787L234.728 117.584C234.504 118.108 235.278 118.571 235.515 118.046L238.012 112.249C238.261 111.787 237.487 111.3 237.225 111.787Z" fill="#0D0D0D"/>
<path d="M252.019 62.5548C252.019 62.5548 241.233 85.7157 231.183 93.0487C231.183 93.0487 239.772 113.461 250.046 108.302C253.791 106.453 271.444 90.4128 275.763 77.783" fill="#A93032"/>
<path d="M193.806 88.9637C192.314 90.2802 190.925 91.7084 189.649 93.2361C188.726 94.3479 187.39 95.5972 187.639 97.1462C187.714 97.6084 188.426 97.4211 188.351 96.9464C188.114 95.5097 190.249 93.6234 191.147 92.624C192.149 91.5198 193.212 90.4729 194.331 89.4884C194.68 89.1761 194.156 88.6514 193.806 88.9637Z" fill="#0D0D0D"/>
<path d="M214.754 77.2209C214.735 76.8781 214.602 76.5516 214.375 76.2935C214.149 76.0353 213.843 75.8605 213.506 75.7968L214.18 75.3721C214.484 75.1677 214.701 74.8575 214.788 74.5018C214.876 74.1462 214.828 73.7706 214.654 73.4482C207.563 77.6582 200.073 81.206 192.97 85.391C190.955 86.8332 189.036 88.4065 187.227 90.1006C186.154 91.1125 187.365 93.1487 188.738 92.3242C189.895 91.633 191.043 90.9293 192.183 90.213C191.222 91.3873 190.286 92.5741 189.374 93.7858C188.625 94.7852 187.003 97.6335 188.8 97.4211C189.487 97.0713 191.484 95.5847 192.545 94.9227L192.92 94.6853L192.608 94.8977C192.87 94.7603 193.856 94.1481 193.856 94.1856C194.68 93.7359 195.492 93.2612 196.353 92.7865C196.364 92.8485 196.394 92.9055 196.439 92.9501C196.484 92.9947 196.541 93.0248 196.603 93.0363H196.815C196.799 93.0904 196.797 93.1473 196.807 93.2026C196.817 93.2579 196.84 93.31 196.874 93.3549C196.908 93.3997 196.952 93.436 197.002 93.461C197.053 93.4859 197.108 93.4988 197.164 93.4985C197.595 93.4593 198.017 93.3496 198.413 93.1737C198.895 92.9841 199.323 92.6796 199.661 92.2868C199.687 92.2568 199.708 92.2231 199.724 92.1868C199.932 91.9438 200.108 91.6751 200.248 91.3873C200.273 91.3369 200.286 91.2813 200.286 91.2249C200.286 91.1685 200.273 91.1129 200.248 91.0625L200.473 90.7502C200.785 90.4379 201.059 90.1131 201.359 89.7883L205.167 87.4397L205.678 87.2273L208.562 86.2654C208.643 86.2278 208.707 86.1629 208.744 86.0821C208.781 86.0014 208.788 85.9101 208.764 85.8246C208.74 85.739 208.687 85.6648 208.613 85.6151C208.54 85.5655 208.451 85.5436 208.362 85.5534L208.125 85.6283L208.899 85.1411L210.148 84.1917C212.261 82.74 214.223 81.0784 216.003 79.2322C216.864 78.2453 215.828 77.171 214.754 77.2209Z" fill="#FFB9AD"/>
<path d="M209.648 85.3659C208.125 86.5389 206.338 87.3197 204.443 87.6395C203.818 87.7395 202.632 87.5771 202.071 87.9643C201.764 88.2397 201.546 88.6009 201.446 89.0012C201.117 89.847 200.699 90.6553 200.198 91.4122C199.674 92.1618 198.363 93.5609 197.289 93.3236C195.791 92.9863 198.113 88.4141 198.538 87.6895C198.569 87.6067 198.571 87.5154 198.541 87.4318C198.512 87.3481 198.454 87.2776 198.378 87.2326C198.301 87.1877 198.212 87.1713 198.124 87.1863C198.037 87.2014 197.958 87.2469 197.901 87.3147C197.332 88.312 196.872 89.3674 196.528 90.4628C196.146 91.3393 195.979 92.2944 196.041 93.2486C196.415 94.7977 198.712 93.8108 199.499 93.2486C200.231 92.6753 200.832 91.951 201.259 91.1249C201.521 90.6377 201.696 90.113 201.958 89.6258C202.07 89.3341 202.255 89.076 202.495 88.8763C202.932 88.4765 203.157 88.539 203.743 88.489C206.038 88.2665 208.223 87.4005 210.048 85.9905C210.397 85.7157 210.023 85.0786 209.648 85.3659Z" fill="#0D0D0D"/>
<path d="M232.419 38.2446C232.419 38.2446 225.128 56.8208 220.31 61.0307C215.491 65.2407 200.148 75.4719 200.148 75.4719C200.148 75.4719 200.011 87.6645 212.632 89.7132C212.632 89.7132 238.449 75.0972 244.154 70.9747" fill="#A93032"/>
<path d="M234.304 58.6072L232.656 79.5319C232.594 80.3315 233.842 80.3315 233.904 79.5319L235.552 58.6072C235.615 57.8077 234.366 57.8077 234.304 58.6072Z" fill="#01293D"/>
<defs>
<linearGradient id="paint0_linear" x1="145.419" y1="209.078" x2="103.607" y2="276.711" gradientUnits="userSpaceOnUse">
<stop stop-color="#BEBEBE"/>
<stop offset="1" stop-color="#D1E3EC" stop-opacity="0"/>
</linearGradient>
<linearGradient id="paint1_linear" x1="13371.3" y1="8289.2" x2="12994.5" y2="9121.39" gradientUnits="userSpaceOnUse">
<stop stop-color="#BEBEBE"/>
<stop offset="1" stop-color="#D1E3EC" stop-opacity="0"/>
</linearGradient>
</defs>
</svg>
